# Blender 5.0.1
# www.blender.org
mtllib Particle.mtl
o 球
v 0.000000 0.300000 0.000000
v 0.000000 0.187047 0.234549
v 0.000000 0.130165 0.270291
v 0.000000 0.066756 0.292478
v 0.000000 -0.066756 0.292478
v 0.000000 -0.130165 0.270291
v 0.000000 -0.187047 0.234549
v 0.000000 -0.300000 0.000000
v -0.017278 0.292478 0.064482
v -0.033689 0.270291 0.125730
v -0.048411 0.234549 0.180673
v -0.060706 0.187047 0.226557
v -0.069956 0.130165 0.261081
v -0.075699 0.066756 0.282512
v -0.077646 0.000000 0.289778
v -0.075699 -0.066756 0.282512
v -0.069956 -0.130165 0.261081
v -0.060706 -0.187047 0.226557
v -0.048411 -0.234549 0.180673
v -0.033689 -0.270291 0.125730
v -0.017278 -0.292478 0.064482
v -0.033378 0.292478 0.057813
v -0.065083 0.270291 0.112726
v -0.093523 0.234549 0.161987
v -0.117275 0.187047 0.203126
v -0.135145 0.130165 0.234079
v -0.146239 0.066756 0.253294
v -0.150000 0.000000 0.259808
v -0.146239 -0.066756 0.253294
v -0.135145 -0.130165 0.234079
v -0.117275 -0.187047 0.203126
v -0.093523 -0.234549 0.161987
v -0.065083 -0.270291 0.112726
v -0.033378 -0.292478 0.057813
v -0.047204 0.292478 0.047204
v -0.092041 0.270291 0.092041
v -0.132262 0.234549 0.132262
v -0.165852 0.187047 0.165851
v -0.191124 0.130165 0.191124
v -0.206813 0.066756 0.206813
v -0.212132 0.000000 0.212132
v -0.206813 -0.066756 0.206813
v -0.191124 -0.130165 0.191124
v -0.165852 -0.187047 0.165851
v -0.132262 -0.234549 0.132262
v -0.092041 -0.270291 0.092041
v -0.047204 -0.292478 0.047204
v -0.057813 0.292478 0.033378
v -0.112726 0.270291 0.065083
v -0.161987 0.234549 0.093523
v -0.203126 0.187047 0.117275
v -0.234079 0.130165 0.135145
v -0.253294 0.066756 0.146239
v -0.259808 0.000000 0.150000
v -0.253294 -0.066756 0.146239
v -0.234079 -0.130165 0.135145
v -0.203126 -0.187047 0.117275
v -0.161987 -0.234549 0.093523
v -0.112726 -0.270291 0.065083
v -0.057813 -0.292478 0.033378
v -0.064482 0.292478 0.017278
v -0.125730 0.270291 0.033689
v -0.180673 0.234549 0.048411
v -0.226557 0.187047 0.060706
v -0.261081 0.130165 0.069956
v -0.282512 0.066756 0.075699
v -0.289778 0.000000 0.077646
v -0.282512 -0.066756 0.075699
v -0.261081 -0.130165 0.069956
v -0.226557 -0.187047 0.060706
v -0.180673 -0.234549 0.048411
v -0.125730 -0.270291 0.033689
v -0.064482 -0.292478 0.017278
v -0.066756 0.292478 0.000000
v -0.130165 0.270291 -0.000000
v -0.187047 0.234549 0.000000
v -0.234549 0.187047 -0.000000
v -0.270291 0.130165 -0.000000
v -0.292478 0.066756 -0.000000
v -0.300000 0.000000 0.000000
v -0.292478 -0.066756 -0.000000
v -0.270291 -0.130165 -0.000000
v -0.234549 -0.187047 -0.000000
v -0.187047 -0.234549 0.000000
v -0.130165 -0.270291 -0.000000
v -0.066756 -0.292478 0.000000
v -0.064482 0.292478 -0.017278
v -0.125730 0.270291 -0.033689
v -0.180673 0.234549 -0.048411
v -0.226557 0.187047 -0.060706
v -0.261081 0.130165 -0.069956
v -0.282512 0.066756 -0.075699
v -0.289778 0.000000 -0.077646
v -0.282512 -0.066756 -0.075699
v -0.261081 -0.130165 -0.069956
v -0.226557 -0.187047 -0.060706
v -0.180673 -0.234549 -0.048411
v -0.125730 -0.270291 -0.033689
v -0.064482 -0.292478 -0.017278
v -0.057813 0.292478 -0.033378
v -0.112726 0.270291 -0.065083
v -0.161987 0.234549 -0.093523
v -0.203126 0.187047 -0.117275
v -0.234079 0.130165 -0.135145
v -0.253294 0.066756 -0.146239
v -0.259808 0.000000 -0.150000
v -0.253294 -0.066756 -0.146239
v -0.234079 -0.130165 -0.135145
v -0.203126 -0.187047 -0.117275
v -0.161987 -0.234549 -0.093523
v -0.112726 -0.270291 -0.065083
v -0.057813 -0.292478 -0.033378
v -0.047204 0.292478 -0.047204
v -0.092041 0.270291 -0.092041
v -0.132262 0.234549 -0.132262
v -0.165851 0.187047 -0.165852
v -0.191124 0.130165 -0.191124
v -0.206813 0.066756 -0.206813
v -0.212132 0.000000 -0.212132
v -0.206813 -0.066756 -0.206813
v -0.191124 -0.130165 -0.191124
v -0.165851 -0.187047 -0.165852
v -0.132262 -0.234549 -0.132262
v -0.092041 -0.270291 -0.092041
v -0.047204 -0.292478 -0.047204
v -0.033378 0.292478 -0.057813
v -0.065083 0.270291 -0.112726
v -0.093523 0.234549 -0.161987
v -0.117275 0.187047 -0.203126
v -0.135145 0.130165 -0.234079
v -0.146239 0.066756 -0.253294
v -0.150000 0.000000 -0.259808
v -0.146239 -0.066756 -0.253294
v -0.135145 -0.130165 -0.234079
v -0.117275 -0.187047 -0.203126
v -0.093523 -0.234549 -0.161987
v -0.065083 -0.270291 -0.112726
v -0.033378 -0.292478 -0.057813
v -0.017278 0.292478 -0.064482
v -0.033689 0.270291 -0.125730
v -0.048411 0.234549 -0.180673
v -0.060706 0.187047 -0.226557
v -0.069956 0.130165 -0.261081
v -0.075699 0.066756 -0.282512
v -0.077646 0.000000 -0.289778
v -0.075699 -0.066756 -0.282512
v -0.069956 -0.130165 -0.261081
v -0.060706 -0.187047 -0.226557
v -0.048411 -0.234549 -0.180673
v -0.033689 -0.270291 -0.125730
v -0.017278 -0.292478 -0.064482
v 0.000000 0.292478 -0.066756
v 0.000000 0.270291 -0.130165
v -0.000000 0.234549 -0.187047
v 0.000000 0.187047 -0.234549
v 0.000000 0.130165 -0.270291
v 0.000000 0.066756 -0.292478
v -0.000000 0.000000 -0.300000
v 0.000000 -0.066756 -0.292478
v 0.000000 -0.130165 -0.270291
v 0.000000 -0.187047 -0.234549
v -0.000000 -0.234549 -0.187047
v 0.000000 -0.270291 -0.130165
v 0.000000 -0.292478 -0.066756
v 0.017278 0.292478 -0.064482
v 0.033689 0.270291 -0.125730
v 0.048411 0.234549 -0.180673
v 0.060706 0.187047 -0.226557
v 0.069956 0.130165 -0.261081
v 0.075699 0.066756 -0.282512
v 0.077646 0.000000 -0.289778
v 0.075699 -0.066756 -0.282512
v 0.069956 -0.130165 -0.261081
v 0.060706 -0.187047 -0.226557
v 0.048411 -0.234549 -0.180673
v 0.033689 -0.270291 -0.125730
v 0.017278 -0.292478 -0.064482
v 0.033378 0.292478 -0.057813
v 0.065083 0.270291 -0.112726
v 0.093523 0.234549 -0.161987
v 0.117275 0.187047 -0.203126
v 0.135145 0.130165 -0.234079
v 0.146239 0.066756 -0.253294
v 0.150000 0.000000 -0.259808
v 0.146239 -0.066756 -0.253294
v 0.135145 -0.130165 -0.234079
v 0.117275 -0.187047 -0.203126
v 0.093523 -0.234549 -0.161987
v 0.065083 -0.270291 -0.112726
v 0.033378 -0.292478 -0.057813
v 0.047204 0.292478 -0.047204
v 0.092041 0.270291 -0.092041
v 0.132262 0.234549 -0.132262
v 0.165851 0.187047 -0.165851
v 0.191124 0.130165 -0.191124
v 0.206813 0.066756 -0.206813
v 0.212132 0.000000 -0.212132
v 0.206813 -0.066756 -0.206813
v 0.191124 -0.130165 -0.191124
v 0.165851 -0.187047 -0.165851
v 0.132262 -0.234549 -0.132262
v 0.092041 -0.270291 -0.092041
v 0.047204 -0.292478 -0.047204
v 0.057813 0.292478 -0.033378
v 0.112726 0.270291 -0.065083
v 0.161987 0.234549 -0.093523
v 0.203126 0.187047 -0.117275
v 0.234079 0.130165 -0.135145
v 0.253294 0.066756 -0.146239
v 0.259808 0.000000 -0.150000
v 0.253294 -0.066756 -0.146239
v 0.234079 -0.130165 -0.135145
v 0.203126 -0.187047 -0.117275
v 0.161987 -0.234549 -0.093523
v 0.112726 -0.270291 -0.065083
v 0.057813 -0.292478 -0.033378
v 0.064482 0.292478 -0.017278
v 0.125730 0.270291 -0.033689
v 0.180673 0.234549 -0.048411
v 0.226557 0.187047 -0.060706
v 0.261081 0.130165 -0.069956
v 0.282512 0.066756 -0.075699
v 0.289778 0.000000 -0.077646
v 0.282512 -0.066756 -0.075699
v 0.261081 -0.130165 -0.069956
v 0.226557 -0.187047 -0.060706
v 0.180673 -0.234549 -0.048411
v 0.125730 -0.270291 -0.033689
v 0.064482 -0.292478 -0.017278
v 0.066756 0.292478 0.000000
v 0.130165 0.270291 0.000000
v 0.187047 0.234549 -0.000000
v 0.234549 0.187047 0.000000
v 0.270291 0.130165 0.000000
v 0.292478 0.066756 0.000000
v 0.300000 0.000000 -0.000000
v 0.292478 -0.066756 0.000000
v 0.270291 -0.130165 0.000000
v 0.234549 -0.187047 0.000000
v 0.187047 -0.234549 -0.000000
v 0.130165 -0.270291 0.000000
v 0.066756 -0.292478 0.000000
v 0.064482 0.292478 0.017278
v 0.125730 0.270291 0.033689
v 0.180673 0.234549 0.048411
v 0.226557 0.187047 0.060706
v 0.261081 0.130165 0.069956
v 0.282512 0.066756 0.075699
v 0.289778 0.000000 0.077646
v 0.282512 -0.066756 0.075699
v 0.261081 -0.130165 0.069956
v 0.226557 -0.187047 0.060706
v 0.180673 -0.234549 0.048411
v 0.125730 -0.270291 0.033689
v 0.064482 -0.292478 0.017278
v 0.057813 0.292478 0.033378
v 0.112726 0.270291 0.065083
v 0.161987 0.234549 0.093523
v 0.203126 0.187047 0.117275
v 0.234079 0.130165 0.135145
v 0.253294 0.066756 0.146239
v 0.259808 0.000000 0.150000
v 0.253294 -0.066756 0.146239
v 0.234079 -0.130165 0.135145
v 0.203126 -0.187047 0.117275
v 0.161987 -0.234549 0.093523
v 0.112726 -0.270291 0.065083
v 0.057813 -0.292478 0.033378
v 0.047204 0.292478 0.047204
v 0.092041 0.270291 0.092041
v 0.132262 0.234549 0.132262
v 0.165851 0.187047 0.165851
v 0.191124 0.130165 0.191124
v 0.206813 0.066756 0.206813
v 0.212132 0.000000 0.212132
v 0.206813 -0.066756 0.206813
v 0.191124 -0.130165 0.191124
v 0.165851 -0.187047 0.165851
v 0.132262 -0.234549 0.132262
v 0.092041 -0.270291 0.092041
v 0.047204 -0.292478 0.047204
v 0.033378 0.292478 0.057813
v 0.065082 0.270291 0.112726
v 0.093523 0.234549 0.161987
v 0.117275 0.187047 0.203126
v 0.135145 0.130165 0.234079
v 0.146239 0.066756 0.253294
v 0.150000 0.000000 0.259808
v 0.146239 -0.066756 0.253294
v 0.135145 -0.130165 0.234079
v 0.117275 -0.187047 0.203126
v 0.093523 -0.234549 0.161987
v 0.065082 -0.270291 0.112726
v 0.033378 -0.292478 0.057813
v 0.017278 0.292478 0.064482
v 0.033689 0.270291 0.125730
v 0.048411 0.234549 0.180673
v 0.060706 0.187047 0.226557
v 0.069956 0.130165 0.261081
v 0.075699 0.066756 0.282512
v 0.077646 0.000000 0.289778
v 0.075699 -0.066756 0.282512
v 0.069956 -0.130165 0.261081
v 0.060706 -0.187047 0.226557
v 0.048411 -0.234549 0.180673
v 0.033689 -0.270291 0.125730
v 0.017278 -0.292478 0.064482
v 0.000000 0.292478 0.066756
v -0.000000 0.270291 0.130165
v 0.000000 0.234549 0.187047
v 0.000000 0.000000 0.300000
v 0.000000 -0.234549 0.187047
v -0.000000 -0.270291 0.130165
v 0.000000 -0.292478 0.066756
vn -0.0147 -0.9936 0.1120
vn -0.1297 0.1110 0.9853
vn -0.1297 -0.1110 0.9853
vn -0.0147 0.9936 0.1120
vn -0.1233 -0.3278 0.9367
vn -0.0434 0.9430 0.3300
vn -0.1108 -0.5288 0.8415
vn -0.0699 0.8447 0.5307
vn -0.0927 -0.7041 0.7041
vn -0.0927 0.7041 0.7041
vn -0.0699 -0.8447 0.5307
vn -0.1108 0.5288 0.8415
vn -0.0434 -0.9430 0.3300
vn -0.1233 0.3278 0.9367
vn -0.3803 0.1110 0.9182
vn -0.3803 -0.1110 0.9182
vn -0.0432 0.9936 0.1043
vn -0.3615 -0.3278 0.8728
vn -0.1274 0.9430 0.3075
vn -0.3248 -0.5288 0.7842
vn -0.2049 0.8447 0.4946
vn -0.2718 -0.7041 0.6561
vn -0.2718 0.7041 0.6561
vn -0.2049 -0.8447 0.4946
vn -0.3248 0.5288 0.7842
vn -0.1274 -0.9430 0.3075
vn -0.3615 0.3278 0.8728
vn -0.0432 -0.9936 0.1043
vn -0.6050 -0.1110 0.7884
vn -0.0687 0.9936 0.0896
vn -0.5751 -0.3278 0.7495
vn -0.2026 0.9430 0.2640
vn -0.5167 -0.5288 0.6734
vn -0.3259 0.8447 0.4247
vn -0.4323 -0.7041 0.5634
vn -0.4323 0.7041 0.5634
vn -0.3259 -0.8447 0.4247
vn -0.5167 0.5288 0.6734
vn -0.2026 -0.9430 0.2640
vn -0.5751 0.3278 0.7495
vn -0.0687 -0.9936 0.0896
vn -0.6050 0.1110 0.7884
vn -0.0896 0.9936 0.0687
vn -0.7495 -0.3278 0.5751
vn -0.2640 0.9430 0.2026
vn -0.6734 -0.5288 0.5167
vn -0.4247 0.8447 0.3259
vn -0.5634 -0.7041 0.4323
vn -0.5634 0.7041 0.4323
vn -0.4247 -0.8447 0.3259
vn -0.6734 0.5288 0.5167
vn -0.2640 -0.9430 0.2026
vn -0.7495 0.3278 0.5751
vn -0.0896 -0.9936 0.0687
vn -0.7884 0.1110 0.6050
vn -0.7884 -0.1110 0.6050
vn -0.8728 -0.3278 0.3615
vn -0.3075 0.9430 0.1274
vn -0.7842 -0.5288 0.3248
vn -0.4946 0.8447 0.2049
vn -0.6561 -0.7041 0.2718
vn -0.6561 0.7041 0.2718
vn -0.4946 -0.8447 0.2049
vn -0.7842 0.5288 0.3248
vn -0.3075 -0.9430 0.1274
vn -0.8728 0.3278 0.3615
vn -0.1043 -0.9936 0.0432
vn -0.9182 0.1110 0.3803
vn -0.9182 -0.1110 0.3803
vn -0.1043 0.9936 0.0432
vn -0.3300 0.9430 0.0434
vn -0.8415 -0.5288 0.1108
vn -0.5307 0.8447 0.0699
vn -0.7041 -0.7041 0.0927
vn -0.7041 0.7041 0.0927
vn -0.5307 -0.8447 0.0699
vn -0.8415 0.5288 0.1108
vn -0.3300 -0.9430 0.0434
vn -0.9367 0.3278 0.1233
vn -0.1120 -0.9936 0.0147
vn -0.9853 0.1110 0.1297
vn -0.9853 -0.1110 0.1297
vn -0.1120 0.9936 0.0147
vn -0.9367 -0.3278 0.1233
vn -0.8415 -0.5288 -0.1108
vn -0.5307 0.8447 -0.0699
vn -0.7041 -0.7041 -0.0927
vn -0.7041 0.7041 -0.0927
vn -0.5307 -0.8447 -0.0699
vn -0.8415 0.5288 -0.1108
vn -0.3300 -0.9430 -0.0434
vn -0.9367 0.3278 -0.1233
vn -0.1120 -0.9936 -0.0147
vn -0.9853 0.1110 -0.1297
vn -0.9853 -0.1110 -0.1297
vn -0.1120 0.9936 -0.0147
vn -0.9367 -0.3278 -0.1233
vn -0.3300 0.9430 -0.0434
vn -0.6561 -0.7041 -0.2718
vn -0.6561 0.7041 -0.2718
vn -0.4946 -0.8447 -0.2049
vn -0.7842 0.5288 -0.3248
vn -0.3075 -0.9430 -0.1274
vn -0.8728 0.3278 -0.3615
vn -0.1043 -0.9936 -0.0432
vn -0.9182 0.1110 -0.3803
vn -0.9182 -0.1110 -0.3803
vn -0.1043 0.9936 -0.0432
vn -0.8728 -0.3278 -0.3615
vn -0.3075 0.9430 -0.1274
vn -0.7842 -0.5288 -0.3248
vn -0.4946 0.8447 -0.2049
vn -0.5634 0.7041 -0.4323
vn -0.4247 -0.8447 -0.3259
vn -0.6734 0.5288 -0.5167
vn -0.2640 -0.9430 -0.2026
vn -0.7495 0.3278 -0.5751
vn -0.0896 -0.9936 -0.0687
vn -0.7884 0.1110 -0.6050
vn -0.7884 -0.1110 -0.6050
vn -0.0896 0.9936 -0.0687
vn -0.7495 -0.3278 -0.5751
vn -0.2640 0.9430 -0.2026
vn -0.6734 -0.5288 -0.5167
vn -0.4247 0.8447 -0.3259
vn -0.5634 -0.7041 -0.4323
vn -0.3259 -0.8447 -0.4247
vn -0.5167 0.5288 -0.6734
vn -0.2026 -0.9430 -0.2640
vn -0.5751 0.3278 -0.7495
vn -0.0687 -0.9936 -0.0896
vn -0.6050 0.1110 -0.7884
vn -0.6050 -0.1110 -0.7884
vn -0.0687 0.9936 -0.0896
vn -0.5751 -0.3278 -0.7495
vn -0.2026 0.9430 -0.2640
vn -0.5167 -0.5288 -0.6734
vn -0.3259 0.8447 -0.4247
vn -0.4323 -0.7041 -0.5634
vn -0.4323 0.7041 -0.5634
vn -0.3248 0.5288 -0.7842
vn -0.1274 -0.9430 -0.3075
vn -0.3615 0.3278 -0.8728
vn -0.0432 -0.9936 -0.1043
vn -0.3803 0.1110 -0.9182
vn -0.3803 -0.1110 -0.9182
vn -0.0432 0.9936 -0.1043
vn -0.3615 -0.3278 -0.8728
vn -0.1274 0.9430 -0.3075
vn -0.3248 -0.5288 -0.7842
vn -0.2049 0.8447 -0.4946
vn -0.2718 -0.7041 -0.6561
vn -0.2718 0.7041 -0.6561
vn -0.2049 -0.8447 -0.4946
vn -0.0434 -0.9430 -0.3300
vn -0.1233 0.3278 -0.9367
vn -0.0147 -0.9936 -0.1120
vn -0.1297 0.1110 -0.9853
vn -0.1297 -0.1110 -0.9853
vn -0.0147 0.9936 -0.1120
vn -0.1233 -0.3278 -0.9367
vn -0.0434 0.9430 -0.3300
vn -0.1108 -0.5288 -0.8415
vn -0.0699 0.8447 -0.5307
vn -0.0927 -0.7041 -0.7041
vn -0.0927 0.7041 -0.7041
vn -0.0699 -0.8447 -0.5307
vn -0.1108 0.5288 -0.8415
vn 0.0147 -0.9936 -0.1120
vn 0.1297 0.1110 -0.9853
vn 0.1297 -0.1110 -0.9853
vn 0.0147 0.9936 -0.1120
vn 0.1233 -0.3278 -0.9367
vn 0.0434 0.9430 -0.3300
vn 0.1108 -0.5288 -0.8415
vn 0.0699 0.8447 -0.5307
vn 0.0927 -0.7041 -0.7041
vn 0.0927 0.7041 -0.7041
vn 0.0699 -0.8447 -0.5307
vn 0.1108 0.5288 -0.8415
vn 0.0434 -0.9430 -0.3300
vn 0.1233 0.3278 -0.9367
vn 0.3803 0.1110 -0.9182
vn 0.3803 -0.1110 -0.9182
vn 0.0432 0.9936 -0.1043
vn 0.3615 -0.3278 -0.8728
vn 0.1274 0.9430 -0.3075
vn 0.3248 -0.5288 -0.7842
vn 0.2049 0.8447 -0.4946
vn 0.2718 -0.7041 -0.6561
vn 0.2718 0.7041 -0.6561
vn 0.2049 -0.8447 -0.4946
vn 0.3248 0.5288 -0.7842
vn 0.1274 -0.9430 -0.3075
vn 0.3615 0.3278 -0.8728
vn 0.0432 -0.9936 -0.1043
vn 0.6050 -0.1110 -0.7884
vn 0.0687 0.9936 -0.0896
vn 0.5751 -0.3278 -0.7495
vn 0.2026 0.9430 -0.2640
vn 0.5167 -0.5288 -0.6734
vn 0.3259 0.8447 -0.4247
vn 0.4323 -0.7041 -0.5634
vn 0.4323 0.7041 -0.5634
vn 0.3259 -0.8447 -0.4247
vn 0.5167 0.5288 -0.6734
vn 0.2026 -0.9430 -0.2640
vn 0.5751 0.3278 -0.7495
vn 0.0687 -0.9936 -0.0896
vn 0.6050 0.1110 -0.7884
vn 0.7884 -0.1110 -0.6050
vn 0.0896 0.9936 -0.0687
vn 0.7495 -0.3278 -0.5751
vn 0.2640 0.9430 -0.2026
vn 0.6734 -0.5288 -0.5167
vn 0.4247 0.8447 -0.3259
vn 0.5634 -0.7041 -0.4323
vn 0.5634 0.7041 -0.4323
vn 0.4247 -0.8447 -0.3259
vn 0.6734 0.5288 -0.5167
vn 0.2640 -0.9430 -0.2026
vn 0.7495 0.3278 -0.5751
vn 0.0896 -0.9936 -0.0687
vn 0.7884 0.1110 -0.6050
vn 0.8728 -0.3278 -0.3615
vn 0.3075 0.9430 -0.1274
vn 0.7842 -0.5288 -0.3248
vn 0.4946 0.8447 -0.2049
vn 0.6561 -0.7041 -0.2718
vn 0.6561 0.7041 -0.2718
vn 0.4946 -0.8447 -0.2049
vn 0.7842 0.5288 -0.3248
vn 0.3075 -0.9430 -0.1274
vn 0.8728 0.3278 -0.3615
vn 0.1043 -0.9936 -0.0432
vn 0.9182 0.1110 -0.3803
vn 0.9182 -0.1110 -0.3803
vn 0.1043 0.9936 -0.0432
vn 0.3300 0.9430 -0.0434
vn 0.8415 -0.5288 -0.1108
vn 0.5307 0.8447 -0.0699
vn 0.7041 -0.7041 -0.0927
vn 0.7041 0.7041 -0.0927
vn 0.5307 -0.8447 -0.0699
vn 0.8415 0.5288 -0.1108
vn 0.3300 -0.9430 -0.0434
vn 0.9367 0.3278 -0.1233
vn 0.1120 -0.9936 -0.0147
vn 0.9853 0.1110 -0.1297
vn 0.9853 -0.1110 -0.1297
vn 0.1120 0.9936 -0.0147
vn 0.9367 -0.3278 -0.1233
vn 0.8415 -0.5288 0.1108
vn 0.5307 0.8447 0.0699
vn 0.7041 -0.7041 0.0927
vn 0.7041 0.7041 0.0927
vn 0.5307 -0.8447 0.0699
vn 0.8415 0.5288 0.1108
vn 0.3300 -0.9430 0.0434
vn 0.9367 0.3278 0.1233
vn 0.1120 -0.9936 0.0147
vn 0.9853 0.1110 0.1297
vn 0.9853 -0.1110 0.1297
vn 0.1120 0.9936 0.0147
vn 0.9367 -0.3278 0.1233
vn 0.3300 0.9430 0.0434
vn 0.4946 0.8447 0.2049
vn 0.6561 -0.7041 0.2718
vn 0.6561 0.7041 0.2718
vn 0.4946 -0.8447 0.2049
vn 0.7842 0.5288 0.3248
vn 0.3075 -0.9430 0.1274
vn 0.8728 0.3278 0.3615
vn 0.1043 -0.9936 0.0432
vn 0.9182 0.1110 0.3803
vn 0.9182 -0.1110 0.3803
vn 0.1043 0.9936 0.0432
vn 0.8728 -0.3278 0.3615
vn 0.3075 0.9430 0.1274
vn 0.7842 -0.5288 0.3248
vn 0.5634 -0.7041 0.4323
vn 0.5634 0.7041 0.4323
vn 0.4247 -0.8447 0.3259
vn 0.6734 0.5288 0.5167
vn 0.2640 -0.9430 0.2026
vn 0.7495 0.3278 0.5751
vn 0.0896 -0.9936 0.0687
vn 0.7884 0.1110 0.6050
vn 0.7884 -0.1110 0.6050
vn 0.0896 0.9936 0.0687
vn 0.7495 -0.3278 0.5751
vn 0.2640 0.9430 0.2026
vn 0.6734 -0.5288 0.5167
vn 0.4247 0.8447 0.3259
vn 0.3259 -0.8447 0.4247
vn 0.5167 0.5288 0.6734
vn 0.2026 -0.9430 0.2640
vn 0.5751 0.3278 0.7495
vn 0.0687 -0.9936 0.0896
vn 0.6050 0.1110 0.7884
vn 0.6050 -0.1110 0.7884
vn 0.0687 0.9936 0.0896
vn 0.5751 -0.3278 0.7495
vn 0.2026 0.9430 0.2640
vn 0.5167 -0.5288 0.6734
vn 0.3259 0.8447 0.4247
vn 0.4323 -0.7041 0.5634
vn 0.4323 0.7041 0.5634
vn 0.3248 0.5288 0.7842
vn 0.1274 -0.9430 0.3075
vn 0.3615 0.3278 0.8728
vn 0.0432 -0.9936 0.1043
vn 0.3803 0.1110 0.9182
vn 0.3803 -0.1110 0.9182
vn 0.0432 0.9936 0.1043
vn 0.3615 -0.3278 0.8728
vn 0.1274 0.9430 0.3075
vn 0.3248 -0.5288 0.7842
vn 0.2049 0.8447 0.4946
vn 0.2718 -0.7041 0.6561
vn 0.2718 0.7041 0.6561
vn 0.2049 -0.8447 0.4946
vn 0.0434 -0.9430 0.3300
vn 0.1233 0.3278 0.9367
vn 0.0147 -0.9936 0.1120
vn 0.1297 0.1110 0.9853
vn 0.1297 -0.1110 0.9853
vn 0.0147 0.9936 0.1120
vn 0.1233 -0.3278 0.9367
vn 0.0434 0.9430 0.3300
vn 0.1108 -0.5288 0.8415
vn 0.0699 0.8447 0.5307
vn 0.0927 -0.7041 0.7041
vn 0.0927 0.7041 0.7041
vn 0.0699 -0.8447 0.5307
vn 0.1108 0.5288 0.8415
vt 0.729167 0.000000
vt 0.750000 0.071429
vt 0.708333 0.071429
vt 0.750000 0.571429
vt 0.708333 0.500000
vt 0.750000 0.500000
vt 0.708333 0.428571
vt 0.750000 0.428571
vt 0.750000 0.928571
vt 0.729167 1.000000
vt 0.708333 0.928571
vt 0.708333 0.357143
vt 0.750000 0.357143
vt 0.750000 0.857143
vt 0.708333 0.857143
vt 0.708333 0.285714
vt 0.750000 0.285714
vt 0.750000 0.785714
vt 0.708333 0.785714
vt 0.708333 0.214286
vt 0.750000 0.214286
vt 0.708333 0.714286
vt 0.750000 0.714286
vt 0.708333 0.142857
vt 0.750000 0.142857
vt 0.708333 0.642857
vt 0.750000 0.642857
vt 0.708333 0.571429
vt 0.666667 0.571429
vt 0.666667 0.500000
vt 0.666667 0.428571
vt 0.687500 1.000000
vt 0.666667 0.928571
vt 0.666667 0.357143
vt 0.666667 0.857143
vt 0.666667 0.285714
vt 0.666667 0.785714
vt 0.666667 0.214286
vt 0.666667 0.714286
vt 0.666667 0.142857
vt 0.666667 0.642857
vt 0.666667 0.071429
vt 0.687500 0.000000
vt 0.625000 0.500000
vt 0.625000 0.428571
vt 0.645833 1.000000
vt 0.625000 0.928571
vt 0.625000 0.357143
vt 0.625000 0.857143
vt 0.625000 0.285714
vt 0.625000 0.785714
vt 0.625000 0.214286
vt 0.625000 0.714286
vt 0.625000 0.142857
vt 0.625000 0.642857
vt 0.625000 0.071429
vt 0.625000 0.571429
vt 0.645833 0.000000
vt 0.604167 1.000000
vt 0.583333 0.928571
vt 0.583333 0.357143
vt 0.583333 0.857143
vt 0.583333 0.285714
vt 0.583333 0.785714
vt 0.583333 0.214286
vt 0.583333 0.714286
vt 0.583333 0.142857
vt 0.583333 0.642857
vt 0.583333 0.071429
vt 0.583333 0.571429
vt 0.604167 0.000000
vt 0.583333 0.500000
vt 0.583333 0.428571
vt 0.541667 0.357143
vt 0.541667 0.857143
vt 0.541667 0.285714
vt 0.541667 0.785714
vt 0.541667 0.214286
vt 0.541667 0.714286
vt 0.541667 0.142857
vt 0.541667 0.642857
vt 0.541667 0.071429
vt 0.541667 0.571429
vt 0.562500 0.000000
vt 0.541667 0.500000
vt 0.541667 0.428571
vt 0.562500 1.000000
vt 0.541667 0.928571
vt 0.500000 0.857143
vt 0.500000 0.285714
vt 0.500000 0.785714
vt 0.500000 0.214286
vt 0.500000 0.714286
vt 0.500000 0.142857
vt 0.500000 0.642857
vt 0.500000 0.071429
vt 0.500000 0.571429
vt 0.520833 0.000000
vt 0.500000 0.500000
vt 0.500000 0.428571
vt 0.520833 1.000000
vt 0.500000 0.928571
vt 0.500000 0.357143
vt 0.458333 0.285714
vt 0.458333 0.785714
vt 0.458333 0.214286
vt 0.458333 0.714286
vt 0.458333 0.142857
vt 0.458333 0.642857
vt 0.458333 0.071429
vt 0.458333 0.571429
vt 0.479167 0.000000
vt 0.458333 0.500000
vt 0.458333 0.428571
vt 0.479167 1.000000
vt 0.458333 0.928571
vt 0.458333 0.357143
vt 0.458333 0.857143
vt 0.416667 0.214286
vt 0.416667 0.785714
vt 0.416667 0.714286
vt 0.416667 0.142857
vt 0.416667 0.642857
vt 0.416667 0.071429
vt 0.416667 0.571429
vt 0.437500 0.000000
vt 0.416667 0.500000
vt 0.416667 0.428571
vt 0.437500 1.000000
vt 0.416667 0.928571
vt 0.416667 0.357143
vt 0.416667 0.857143
vt 0.416667 0.285714
vt 0.375000 0.785714
vt 0.375000 0.714286
vt 0.375000 0.214286
vt 0.375000 0.142857
vt 0.375000 0.642857
vt 0.375000 0.071429
vt 0.375000 0.571429
vt 0.395833 0.000000
vt 0.375000 0.500000
vt 0.375000 0.428571
vt 0.395833 1.000000
vt 0.375000 0.928571
vt 0.375000 0.357143
vt 0.375000 0.857143
vt 0.375000 0.285714
vt 0.333333 0.142857
vt 0.333333 0.714286
vt 0.333333 0.642857
vt 0.333333 0.071429
vt 0.333333 0.571429
vt 0.354167 0.000000
vt 0.333333 0.500000
vt 0.333333 0.428571
vt 0.354167 1.000000
vt 0.333333 0.928571
vt 0.333333 0.357143
vt 0.333333 0.857143
vt 0.333333 0.285714
vt 0.333333 0.785714
vt 0.333333 0.214286
vt 0.291667 0.642857
vt 0.291667 0.071429
vt 0.291667 0.571429
vt 0.312500 0.000000
vt 0.291667 0.500000
vt 0.291667 0.428571
vt 0.312500 1.000000
vt 0.291667 0.928571
vt 0.291667 0.357143
vt 0.291667 0.857143
vt 0.291667 0.285714
vt 0.291667 0.785714
vt 0.291667 0.214286
vt 0.291667 0.714286
vt 0.291667 0.142857
vt 0.250000 0.071429
vt 0.250000 0.571429
vt 0.270833 0.000000
vt 0.250000 0.500000
vt 0.250000 0.428571
vt 0.270833 1.000000
vt 0.250000 0.928571
vt 0.250000 0.357143
vt 0.250000 0.857143
vt 0.250000 0.285714
vt 0.250000 0.785714
vt 0.250000 0.214286
vt 0.250000 0.714286
vt 0.250000 0.142857
vt 0.250000 0.642857
vt 0.229167 0.000000
vt 0.208333 0.071429
vt 0.208333 0.500000
vt 0.208333 0.428571
vt 0.229167 1.000000
vt 0.208333 0.928571
vt 0.208333 0.357143
vt 0.208333 0.857143
vt 0.208333 0.285714
vt 0.208333 0.785714
vt 0.208333 0.214286
vt 0.208333 0.714286
vt 0.208333 0.142857
vt 0.208333 0.642857
vt 0.208333 0.571429
vt 0.166667 0.500000
vt 0.166667 0.428571
vt 0.187500 1.000000
vt 0.166667 0.928571
vt 0.166667 0.357143
vt 0.166667 0.857143
vt 0.166667 0.285714
vt 0.166667 0.785714
vt 0.166667 0.214286
vt 0.166667 0.714286
vt 0.166667 0.142857
vt 0.166667 0.642857
vt 0.166667 0.071429
vt 0.166667 0.571429
vt 0.187500 0.000000
vt 0.125000 0.500000
vt 0.125000 0.428571
vt 0.145833 1.000000
vt 0.125000 0.928571
vt 0.125000 0.357143
vt 0.125000 0.857143
vt 0.125000 0.285714
vt 0.125000 0.785714
vt 0.125000 0.214286
vt 0.125000 0.714286
vt 0.125000 0.142857
vt 0.125000 0.642857
vt 0.125000 0.071429
vt 0.125000 0.571429
vt 0.145833 0.000000
vt 0.083333 0.500000
vt 0.083333 0.428571
vt 0.104167 1.000000
vt 0.083333 0.928571
vt 0.083333 0.357143
vt 0.083333 0.857143
vt 0.083333 0.285714
vt 0.083333 0.785714
vt 0.083333 0.214286
vt 0.083333 0.714286
vt 0.083333 0.142857
vt 0.083333 0.642857
vt 0.083333 0.071429
vt 0.083333 0.571429
vt 0.104167 0.000000
vt 0.041667 0.357143
vt 0.041667 0.857143
vt 0.041667 0.285714
vt 0.041667 0.785714
vt 0.041667 0.214286
vt 0.041667 0.714286
vt 0.041667 0.142857
vt 0.041667 0.642857
vt 0.041667 0.071429
vt 0.041667 0.571429
vt 0.062500 0.000000
vt 0.041667 0.500000
vt 0.041667 0.428571
vt 0.062500 1.000000
vt 0.041667 0.928571
vt 0.000000 0.928571
vt 0.000000 0.857143
vt 0.000000 0.285714
vt 0.000000 0.785714
vt 0.000000 0.214286
vt 0.000000 0.714286
vt 0.000000 0.142857
vt 0.000000 0.642857
vt 0.000000 0.071429
vt 0.000000 0.571429
vt 0.020833 0.000000
vt 0.000000 0.500000
vt 0.000000 0.428571
vt 0.020833 1.000000
vt 0.000000 0.357143
vt 1.000000 0.357143
vt 0.958333 0.285714
vt 1.000000 0.285714
vt 1.000000 0.857143
vt 0.958333 0.785714
vt 1.000000 0.785714
vt 0.958333 0.214286
vt 1.000000 0.214286
vt 1.000000 0.714286
vt 0.958333 0.714286
vt 1.000000 0.142857
vt 0.958333 0.142857
vt 1.000000 0.642857
vt 0.958333 0.642857
vt 0.958333 0.071429
vt 1.000000 0.071429
vt 0.958333 0.571429
vt 1.000000 0.571429
vt 0.979167 0.000000
vt 0.958333 0.500000
vt 1.000000 0.500000
vt 1.000000 0.428571
vt 0.958333 0.428571
vt 1.000000 0.928571
vt 0.979167 1.000000
vt 0.958333 0.928571
vt 0.958333 0.357143
vt 0.958333 0.857143
vt 0.916667 0.785714
vt 0.916667 0.214286
vt 0.916667 0.714286
vt 0.916667 0.142857
vt 0.916667 0.642857
vt 0.916667 0.071429
vt 0.916667 0.571429
vt 0.937500 0.000000
vt 0.916667 0.500000
vt 0.916667 0.428571
vt 0.937500 1.000000
vt 0.916667 0.928571
vt 0.916667 0.357143
vt 0.916667 0.857143
vt 0.916667 0.285714
vt 0.875000 0.214286
vt 0.875000 0.785714
vt 0.875000 0.714286
vt 0.875000 0.142857
vt 0.875000 0.642857
vt 0.875000 0.071429
vt 0.875000 0.571429
vt 0.895833 0.000000
vt 0.875000 0.500000
vt 0.875000 0.428571
vt 0.895833 1.000000
vt 0.875000 0.928571
vt 0.875000 0.357143
vt 0.875000 0.857143
vt 0.875000 0.285714
vt 0.833333 0.214286
vt 0.833333 0.142857
vt 0.833333 0.714286
vt 0.833333 0.642857
vt 0.833333 0.071429
vt 0.833333 0.571429
vt 0.854167 0.000000
vt 0.833333 0.500000
vt 0.833333 0.428571
vt 0.854167 1.000000
vt 0.833333 0.928571
vt 0.833333 0.357143
vt 0.833333 0.857143
vt 0.833333 0.285714
vt 0.833333 0.785714
vt 0.791667 0.714286
vt 0.791667 0.642857
vt 0.791667 0.071429
vt 0.791667 0.571429
vt 0.812500 0.000000
vt 0.791667 0.500000
vt 0.791667 0.428571
vt 0.812500 1.000000
vt 0.791667 0.928571
vt 0.791667 0.357143
vt 0.791667 0.857143
vt 0.791667 0.285714
vt 0.791667 0.785714
vt 0.791667 0.214286
vt 0.791667 0.142857
vt 0.770833 0.000000
vt 0.770833 1.000000
s 0
f 8/1/1 314/2/1 21/3/1
f 4/4/2 15/5/2 311/6/2
f 311/6/3 16/7/3 5/8/3
f 308/9/4 1/10/4 9/11/4
f 5/8/5 17/12/5 6/13/5
f 309/14/6 9/11/6 10/15/6
f 6/13/7 18/16/7 7/17/7
f 310/18/8 10/15/8 11/19/8
f 7/17/9 19/20/9 312/21/9
f 310/18/10 12/22/10 2/23/10
f 312/21/11 20/24/11 313/25/11
f 2/23/12 13/26/12 3/27/12
f 313/25/13 21/3/13 314/2/13
f 3/27/14 14/28/14 4/4/14
f 15/5/15 27/29/15 28/30/15
f 16/7/16 28/30/16 29/31/16
f 9/11/17 1/32/17 22/33/17
f 17/12/18 29/31/18 30/34/18
f 10/15/19 22/33/19 23/35/19
f 17/12/20 31/36/20 18/16/20
f 10/15/21 24/37/21 11/19/21
f 18/16/22 32/38/22 19/20/22
f 11/19/23 25/39/23 12/22/23
f 20/24/24 32/38/24 33/40/24
f 12/22/25 26/41/25 13/26/25
f 20/24/26 34/42/26 21/3/26
f 13/26/27 27/29/27 14/28/27
f 8/43/28 21/3/28 34/42/28
f 29/31/29 41/44/29 42/45/29
f 22/33/30 1/46/30 35/47/30
f 29/31/31 43/48/31 30/34/31
f 22/33/32 36/49/32 23/35/32
f 30/34/33 44/50/33 31/36/33
f 23/35/34 37/51/34 24/37/34
f 31/36/35 45/52/35 32/38/35
f 24/37/36 38/53/36 25/39/36
f 32/38/37 46/54/37 33/40/37
f 25/39/38 39/55/38 26/41/38
f 33/40/39 47/56/39 34/42/39
f 27/29/40 39/55/40 40/57/40
f 8/58/41 34/42/41 47/56/41
f 27/29/42 41/44/42 28/30/42
f 35/47/43 1/59/43 48/60/43
f 42/45/44 56/61/44 43/48/44
f 35/47/45 49/62/45 36/49/45
f 43/48/46 57/63/46 44/50/46
f 36/49/47 50/64/47 37/51/47
f 44/50/48 58/65/48 45/52/48
f 38/53/49 50/64/49 51/66/49
f 45/52/50 59/67/50 46/54/50
f 38/53/51 52/68/51 39/55/51
f 46/54/52 60/69/52 47/56/52
f 40/57/53 52/68/53 53/70/53
f 8/71/54 47/56/54 60/69/54
f 40/57/55 54/72/55 41/44/55
f 42/45/56 54/72/56 55/73/56
f 55/73/57 69/74/57 56/61/57
f 48/60/58 62/75/58 49/62/58
f 56/61/59 70/76/59 57/63/59
f 49/62/60 63/77/60 50/64/60
f 57/63/61 71/78/61 58/65/61
f 51/66/62 63/77/62 64/79/62
f 59/67/63 71/78/63 72/80/63
f 52/68/64 64/79/64 65/81/64
f 59/67/65 73/82/65 60/69/65
f 53/70/66 65/81/66 66/83/66
f 8/84/67 60/69/67 73/82/67
f 53/70/68 67/85/68 54/72/68
f 55/73/69 67/85/69 68/86/69
f 48/60/70 1/87/70 61/88/70
f 61/88/71 75/89/71 62/75/71
f 69/74/72 83/90/72 70/76/72
f 62/75/73 76/91/73 63/77/73
f 70/76/74 84/92/74 71/78/74
f 64/79/75 76/91/75 77/93/75
f 72/80/76 84/92/76 85/94/76
f 65/81/77 77/93/77 78/95/77
f 72/80/78 86/96/78 73/82/78
f 66/83/79 78/95/79 79/97/79
f 8/98/80 73/82/80 86/96/80
f 66/83/81 80/99/81 67/85/81
f 68/86/82 80/99/82 81/100/82
f 61/88/83 1/101/83 74/102/83
f 68/86/84 82/103/84 69/74/84
f 82/103/85 96/104/85 83/90/85
f 75/89/86 89/105/86 76/91/86
f 83/90/87 97/106/87 84/92/87
f 77/93/88 89/105/88 90/107/88
f 85/94/89 97/106/89 98/108/89
f 78/95/90 90/107/90 91/109/90
f 85/94/91 99/110/91 86/96/91
f 79/97/92 91/109/92 92/111/92
f 8/112/93 86/96/93 99/110/93
f 79/97/94 93/113/94 80/99/94
f 81/100/95 93/113/95 94/114/95
f 74/102/96 1/115/96 87/116/96
f 81/100/97 95/117/97 82/103/97
f 75/89/98 87/116/98 88/118/98
f 96/104/99 110/119/99 97/106/99
f 90/107/100 102/120/100 103/121/100
f 98/108/101 110/119/101 111/122/101
f 90/107/102 104/123/102 91/109/102
f 98/108/103 112/124/103 99/110/103
f 92/111/104 104/123/104 105/125/104
f 8/126/105 99/110/105 112/124/105
f 92/111/106 106/127/106 93/113/106
f 94/114/107 106/127/107 107/128/107
f 87/116/108 1/129/108 100/130/108
f 94/114/109 108/131/109 95/117/109
f 87/116/110 101/132/110 88/118/110
f 95/117/111 109/133/111 96/104/111
f 88/118/112 102/120/112 89/105/112
f 103/121/113 115/134/113 116/135/113
f 111/122/114 123/136/114 124/137/114
f 104/123/115 116/135/115 117/138/115
f 111/122/116 125/139/116 112/124/116
f 105/125/117 117/138/117 118/140/117
f 8/141/118 112/124/118 125/139/118
f 105/125/119 119/142/119 106/127/119
f 107/128/120 119/142/120 120/143/120
f 100/130/121 1/144/121 113/145/121
f 107/128/122 121/146/122 108/131/122
f 100/130/123 114/147/123 101/132/123
f 109/133/124 121/146/124 122/148/124
f 101/132/125 115/134/125 102/120/125
f 109/133/126 123/136/126 110/119/126
f 123/136/127 137/149/127 124/137/127
f 117/138/128 129/150/128 130/151/128
f 124/137/129 138/152/129 125/139/129
f 118/140/130 130/151/130 131/153/130
f 8/154/131 125/139/131 138/152/131
f 118/140/132 132/155/132 119/142/132
f 120/143/133 132/155/133 133/156/133
f 113/145/134 1/157/134 126/158/134
f 120/143/135 134/159/135 121/146/135
f 113/145/136 127/160/136 114/147/136
f 121/146/137 135/161/137 122/148/137
f 114/147/138 128/162/138 115/134/138
f 122/148/139 136/163/139 123/136/139
f 116/135/140 128/162/140 129/150/140
f 129/150/141 143/164/141 130/151/141
f 137/149/142 151/165/142 138/152/142
f 131/153/143 143/164/143 144/166/143
f 8/167/144 138/152/144 151/165/144
f 131/153/145 145/168/145 132/155/145
f 133/156/146 145/168/146 146/169/146
f 126/158/147 1/170/147 139/171/147
f 133/156/148 147/172/148 134/159/148
f 127/160/149 139/171/149 140/173/149
f 134/159/150 148/174/150 135/161/150
f 127/160/151 141/175/151 128/162/151
f 135/161/152 149/176/152 136/163/152
f 129/150/153 141/175/153 142/177/153
f 137/149/154 149/176/154 150/178/154
f 150/178/155 164/179/155 151/165/155
f 143/164/156 157/180/156 144/166/156
f 8/181/157 151/165/157 164/179/157
f 144/166/158 158/182/158 145/168/158
f 146/169/159 158/182/159 159/183/159
f 139/171/160 1/184/160 152/185/160
f 147/172/161 159/183/161 160/186/161
f 140/173/162 152/185/162 153/187/162
f 147/172/163 161/188/163 148/174/163
f 140/173/164 154/189/164 141/175/164
f 148/174/165 162/190/165 149/176/165
f 142/177/166 154/189/166 155/191/166
f 150/178/167 162/190/167 163/192/167
f 142/177/168 156/193/168 143/164/168
f 8/194/169 164/179/169 177/195/169
f 157/180/170 171/196/170 158/182/170
f 159/183/171 171/196/171 172/197/171
f 152/185/172 1/198/172 165/199/172
f 159/183/173 173/200/173 160/186/173
f 153/187/174 165/199/174 166/201/174
f 160/186/175 174/202/175 161/188/175
f 153/187/176 167/203/176 154/189/176
f 161/188/177 175/204/177 162/190/177
f 155/191/178 167/203/178 168/205/178
f 163/192/179 175/204/179 176/206/179
f 156/193/180 168/205/180 169/207/180
f 163/192/181 177/195/181 164/179/181
f 157/180/182 169/207/182 170/208/182
f 170/208/183 184/209/183 171/196/183
f 172/197/184 184/209/184 185/210/184
f 165/199/185 1/211/185 178/212/185
f 172/197/186 186/213/186 173/200/186
f 166/201/187 178/212/187 179/214/187
f 173/200/188 187/215/188 174/202/188
f 166/201/189 180/216/189 167/203/189
f 174/202/190 188/217/190 175/204/190
f 168/205/191 180/216/191 181/218/191
f 176/206/192 188/217/192 189/219/192
f 168/205/193 182/220/193 169/207/193
f 176/206/194 190/221/194 177/195/194
f 170/208/195 182/220/195 183/222/195
f 8/223/196 177/195/196 190/221/196
f 185/210/197 197/224/197 198/225/197
f 178/212/198 1/226/198 191/227/198
f 185/210/199 199/228/199 186/213/199
f 178/212/200 192/229/200 179/214/200
f 186/213/201 200/230/201 187/215/201
f 179/214/202 193/231/202 180/216/202
f 187/215/203 201/232/203 188/217/203
f 181/218/204 193/231/204 194/233/204
f 189/219/205 201/232/205 202/234/205
f 182/220/206 194/233/206 195/235/206
f 189/219/207 203/236/207 190/221/207
f 183/222/208 195/235/208 196/237/208
f 8/238/209 190/221/209 203/236/209
f 183/222/210 197/224/210 184/209/210
f 198/225/211 210/239/211 211/240/211
f 191/227/212 1/241/212 204/242/212
f 198/225/213 212/243/213 199/228/213
f 191/227/214 205/244/214 192/229/214
f 199/228/215 213/245/215 200/230/215
f 192/229/216 206/246/216 193/231/216
f 200/230/217 214/247/217 201/232/217
f 194/233/218 206/246/218 207/248/218
f 202/234/219 214/247/219 215/249/219
f 194/233/220 208/250/220 195/235/220
f 202/234/221 216/251/221 203/236/221
f 195/235/222 209/252/222 196/237/222
f 8/253/223 203/236/223 216/251/223
f 196/237/224 210/239/224 197/224/224
f 211/240/225 225/254/225 212/243/225
f 204/242/226 218/255/226 205/244/226
f 212/243/227 226/256/227 213/245/227
f 205/244/228 219/257/228 206/246/228
f 213/245/229 227/258/229 214/247/229
f 207/248/230 219/257/230 220/259/230
f 215/249/231 227/258/231 228/260/231
f 208/250/232 220/259/232 221/261/232
f 215/249/233 229/262/233 216/251/233
f 208/250/234 222/263/234 209/252/234
f 8/264/235 216/251/235 229/262/235
f 209/252/236 223/265/236 210/239/236
f 211/240/237 223/265/237 224/266/237
f 204/242/238 1/267/238 217/268/238
f 218/255/239 230/269/239 231/270/239
f 225/254/240 239/271/240 226/256/240
f 218/255/241 232/272/241 219/257/241
f 226/256/242 240/273/242 227/258/242
f 220/259/243 232/272/243 233/274/243
f 228/260/244 240/273/244 241/275/244
f 220/259/245 234/276/245 221/261/245
f 229/262/246 241/275/246 242/277/246
f 221/261/247 235/278/247 222/263/247
f 8/279/248 229/262/248 242/277/248
f 222/263/249 236/280/249 223/265/249
f 224/266/250 236/280/250 237/281/250
f 217/268/251 1/282/251 230/269/251
f 224/266/252 238/283/252 225/254/252
f 238/284/253 252/285/253 239/286/253
f 231/287/254 245/288/254 232/289/254
f 239/286/255 253/290/255 240/291/255
f 233/292/256 245/288/256 246/293/256
f 241/294/257 253/290/257 254/295/257
f 234/296/258 246/293/258 247/297/258
f 241/294/259 255/298/259 242/299/259
f 234/296/260 248/300/260 235/301/260
f 8/302/261 242/299/261 255/298/261
f 235/301/262 249/303/262 236/304/262
f 237/305/263 249/303/263 250/306/263
f 230/307/264 1/308/264 243/309/264
f 237/305/265 251/310/265 238/284/265
f 230/307/266 244/311/266 231/287/266
f 244/311/267 258/312/267 245/288/267
f 252/285/268 266/313/268 253/290/268
f 246/293/269 258/312/269 259/314/269
f 254/295/270 266/313/270 267/315/270
f 247/297/271 259/314/271 260/316/271
f 254/295/272 268/317/272 255/298/272
f 247/297/273 261/318/273 248/300/273
f 8/319/274 255/298/274 268/317/274
f 248/300/275 262/320/275 249/303/275
f 250/306/276 262/320/276 263/321/276
f 243/309/277 1/322/277 256/323/277
f 250/306/278 264/324/278 251/310/278
f 244/311/279 256/323/279 257/325/279
f 251/310/280 265/326/280 252/285/280
f 265/326/281 279/327/281 266/313/281
f 259/314/282 271/328/282 272/329/282
f 267/315/283 279/327/283 280/330/283
f 260/316/284 272/329/284 273/331/284
f 267/315/285 281/332/285 268/317/285
f 260/316/286 274/333/286 261/318/286
f 8/334/287 268/317/287 281/332/287
f 261/318/288 275/335/288 262/320/288
f 263/321/289 275/335/289 276/336/289
f 256/323/290 1/337/290 269/338/290
f 264/324/291 276/336/291 277/339/291
f 257/325/292 269/338/292 270/340/292
f 264/324/293 278/341/293 265/326/293
f 257/325/294 271/328/294 258/312/294
f 280/330/295 292/342/295 293/343/295
f 273/331/296 285/344/296 286/345/296
f 280/330/297 294/346/297 281/332/297
f 273/331/298 287/347/298 274/333/298
f 8/348/299 281/332/299 294/346/299
f 274/333/300 288/349/300 275/335/300
f 276/336/301 288/349/301 289/350/301
f 269/338/302 1/351/302 282/352/302
f 276/336/303 290/353/303 277/339/303
f 269/338/304 283/354/304 270/340/304
f 277/339/305 291/355/305 278/341/305
f 270/340/306 284/356/306 271/328/306
f 278/341/307 292/342/307 279/327/307
f 272/329/308 284/356/308 285/344/308
f 286/345/309 298/357/309 299/358/309
f 293/343/310 307/359/310 294/346/310
f 286/345/311 300/360/311 287/347/311
f 8/361/312 294/346/312 307/359/312
f 287/347/313 301/362/313 288/349/313
f 289/350/314 301/362/314 302/363/314
f 282/352/315 1/364/315 295/365/315
f 289/350/316 303/366/316 290/353/316
f 283/354/317 295/365/317 296/367/317
f 290/353/318 304/368/318 291/355/318
f 283/354/319 297/369/319 284/356/319
f 291/355/320 305/370/320 292/342/320
f 285/344/321 297/369/321 298/357/321
f 293/343/322 305/370/322 306/371/322
f 306/371/323 314/2/323 307/359/323
f 300/360/324 3/27/324 4/4/324
f 8/372/325 307/359/325 314/2/325
f 300/360/326 311/6/326 301/362/326
f 302/363/327 311/6/327 5/8/327
f 295/365/328 1/373/328 308/9/328
f 302/363/329 6/13/329 303/366/329
f 295/365/330 309/14/330 296/367/330
f 303/366/331 7/17/331 304/368/331
f 296/367/332 310/18/332 297/369/332
f 304/368/333 312/21/333 305/370/333
f 298/357/334 310/18/334 2/23/334
f 306/371/335 312/21/335 313/25/335
f 299/358/336 2/23/336 3/27/336
f 4/4/2 14/28/2 15/5/2
f 311/6/3 15/5/3 16/7/3
f 5/8/5 16/7/5 17/12/5
f 309/14/6 308/9/6 9/11/6
f 6/13/7 17/12/7 18/16/7
f 310/18/8 309/14/8 10/15/8
f 7/17/9 18/16/9 19/20/9
f 310/18/10 11/19/10 12/22/10
f 312/21/11 19/20/11 20/24/11
f 2/23/12 12/22/12 13/26/12
f 313/25/13 20/24/13 21/3/13
f 3/27/14 13/26/14 14/28/14
f 15/5/15 14/28/15 27/29/15
f 16/7/16 15/5/16 28/30/16
f 17/12/18 16/7/18 29/31/18
f 10/15/19 9/11/19 22/33/19
f 17/12/20 30/34/20 31/36/20
f 10/15/21 23/35/21 24/37/21
f 18/16/22 31/36/22 32/38/22
f 11/19/23 24/37/23 25/39/23
f 20/24/24 19/20/24 32/38/24
f 12/22/25 25/39/25 26/41/25
f 20/24/26 33/40/26 34/42/26
f 13/26/27 26/41/27 27/29/27
f 29/31/29 28/30/29 41/44/29
f 29/31/31 42/45/31 43/48/31
f 22/33/32 35/47/32 36/49/32
f 30/34/33 43/48/33 44/50/33
f 23/35/34 36/49/34 37/51/34
f 31/36/35 44/50/35 45/52/35
f 24/37/36 37/51/36 38/53/36
f 32/38/37 45/52/37 46/54/37
f 25/39/38 38/53/38 39/55/38
f 33/40/39 46/54/39 47/56/39
f 27/29/40 26/41/40 39/55/40
f 27/29/42 40/57/42 41/44/42
f 42/45/44 55/73/44 56/61/44
f 35/47/45 48/60/45 49/62/45
f 43/48/46 56/61/46 57/63/46
f 36/49/47 49/62/47 50/64/47
f 44/50/48 57/63/48 58/65/48
f 38/53/49 37/51/49 50/64/49
f 45/52/50 58/65/50 59/67/50
f 38/53/51 51/66/51 52/68/51
f 46/54/52 59/67/52 60/69/52
f 40/57/53 39/55/53 52/68/53
f 40/57/55 53/70/55 54/72/55
f 42/45/56 41/44/56 54/72/56
f 55/73/57 68/86/57 69/74/57
f 48/60/58 61/88/58 62/75/58
f 56/61/59 69/74/59 70/76/59
f 49/62/60 62/75/60 63/77/60
f 57/63/61 70/76/61 71/78/61
f 51/66/62 50/64/62 63/77/62
f 59/67/63 58/65/63 71/78/63
f 52/68/64 51/66/64 64/79/64
f 59/67/65 72/80/65 73/82/65
f 53/70/66 52/68/66 65/81/66
f 53/70/68 66/83/68 67/85/68
f 55/73/69 54/72/69 67/85/69
f 61/88/71 74/102/71 75/89/71
f 69/74/72 82/103/72 83/90/72
f 62/75/73 75/89/73 76/91/73
f 70/76/74 83/90/74 84/92/74
f 64/79/75 63/77/75 76/91/75
f 72/80/76 71/78/76 84/92/76
f 65/81/77 64/79/77 77/93/77
f 72/80/78 85/94/78 86/96/78
f 66/83/79 65/81/79 78/95/79
f 66/83/81 79/97/81 80/99/81
f 68/86/82 67/85/82 80/99/82
f 68/86/84 81/100/84 82/103/84
f 82/103/85 95/117/85 96/104/85
f 75/89/86 88/118/86 89/105/86
f 83/90/87 96/104/87 97/106/87
f 77/93/88 76/91/88 89/105/88
f 85/94/89 84/92/89 97/106/89
f 78/95/90 77/93/90 90/107/90
f 85/94/91 98/108/91 99/110/91
f 79/97/92 78/95/92 91/109/92
f 79/97/94 92/111/94 93/113/94
f 81/100/95 80/99/95 93/113/95
f 81/100/97 94/114/97 95/117/97
f 75/89/98 74/102/98 87/116/98
f 96/104/99 109/133/99 110/119/99
f 90/107/100 89/105/100 102/120/100
f 98/108/101 97/106/101 110/119/101
f 90/107/102 103/121/102 104/123/102
f 98/108/103 111/122/103 112/124/103
f 92/111/104 91/109/104 104/123/104
f 92/111/106 105/125/106 106/127/106
f 94/114/107 93/113/107 106/127/107
f 94/114/109 107/128/109 108/131/109
f 87/116/110 100/130/110 101/132/110
f 95/117/111 108/131/111 109/133/111
f 88/118/112 101/132/112 102/120/112
f 103/121/113 102/120/113 115/134/113
f 111/122/114 110/119/114 123/136/114
f 104/123/115 103/121/115 116/135/115
f 111/122/116 124/137/116 125/139/116
f 105/125/117 104/123/117 117/138/117
f 105/125/119 118/140/119 119/142/119
f 107/128/120 106/127/120 119/142/120
f 107/128/122 120/143/122 121/146/122
f 100/130/123 113/145/123 114/147/123
f 109/133/124 108/131/124 121/146/124
f 101/132/125 114/147/125 115/134/125
f 109/133/126 122/148/126 123/136/126
f 123/136/127 136/163/127 137/149/127
f 117/138/128 116/135/128 129/150/128
f 124/137/129 137/149/129 138/152/129
f 118/140/130 117/138/130 130/151/130
f 118/140/132 131/153/132 132/155/132
f 120/143/133 119/142/133 132/155/133
f 120/143/135 133/156/135 134/159/135
f 113/145/136 126/158/136 127/160/136
f 121/146/137 134/159/137 135/161/137
f 114/147/138 127/160/138 128/162/138
f 122/148/139 135/161/139 136/163/139
f 116/135/140 115/134/140 128/162/140
f 129/150/141 142/177/141 143/164/141
f 137/149/142 150/178/142 151/165/142
f 131/153/143 130/151/143 143/164/143
f 131/153/145 144/166/145 145/168/145
f 133/156/146 132/155/146 145/168/146
f 133/156/148 146/169/148 147/172/148
f 127/160/149 126/158/149 139/171/149
f 134/159/150 147/172/150 148/174/150
f 127/160/151 140/173/151 141/175/151
f 135/161/152 148/174/152 149/176/152
f 129/150/153 128/162/153 141/175/153
f 137/149/154 136/163/154 149/176/154
f 150/178/155 163/192/155 164/179/155
f 143/164/156 156/193/156 157/180/156
f 144/166/158 157/180/158 158/182/158
f 146/169/159 145/168/159 158/182/159
f 147/172/161 146/169/161 159/183/161
f 140/173/162 139/171/162 152/185/162
f 147/172/163 160/186/163 161/188/163
f 140/173/164 153/187/164 154/189/164
f 148/174/165 161/188/165 162/190/165
f 142/177/166 141/175/166 154/189/166
f 150/178/167 149/176/167 162/190/167
f 142/177/168 155/191/168 156/193/168
f 157/180/170 170/208/170 171/196/170
f 159/183/171 158/182/171 171/196/171
f 159/183/173 172/197/173 173/200/173
f 153/187/174 152/185/174 165/199/174
f 160/186/175 173/200/175 174/202/175
f 153/187/176 166/201/176 167/203/176
f 161/188/177 174/202/177 175/204/177
f 155/191/178 154/189/178 167/203/178
f 163/192/179 162/190/179 175/204/179
f 156/193/180 155/191/180 168/205/180
f 163/192/181 176/206/181 177/195/181
f 157/180/182 156/193/182 169/207/182
f 170/208/183 183/222/183 184/209/183
f 172/197/184 171/196/184 184/209/184
f 172/197/186 185/210/186 186/213/186
f 166/201/187 165/199/187 178/212/187
f 173/200/188 186/213/188 187/215/188
f 166/201/189 179/214/189 180/216/189
f 174/202/190 187/215/190 188/217/190
f 168/205/191 167/203/191 180/216/191
f 176/206/192 175/204/192 188/217/192
f 168/205/193 181/218/193 182/220/193
f 176/206/194 189/219/194 190/221/194
f 170/208/195 169/207/195 182/220/195
f 185/210/197 184/209/197 197/224/197
f 185/210/199 198/225/199 199/228/199
f 178/212/200 191/227/200 192/229/200
f 186/213/201 199/228/201 200/230/201
f 179/214/202 192/229/202 193/231/202
f 187/215/203 200/230/203 201/232/203
f 181/218/204 180/216/204 193/231/204
f 189/219/205 188/217/205 201/232/205
f 182/220/206 181/218/206 194/233/206
f 189/219/207 202/234/207 203/236/207
f 183/222/208 182/220/208 195/235/208
f 183/222/210 196/237/210 197/224/210
f 198/225/211 197/224/211 210/239/211
f 198/225/213 211/240/213 212/243/213
f 191/227/214 204/242/214 205/244/214
f 199/228/215 212/243/215 213/245/215
f 192/229/216 205/244/216 206/246/216
f 200/230/217 213/245/217 214/247/217
f 194/233/218 193/231/218 206/246/218
f 202/234/219 201/232/219 214/247/219
f 194/233/220 207/248/220 208/250/220
f 202/234/221 215/249/221 216/251/221
f 195/235/222 208/250/222 209/252/222
f 196/237/224 209/252/224 210/239/224
f 211/240/225 224/266/225 225/254/225
f 204/242/226 217/268/226 218/255/226
f 212/243/227 225/254/227 226/256/227
f 205/244/228 218/255/228 219/257/228
f 213/245/229 226/256/229 227/258/229
f 207/248/230 206/246/230 219/257/230
f 215/249/231 214/247/231 227/258/231
f 208/250/232 207/248/232 220/259/232
f 215/249/233 228/260/233 229/262/233
f 208/250/234 221/261/234 222/263/234
f 209/252/236 222/263/236 223/265/236
f 211/240/237 210/239/237 223/265/237
f 218/255/239 217/268/239 230/269/239
f 225/254/240 238/283/240 239/271/240
f 218/255/241 231/270/241 232/272/241
f 226/256/242 239/271/242 240/273/242
f 220/259/243 219/257/243 232/272/243
f 228/260/244 227/258/244 240/273/244
f 220/259/245 233/274/245 234/276/245
f 229/262/246 228/260/246 241/275/246
f 221/261/247 234/276/247 235/278/247
f 222/263/249 235/278/249 236/280/249
f 224/266/250 223/265/250 236/280/250
f 224/266/252 237/281/252 238/283/252
f 238/284/253 251/310/253 252/285/253
f 231/287/254 244/311/254 245/288/254
f 239/286/255 252/285/255 253/290/255
f 233/292/256 232/289/256 245/288/256
f 241/294/257 240/291/257 253/290/257
f 234/296/258 233/292/258 246/293/258
f 241/294/259 254/295/259 255/298/259
f 234/296/260 247/297/260 248/300/260
f 235/301/262 248/300/262 249/303/262
f 237/305/263 236/304/263 249/303/263
f 237/305/265 250/306/265 251/310/265
f 230/307/266 243/309/266 244/311/266
f 244/311/267 257/325/267 258/312/267
f 252/285/268 265/326/268 266/313/268
f 246/293/269 245/288/269 258/312/269
f 254/295/270 253/290/270 266/313/270
f 247/297/271 246/293/271 259/314/271
f 254/295/272 267/315/272 268/317/272
f 247/297/273 260/316/273 261/318/273
f 248/300/275 261/318/275 262/320/275
f 250/306/276 249/303/276 262/320/276
f 250/306/278 263/321/278 264/324/278
f 244/311/279 243/309/279 256/323/279
f 251/310/280 264/324/280 265/326/280
f 265/326/281 278/341/281 279/327/281
f 259/314/282 258/312/282 271/328/282
f 267/315/283 266/313/283 279/327/283
f 260/316/284 259/314/284 272/329/284
f 267/315/285 280/330/285 281/332/285
f 260/316/286 273/331/286 274/333/286
f 261/318/288 274/333/288 275/335/288
f 263/321/289 262/320/289 275/335/289
f 264/324/291 263/321/291 276/336/291
f 257/325/292 256/323/292 269/338/292
f 264/324/293 277/339/293 278/341/293
f 257/325/294 270/340/294 271/328/294
f 280/330/295 279/327/295 292/342/295
f 273/331/296 272/329/296 285/344/296
f 280/330/297 293/343/297 294/346/297
f 273/331/298 286/345/298 287/347/298
f 274/333/300 287/347/300 288/349/300
f 276/336/301 275/335/301 288/349/301
f 276/336/303 289/350/303 290/353/303
f 269/338/304 282/352/304 283/354/304
f 277/339/305 290/353/305 291/355/305
f 270/340/306 283/354/306 284/356/306
f 278/341/307 291/355/307 292/342/307
f 272/329/308 271/328/308 284/356/308
f 286/345/309 285/344/309 298/357/309
f 293/343/310 306/371/310 307/359/310
f 286/345/311 299/358/311 300/360/311
f 287/347/313 300/360/313 301/362/313
f 289/350/314 288/349/314 301/362/314
f 289/350/316 302/363/316 303/366/316
f 283/354/317 282/352/317 295/365/317
f 290/353/318 303/366/318 304/368/318
f 283/354/319 296/367/319 297/369/319
f 291/355/320 304/368/320 305/370/320
f 285/344/321 284/356/321 297/369/321
f 293/343/322 292/342/322 305/370/322
f 306/371/323 313/25/323 314/2/323
f 300/360/324 299/358/324 3/27/324
f 300/360/326 4/4/326 311/6/326
f 302/363/327 301/362/327 311/6/327
f 302/363/329 5/8/329 6/13/329
f 295/365/330 308/9/330 309/14/330
f 303/366/331 6/13/331 7/17/331
f 296/367/332 309/14/332 310/18/332
f 304/368/333 7/17/333 312/21/333
f 298/357/334 297/369/334 310/18/334
f 306/371/335 305/370/335 312/21/335
f 299/358/336 298/357/336 2/23/336
