# Blender 5.0.1
# www.blender.org
mtllib Enemy.mtl
o Chicken_Cube.054
v -0.104401 -0.294288 0.043189
v -0.080687 -0.278091 0.048894
v -0.083097 -0.291988 0.023237
v -0.096092 -0.281422 0.047253
v -0.093358 -0.281113 0.035015
v -0.081027 -0.279797 0.033144
v -0.097794 -0.291250 0.029110
v -0.048705 -0.303585 0.042996
v -0.068241 -0.294468 0.023185
v -0.065833 -0.280570 0.048843
v -0.054061 -0.298551 0.028958
v -0.054924 -0.287529 0.034882
v -0.066173 -0.282276 0.033092
v -0.052358 -0.288723 0.047100
v -0.105265 -0.299866 0.062616
v -0.085728 -0.308983 0.082427
v -0.081551 -0.283668 0.068322
v -0.099908 -0.304901 0.076654
v -0.095243 -0.293283 0.077400
v -0.083141 -0.293447 0.080688
v -0.096955 -0.287001 0.066680
v -0.049569 -0.309163 0.062424
v -0.066697 -0.286148 0.068270
v -0.070873 -0.311463 0.082375
v -0.053222 -0.294301 0.066529
v -0.056809 -0.299698 0.077267
v -0.068286 -0.295927 0.080636
v -0.056175 -0.312201 0.076503
v -0.140634 -0.510467 0.000576
v -0.121098 -0.519584 0.020386
v -0.114512 -0.480371 0.031938
v -0.134049 -0.471254 0.012128
v -0.135278 -0.515502 0.014613
v -0.131985 -0.495895 0.020390
v -0.117805 -0.499977 0.026162
v -0.128692 -0.476289 0.026165
v -0.137342 -0.490861 0.006352
v -0.139770 -0.504889 -0.018851
v -0.133185 -0.465676 -0.007300
v -0.111881 -0.463376 -0.027252
v -0.118466 -0.502589 -0.038804
v -0.136477 -0.485282 -0.013076
v -0.129871 -0.482244 -0.027155
v -0.126578 -0.462638 -0.021379
v -0.115173 -0.482983 -0.033027
v -0.133164 -0.501851 -0.032930
v -0.084939 -0.519764 0.000384
v -0.078353 -0.480551 0.011935
v -0.099657 -0.482851 0.031887
v -0.106243 -0.522064 0.020335
v -0.081646 -0.500158 0.006159
v -0.088252 -0.503196 0.020238
v -0.084959 -0.483589 0.026014
v -0.102950 -0.502457 0.026111
v -0.091545 -0.522802 0.014462
v -0.084075 -0.514186 -0.019045
v -0.103611 -0.505069 -0.038855
v -0.097025 -0.465856 -0.027304
v -0.077489 -0.474973 -0.007493
v -0.089431 -0.509151 -0.033082
v -0.086138 -0.489545 -0.027306
v -0.100318 -0.485463 -0.033079
v -0.082845 -0.469939 -0.021530
v -0.080782 -0.494579 -0.013269
v -0.140634 -0.510467 0.000576
v -0.123506 -0.533482 -0.005270
v -0.121098 -0.519584 0.020386
v -0.136982 -0.525329 -0.003529
v -0.134415 -0.526523 0.008690
v -0.123167 -0.531776 0.010479
v -0.135278 -0.515502 0.014613
v -0.139770 -0.504889 -0.018851
v -0.118466 -0.502589 -0.038804
v -0.122643 -0.527904 -0.024698
v -0.133164 -0.501851 -0.032930
v -0.132531 -0.514354 -0.033694
v -0.121053 -0.518126 -0.037065
v -0.136118 -0.519751 -0.022956
v -0.084939 -0.519764 0.000384
v -0.106243 -0.522064 0.020335
v -0.108652 -0.535962 -0.005322
v -0.091545 -0.522802 0.014462
v -0.095981 -0.532939 0.008557
v -0.108313 -0.534256 0.010428
v -0.093248 -0.532630 -0.003680
v -0.084075 -0.514186 -0.019045
v -0.107789 -0.530384 -0.024750
v -0.103611 -0.505069 -0.038855
v -0.092384 -0.527051 -0.023108
v -0.094097 -0.520769 -0.033828
v -0.106198 -0.520605 -0.037116
v -0.089431 -0.509151 -0.033082
v -0.165026 -0.531304 0.036977
v -0.188739 -0.547502 0.031272
v -0.169202 -0.556619 0.051082
v -0.180429 -0.534636 0.035336
v -0.178717 -0.540918 0.046055
v -0.183383 -0.552537 0.045310
v -0.166615 -0.541083 0.049343
v -0.160597 -0.502708 -0.062620
v -0.158829 -0.491292 -0.102382
v -0.182543 -0.507489 -0.108087
v -0.184311 -0.518906 -0.068325
v -0.159713 -0.496999 -0.082501
v -0.175117 -0.500332 -0.084142
v -0.174233 -0.494624 -0.104023
v -0.183426 -0.513198 -0.088206
v -0.176001 -0.506041 -0.064261
v -0.068393 -0.547435 0.036642
v -0.072569 -0.572750 0.050747
v -0.051265 -0.570449 0.030796
v -0.069982 -0.557213 0.049008
v -0.058505 -0.560985 0.045639
v -0.057871 -0.573488 0.044874
v -0.054918 -0.555588 0.034901
v -0.063965 -0.518838 -0.062954
v -0.046837 -0.541854 -0.068801
v -0.045069 -0.530438 -0.108563
v -0.062197 -0.507422 -0.102716
v -0.050489 -0.526992 -0.064696
v -0.049606 -0.521283 -0.084577
v -0.045953 -0.536145 -0.088682
v -0.048721 -0.515575 -0.104458
v -0.063080 -0.513130 -0.082835
v -0.173465 -0.581552 0.022174
v -0.171055 -0.567654 0.047832
v -0.190592 -0.558537 0.028021
v -0.173125 -0.579846 0.037925
v -0.184373 -0.574593 0.036135
v -0.185237 -0.563572 0.042059
v -0.186939 -0.573399 0.023917
v -0.169036 -0.552956 -0.077422
v -0.186164 -0.529941 -0.071576
v -0.184396 -0.518524 -0.111338
v -0.167268 -0.541540 -0.117184
v -0.182511 -0.544804 -0.075680
v -0.181627 -0.539095 -0.095561
v -0.185280 -0.524233 -0.091457
v -0.180743 -0.533387 -0.115443
v -0.168152 -0.547248 -0.097303
v -0.076832 -0.597683 0.021840
v -0.053119 -0.581485 0.027545
v -0.074423 -0.583784 0.047496
v -0.061428 -0.594350 0.023481
v -0.064161 -0.594660 0.035718
v -0.059725 -0.584523 0.041623
v -0.076492 -0.595977 0.037589
v -0.072404 -0.569086 -0.077757
v -0.070636 -0.557670 -0.117519
v -0.046923 -0.541472 -0.111814
v -0.048690 -0.552889 -0.072052
v -0.071519 -0.563379 -0.097638
v -0.056116 -0.560046 -0.095996
v -0.055231 -0.554338 -0.115877
v -0.047806 -0.547181 -0.091933
v -0.056999 -0.565755 -0.076116
v -0.157250 -0.481093 -0.137899
v -0.159658 -0.494992 -0.163556
v -0.180963 -0.497292 -0.143604
v -0.157590 -0.482800 -0.153649
v -0.169921 -0.484117 -0.151777
v -0.174357 -0.494254 -0.157683
v -0.172654 -0.484426 -0.139541
v -0.182817 -0.508327 -0.146854
v -0.161513 -0.506027 -0.166807
v -0.165689 -0.531342 -0.152701
v -0.176210 -0.505289 -0.160933
v -0.175577 -0.517792 -0.161697
v -0.164100 -0.521563 -0.165068
v -0.179164 -0.523189 -0.150960
v -0.060617 -0.497225 -0.138234
v -0.043490 -0.520239 -0.144081
v -0.063027 -0.511123 -0.163890
v -0.047143 -0.505377 -0.139975
v -0.049709 -0.504184 -0.152194
v -0.048845 -0.515205 -0.158117
v -0.060957 -0.498930 -0.153983
v -0.069056 -0.547473 -0.153036
v -0.064880 -0.522158 -0.167141
v -0.045343 -0.531275 -0.147331
v -0.067467 -0.537693 -0.165402
v -0.055364 -0.537858 -0.162114
v -0.050699 -0.526240 -0.161368
v -0.053653 -0.544140 -0.151394
v -0.065308 -0.506903 -0.102706
v -0.089022 -0.523100 -0.108411
v -0.110327 -0.525400 -0.088459
v -0.107918 -0.511502 -0.062802
v -0.067076 -0.518319 -0.062944
v -0.080713 -0.510235 -0.104348
v -0.087153 -0.512418 -0.083701
v -0.095628 -0.526138 -0.094332
v -0.108257 -0.513208 -0.078551
v -0.087497 -0.514910 -0.062872
v -0.066193 -0.512611 -0.082825
v -0.155717 -0.491811 -0.102392
v -0.157485 -0.503227 -0.062630
v -0.116644 -0.510045 -0.062772
v -0.119053 -0.523943 -0.088428
v -0.138589 -0.514826 -0.108239
v -0.156601 -0.497519 -0.082511
v -0.136720 -0.504144 -0.083530
v -0.137064 -0.506636 -0.062701
v -0.116984 -0.511751 -0.078521
v -0.133234 -0.519861 -0.094201
v -0.142242 -0.499964 -0.104134
v -0.125250 -0.563956 0.050930
v -0.121072 -0.538641 0.036825
v -0.161913 -0.531824 0.036966
v -0.166090 -0.557139 0.051072
v -0.122661 -0.548420 0.049191
v -0.143083 -0.545011 0.049262
v -0.141493 -0.535233 0.036896
v -0.163503 -0.541603 0.049333
v -0.145670 -0.560547 0.051000
v -0.116523 -0.565412 0.050899
v -0.075682 -0.572230 0.050758
v -0.071505 -0.546915 0.036653
v -0.112346 -0.540097 0.036795
v -0.096102 -0.568821 0.050829
v -0.093515 -0.553285 0.049090
v -0.073095 -0.556694 0.049020
v -0.091926 -0.543507 0.036723
v -0.113935 -0.549877 0.049160
v -0.073748 -0.557151 -0.117508
v -0.075515 -0.568567 -0.077746
v -0.116356 -0.561750 -0.077604
v -0.112180 -0.536435 -0.091710
v -0.090875 -0.534135 -0.111661
v -0.074632 -0.562859 -0.097627
v -0.094512 -0.556234 -0.096609
v -0.095936 -0.565158 -0.077675
v -0.114767 -0.551971 -0.089971
v -0.097481 -0.537173 -0.097583
v -0.087223 -0.548998 -0.115767
v -0.164156 -0.542059 -0.117195
v -0.140443 -0.525862 -0.111490
v -0.120906 -0.534978 -0.091679
v -0.125083 -0.560293 -0.077575
v -0.165924 -0.553476 -0.077433
v -0.148753 -0.538727 -0.115553
v -0.144080 -0.547960 -0.096437
v -0.135087 -0.530896 -0.097453
v -0.123494 -0.550514 -0.089940
v -0.145504 -0.556884 -0.077503
v -0.165040 -0.547768 -0.097314
v -0.167944 -0.568174 0.047821
v -0.170352 -0.582072 0.022164
v -0.129511 -0.588889 0.022022
v -0.127103 -0.574991 0.047679
v -0.170013 -0.580365 0.037913
v -0.149592 -0.583774 0.037843
v -0.149932 -0.585481 0.022093
v -0.129172 -0.587183 0.037772
v -0.147523 -0.571582 0.047750
v -0.120784 -0.590346 0.021992
v -0.079944 -0.597164 0.021850
v -0.077535 -0.583265 0.047508
v -0.118376 -0.576448 0.047649
v -0.100364 -0.593755 0.021921
v -0.100025 -0.592048 0.037671
v -0.079605 -0.595457 0.037600
v -0.097955 -0.579857 0.047578
v -0.120446 -0.588640 0.037742
v -0.087443 -0.512903 -0.143928
v -0.063730 -0.496705 -0.138222
v -0.066138 -0.510603 -0.163880
v -0.079133 -0.500037 -0.139865
v -0.076401 -0.499727 -0.152102
v -0.064068 -0.498411 -0.153973
v -0.080837 -0.509865 -0.158007
v -0.089296 -0.523938 -0.147179
v -0.067991 -0.521639 -0.167130
v -0.072169 -0.546953 -0.153025
v -0.082690 -0.520900 -0.161257
v -0.082057 -0.533402 -0.162022
v -0.070579 -0.537174 -0.165392
v -0.085643 -0.538800 -0.151283
v -0.138863 -0.515663 -0.147007
v -0.162577 -0.531862 -0.152713
v -0.158400 -0.506547 -0.166817
v -0.147173 -0.528529 -0.151070
v -0.148885 -0.522247 -0.161790
v -0.160987 -0.522083 -0.165078
v -0.144220 -0.510629 -0.161044
v -0.154138 -0.481613 -0.137910
v -0.137010 -0.504628 -0.143756
v -0.156547 -0.495511 -0.163566
v -0.140663 -0.489766 -0.139652
v -0.143230 -0.488573 -0.151869
v -0.142366 -0.499594 -0.157794
v -0.154477 -0.483320 -0.153659
v 0.130974 -0.319418 0.018584
v 0.108795 -0.316380 -0.000288
v 0.115865 -0.342925 0.009844
v 0.123576 -0.315052 0.005269
v 0.124086 -0.327317 0.002694
v 0.112892 -0.331675 -0.000911
v 0.128574 -0.333823 0.012433
v 0.076428 -0.334018 0.018390
v 0.101317 -0.346819 0.009793
v 0.094248 -0.320274 -0.000340
v 0.085744 -0.345287 0.012281
v 0.086446 -0.337392 0.002561
v 0.098343 -0.335569 -0.000963
v 0.080744 -0.326517 0.005117
v 0.126195 -0.301678 0.027055
v 0.101307 -0.288878 0.035653
v 0.104017 -0.298640 0.008184
v 0.116881 -0.290410 0.033165
v 0.113662 -0.288615 0.021176
v 0.101198 -0.288261 0.019820
v 0.118797 -0.297312 0.013740
v 0.071650 -0.316278 0.026862
v 0.089470 -0.302534 0.008132
v 0.086759 -0.292772 0.035602
v 0.075966 -0.308777 0.013589
v 0.076021 -0.298690 0.021043
v 0.086650 -0.292155 0.019768
v 0.074049 -0.301874 0.033012
v 0.149605 -0.391808 0.228999
v 0.124717 -0.379007 0.237597
v 0.120358 -0.362225 0.199996
v 0.145247 -0.375026 0.191398
v 0.140290 -0.380539 0.235109
v 0.138111 -0.372148 0.216308
v 0.122537 -0.370617 0.218797
v 0.135932 -0.363757 0.197507
v 0.147426 -0.383417 0.210199
v 0.154384 -0.409548 0.220528
v 0.150025 -0.392766 0.182927
v 0.134916 -0.416273 0.174186
v 0.139275 -0.433054 0.211788
v 0.152205 -0.401157 0.201727
v 0.149804 -0.415562 0.195577
v 0.147625 -0.407171 0.176775
v 0.137095 -0.424663 0.192988
v 0.151984 -0.423952 0.214377
v 0.095059 -0.406408 0.228806
v 0.090701 -0.389626 0.191205
v 0.105810 -0.366119 0.199945
v 0.110169 -0.382901 0.237546
v 0.092880 -0.398017 0.210006
v 0.095280 -0.383612 0.216156
v 0.093100 -0.375222 0.197356
v 0.107989 -0.374510 0.218745
v 0.097460 -0.392003 0.234957
v 0.099838 -0.424148 0.220334
v 0.124727 -0.436948 0.211736
v 0.120368 -0.420167 0.174135
v 0.095479 -0.407366 0.182734
v 0.109153 -0.435416 0.214226
v 0.106974 -0.427025 0.195425
v 0.122547 -0.428557 0.192936
v 0.104795 -0.418635 0.176624
v 0.097659 -0.415757 0.201534
v 0.149605 -0.391808 0.228999
v 0.131786 -0.405552 0.247729
v 0.124717 -0.379007 0.237597
v 0.145289 -0.399309 0.242273
v 0.139588 -0.388434 0.244829
v 0.127690 -0.390257 0.248353
v 0.140290 -0.380539 0.235109
v 0.154384 -0.409548 0.220528
v 0.139275 -0.433054 0.211788
v 0.136565 -0.423292 0.239257
v 0.151984 -0.423952 0.214377
v 0.150013 -0.427136 0.226348
v 0.139384 -0.433671 0.227621
v 0.150067 -0.417049 0.233801
v 0.095059 -0.406408 0.228806
v 0.110169 -0.382901 0.237546
v 0.117238 -0.409446 0.247678
v 0.097460 -0.392003 0.234957
v 0.101947 -0.398509 0.244696
v 0.113142 -0.394151 0.248301
v 0.102458 -0.410774 0.242121
v 0.099838 -0.424148 0.220334
v 0.122016 -0.427186 0.239206
v 0.124727 -0.436948 0.211736
v 0.107237 -0.428513 0.233650
v 0.112372 -0.437211 0.226214
v 0.124836 -0.437565 0.227570
v 0.109153 -0.435416 0.214226
v 0.161210 -0.355295 0.258769
v 0.183388 -0.358333 0.277641
v 0.158499 -0.345532 0.286239
v 0.175989 -0.353967 0.264327
v 0.170854 -0.345270 0.271762
v 0.174073 -0.347064 0.283750
v 0.158390 -0.344916 0.270407
v 0.185705 -0.446238 0.215340
v 0.195485 -0.482545 0.198003
v 0.217664 -0.485584 0.216874
v 0.207884 -0.449276 0.234212
v 0.190596 -0.464392 0.206672
v 0.205375 -0.463065 0.212229
v 0.210265 -0.481218 0.203559
v 0.212773 -0.467430 0.225543
v 0.200485 -0.444910 0.220898
v 0.066571 -0.380626 0.258435
v 0.063861 -0.370863 0.285904
v 0.048752 -0.394369 0.277165
v 0.063752 -0.370247 0.270071
v 0.053123 -0.376782 0.271345
v 0.051152 -0.379966 0.283315
v 0.053068 -0.386868 0.263891
v 0.091068 -0.471569 0.215006
v 0.073248 -0.485313 0.233736
v 0.083027 -0.521621 0.216398
v 0.100847 -0.507877 0.197668
v 0.077564 -0.477812 0.220463
v 0.082454 -0.495966 0.211793
v 0.078138 -0.503467 0.225067
v 0.087343 -0.514120 0.203124
v 0.095957 -0.489724 0.206337
v 0.166795 -0.376799 0.306952
v 0.159726 -0.350254 0.296821
v 0.184614 -0.363056 0.288222
v 0.162699 -0.361505 0.307576
v 0.174597 -0.359681 0.304052
v 0.175299 -0.351786 0.294332
v 0.180298 -0.370557 0.301496
v 0.191291 -0.467743 0.263524
v 0.209111 -0.453999 0.244794
v 0.218890 -0.490306 0.227455
v 0.201070 -0.504050 0.246185
v 0.204794 -0.461500 0.258067
v 0.209684 -0.479654 0.249398
v 0.214000 -0.472153 0.236124
v 0.214574 -0.497807 0.240729
v 0.196181 -0.485896 0.254854
v 0.072157 -0.402130 0.306618
v 0.049979 -0.399092 0.287746
v 0.065087 -0.375586 0.296486
v 0.057377 -0.403458 0.301060
v 0.056866 -0.391194 0.303635
v 0.052378 -0.384688 0.293896
v 0.068061 -0.386836 0.307241
v 0.096653 -0.493074 0.263189
v 0.106432 -0.529382 0.245851
v 0.084254 -0.526343 0.226979
v 0.074474 -0.490036 0.244317
v 0.101542 -0.511227 0.254520
v 0.086763 -0.512555 0.248964
v 0.091653 -0.530709 0.240294
v 0.079365 -0.508189 0.235648
v 0.081873 -0.494402 0.257632
v 0.204221 -0.514977 0.182516
v 0.211290 -0.541522 0.192647
v 0.226399 -0.518015 0.201387
v 0.208316 -0.530271 0.181893
v 0.219512 -0.525914 0.185498
v 0.223999 -0.532419 0.195236
v 0.219000 -0.513650 0.188072
v 0.227626 -0.522738 0.211968
v 0.212516 -0.546244 0.203229
v 0.209806 -0.536481 0.230698
v 0.225225 -0.537142 0.205818
v 0.223254 -0.540325 0.217788
v 0.212626 -0.546860 0.219062
v 0.223309 -0.530239 0.225242
v 0.109582 -0.540309 0.182181
v 0.091763 -0.554052 0.200911
v 0.116652 -0.566853 0.192313
v 0.096079 -0.546551 0.187637
v 0.101780 -0.557426 0.185081
v 0.101078 -0.565321 0.194801
v 0.113678 -0.555603 0.181557
v 0.115168 -0.561813 0.230364
v 0.117879 -0.571576 0.202894
v 0.092990 -0.558775 0.211492
v 0.117987 -0.572192 0.218727
v 0.105523 -0.571838 0.217372
v 0.102304 -0.570044 0.205383
v 0.100388 -0.563140 0.224807
v 0.103895 -0.507061 0.197679
v 0.126073 -0.510099 0.216550
v 0.141183 -0.486593 0.225290
v 0.134113 -0.460047 0.215158
v 0.094115 -0.470753 0.215017
v 0.118674 -0.505733 0.203235
v 0.119361 -0.484931 0.209503
v 0.128473 -0.495694 0.222701
v 0.138209 -0.475342 0.214535
v 0.114114 -0.465400 0.215088
v 0.099005 -0.488907 0.206348
v 0.192437 -0.483361 0.197992
v 0.182658 -0.447054 0.215330
v 0.142659 -0.457760 0.215188
v 0.149728 -0.484305 0.225321
v 0.174617 -0.497105 0.216722
v 0.187547 -0.465208 0.206661
v 0.167906 -0.471937 0.209674
v 0.162658 -0.452407 0.215260
v 0.146756 -0.473055 0.214565
v 0.165303 -0.485837 0.222831
v 0.178934 -0.489604 0.203448
v 0.115453 -0.357054 0.286087
v 0.118164 -0.366817 0.258617
v 0.158161 -0.356111 0.258759
v 0.155451 -0.346348 0.286228
v 0.115344 -0.356438 0.270253
v 0.135343 -0.351085 0.270325
v 0.138163 -0.361464 0.258688
v 0.155343 -0.345732 0.270395
v 0.135452 -0.351701 0.286158
v 0.106907 -0.359341 0.286056
v 0.066909 -0.370047 0.285915
v 0.069619 -0.379810 0.258446
v 0.109617 -0.369104 0.258587
v 0.086908 -0.364694 0.285986
v 0.086799 -0.364078 0.270153
v 0.066800 -0.369431 0.270082
v 0.089618 -0.374457 0.258516
v 0.106798 -0.358725 0.270223
v 0.109480 -0.528566 0.245862
v 0.099700 -0.492258 0.263199
v 0.139699 -0.481552 0.263341
v 0.142409 -0.491315 0.235872
v 0.127300 -0.514822 0.227132
v 0.104591 -0.510411 0.254530
v 0.124232 -0.503682 0.251517
v 0.119699 -0.486905 0.263271
v 0.142518 -0.491931 0.251705
v 0.129700 -0.500417 0.233282
v 0.122983 -0.522323 0.240405
v 0.198023 -0.504866 0.246175
v 0.175844 -0.501828 0.227303
v 0.150955 -0.489028 0.235902
v 0.148245 -0.479265 0.263372
v 0.188243 -0.468559 0.263513
v 0.183243 -0.506194 0.240618
v 0.172777 -0.490689 0.251689
v 0.166529 -0.490560 0.233413
v 0.151064 -0.489644 0.251735
v 0.168245 -0.473912 0.263442
v 0.193133 -0.486712 0.254844
v 0.156678 -0.351070 0.296810
v 0.163747 -0.377615 0.306941
v 0.123749 -0.388321 0.306800
v 0.116680 -0.361776 0.296668
v 0.159651 -0.362321 0.307564
v 0.139652 -0.367674 0.307494
v 0.143748 -0.382968 0.306871
v 0.119654 -0.373027 0.307424
v 0.136679 -0.356423 0.296739
v 0.115203 -0.390608 0.306770
v 0.075205 -0.401314 0.306628
v 0.068136 -0.374770 0.296497
v 0.108133 -0.364064 0.296638
v 0.095204 -0.395961 0.306699
v 0.091108 -0.380667 0.307323
v 0.071109 -0.386020 0.307251
v 0.088135 -0.369417 0.296567
v 0.111107 -0.375314 0.307393
v 0.134809 -0.542531 0.201063
v 0.112630 -0.539493 0.182192
v 0.119699 -0.566037 0.192323
v 0.127410 -0.538165 0.187748
v 0.127921 -0.550429 0.185173
v 0.116726 -0.554787 0.181569
v 0.132408 -0.556935 0.194912
v 0.136036 -0.547253 0.211644
v 0.120926 -0.570760 0.202904
v 0.118216 -0.560997 0.230374
v 0.133635 -0.561657 0.205494
v 0.131664 -0.564841 0.217464
v 0.121035 -0.571376 0.218738
v 0.131719 -0.554754 0.224918
v 0.184580 -0.534260 0.211816
v 0.206759 -0.537297 0.230688
v 0.209468 -0.547060 0.203218
v 0.191978 -0.538625 0.225131
v 0.197114 -0.547322 0.217695
v 0.209577 -0.547677 0.219051
v 0.193895 -0.545528 0.205707
v 0.201172 -0.515793 0.182505
v 0.183353 -0.529537 0.201235
v 0.208242 -0.542338 0.192636
v 0.187670 -0.522035 0.187961
v 0.193370 -0.532911 0.185405
v 0.192668 -0.540806 0.195126
v 0.205269 -0.531087 0.181881
v -0.188131 0.117722 -0.038981
v -0.189824 0.150774 -0.011758
v -0.220107 0.146120 -0.041719
v -0.188614 0.128622 -0.018516
v -0.206308 0.131158 -0.022696
v -0.211225 0.148701 -0.020452
v -0.210028 0.125330 -0.039701
v -0.188216 0.109541 -0.122835
v -0.220193 0.137939 -0.125572
v -0.189970 0.136709 -0.155929
v -0.210112 0.117149 -0.123555
v -0.206429 0.119580 -0.141374
v -0.211353 0.136360 -0.146955
v -0.188742 0.116280 -0.145020
v -0.196989 0.272451 -0.054067
v -0.225518 0.240628 -0.050933
v -0.195234 0.245283 -0.020973
v -0.217876 0.262421 -0.053067
v -0.213709 0.260435 -0.035300
v -0.216635 0.243210 -0.029666
v -0.196462 0.265712 -0.031882
v -0.197073 0.264270 -0.137921
v -0.195380 0.231218 -0.165143
v -0.225603 0.232447 -0.134787
v -0.196590 0.253371 -0.158386
v -0.213829 0.248857 -0.153978
v -0.216763 0.230869 -0.156171
v -0.217961 0.254241 -0.136921
v -0.188216 0.109541 -0.122835
v -0.189970 0.136709 -0.155929
v -0.159687 0.141364 -0.125968
v -0.188742 0.116280 -0.145020
v -0.171495 0.121558 -0.141602
v -0.168569 0.138782 -0.147235
v -0.167329 0.119572 -0.123834
v -0.188131 0.117722 -0.038981
v -0.159602 0.149544 -0.042115
v -0.189824 0.150774 -0.011758
v -0.167244 0.127752 -0.039981
v -0.171376 0.133135 -0.022924
v -0.168441 0.151123 -0.020732
v -0.188614 0.128622 -0.018516
v -0.197073 0.264270 -0.137921
v -0.165097 0.235873 -0.135183
v -0.195380 0.231218 -0.165143
v -0.175177 0.256662 -0.137201
v -0.178896 0.250834 -0.154206
v -0.173980 0.233291 -0.156450
v -0.196590 0.253371 -0.158386
v -0.196989 0.272451 -0.054067
v -0.195234 0.245283 -0.020973
v -0.165012 0.244054 -0.051329
v -0.196462 0.265712 -0.031882
v -0.178776 0.262412 -0.035528
v -0.173851 0.245633 -0.029946
v -0.175092 0.264843 -0.053347
v 0.156079 0.137208 -0.041231
v 0.154385 0.170260 -0.014009
v 0.184607 0.169030 -0.044365
v 0.155595 0.148107 -0.020766
v 0.172834 0.152621 -0.025174
v 0.175768 0.170609 -0.022982
v 0.176965 0.147237 -0.042231
v 0.155993 0.129027 -0.125085
v 0.184522 0.160850 -0.128219
v 0.154238 0.156195 -0.158179
v 0.176880 0.139057 -0.126085
v 0.172713 0.141043 -0.143852
v 0.175640 0.158268 -0.149485
v 0.155467 0.135765 -0.147271
v 0.147220 0.291936 -0.056317
v 0.179197 0.263539 -0.053580
v 0.148974 0.264768 -0.023223
v 0.169117 0.284329 -0.055597
v 0.165433 0.281898 -0.037778
v 0.170357 0.265118 -0.032196
v 0.147747 0.285198 -0.034132
v 0.147135 0.283756 -0.140171
v 0.148828 0.250704 -0.167393
v 0.179112 0.255358 -0.137433
v 0.147618 0.272856 -0.160636
v 0.165312 0.270320 -0.156456
v 0.170229 0.252776 -0.158700
v 0.169032 0.276148 -0.139451
v 0.155993 0.129027 -0.125085
v 0.154238 0.156195 -0.158179
v 0.124017 0.157424 -0.127823
v 0.155467 0.135765 -0.147271
v 0.137781 0.139065 -0.143624
v 0.132856 0.155845 -0.149207
v 0.134096 0.136635 -0.125805
v 0.156079 0.137208 -0.041231
v 0.124102 0.165605 -0.043969
v 0.154385 0.170260 -0.014009
v 0.134181 0.144815 -0.041951
v 0.137901 0.150644 -0.024946
v 0.132984 0.168187 -0.022702
v 0.155595 0.148107 -0.020766
v 0.147135 0.283756 -0.140171
v 0.118606 0.251933 -0.137037
v 0.148828 0.250704 -0.167393
v 0.126248 0.273726 -0.139171
v 0.130380 0.268343 -0.156228
v 0.127445 0.250355 -0.158421
v 0.147618 0.272856 -0.160636
v 0.147220 0.291936 -0.056317
v 0.148974 0.264768 -0.023223
v 0.118692 0.260114 -0.053184
v 0.147747 0.285198 -0.034132
v 0.130500 0.279920 -0.037550
v 0.127574 0.262696 -0.031917
v 0.126334 0.281906 -0.055318
v -0.084561 0.365819 -0.025194
v -0.062274 0.346027 -0.023286
v -0.063454 0.369064 -0.004312
v -0.077536 0.351329 -0.023787
v -0.074943 0.355391 -0.011934
v -0.062610 0.353624 -0.009022
v -0.078370 0.367619 -0.010371
v -0.084737 0.348875 -0.198885
v -0.063672 0.348018 -0.220043
v -0.062450 0.329082 -0.196977
v -0.078576 0.347774 -0.213789
v -0.075144 0.336079 -0.209898
v -0.062817 0.333779 -0.212440
v -0.077712 0.334385 -0.197479
v 0.025360 0.372042 -0.025912
v 0.004295 0.372899 -0.004755
v 0.005475 0.349862 -0.023728
v 0.019199 0.373143 -0.011009
v 0.017154 0.360605 -0.012537
v 0.005139 0.357459 -0.009464
v 0.020034 0.356853 -0.024425
v 0.025184 0.355097 -0.199604
v 0.005299 0.332918 -0.197420
v 0.004077 0.351853 -0.220486
v 0.019857 0.339909 -0.198117
v 0.016953 0.341293 -0.210500
v 0.004932 0.337615 -0.212882
v 0.018993 0.353298 -0.214427
v -0.092020 0.496112 -0.037897
v -0.070913 0.499357 -0.017015
v -0.072135 0.518292 -0.040081
v -0.085829 0.497912 -0.023074
v -0.083789 0.509917 -0.027001
v -0.071768 0.513595 -0.024619
v -0.086693 0.511301 -0.039384
v -0.092196 0.479168 -0.211589
v -0.072311 0.501347 -0.213772
v -0.071131 0.478311 -0.232747
v -0.086870 0.494357 -0.213076
v -0.083990 0.490604 -0.224964
v -0.071975 0.493750 -0.228037
v -0.086035 0.478067 -0.226493
v 0.017901 0.502335 -0.038616
v -0.004386 0.522128 -0.040524
v -0.003164 0.503192 -0.017458
v 0.010876 0.516825 -0.040022
v 0.008308 0.515131 -0.027603
v -0.004019 0.517430 -0.025061
v 0.011740 0.503435 -0.023712
v 0.017725 0.485390 -0.212307
v -0.003382 0.482146 -0.233189
v -0.004562 0.505182 -0.214216
v 0.011534 0.483591 -0.227130
v 0.008107 0.495818 -0.225566
v -0.004226 0.497586 -0.228480
v 0.010700 0.499879 -0.213713
v -0.068127 0.071106 -0.260131
v -0.069307 0.094142 -0.241157
v -0.090415 0.090898 -0.262039
v -0.068464 0.078702 -0.245867
v -0.080796 0.080470 -0.248779
v -0.084224 0.092697 -0.247216
v -0.083389 0.076408 -0.260632
v 0.039230 0.077183 -0.260833
v 0.059115 0.099363 -0.263016
v 0.038050 0.100220 -0.241858
v 0.053788 0.084174 -0.261529
v 0.050909 0.087926 -0.249641
v 0.052954 0.100463 -0.248112
v 0.038893 0.084779 -0.246568
v -0.074901 0.189438 -0.271668
v -0.094786 0.167259 -0.269484
v -0.073679 0.170503 -0.248602
v -0.089460 0.182448 -0.270971
v -0.086555 0.181063 -0.258588
v -0.088595 0.169058 -0.254660
v -0.074534 0.184742 -0.256205
v 0.032456 0.195516 -0.272370
v 0.033678 0.176581 -0.249303
v 0.054743 0.175724 -0.270462
v 0.032823 0.190819 -0.256907
v 0.045150 0.188520 -0.259448
v 0.048582 0.176824 -0.255557
v 0.047718 0.190214 -0.271868
v 0.039060 0.060748 -0.429299
v 0.037836 0.079684 -0.452365
v 0.058944 0.082928 -0.431482
v 0.038693 0.065445 -0.444762
v 0.050713 0.069123 -0.442379
v 0.052752 0.081128 -0.446306
v 0.053617 0.067739 -0.429995
v -0.068299 0.054671 -0.428597
v -0.090585 0.074463 -0.430506
v -0.069521 0.073606 -0.451663
v -0.083560 0.059973 -0.429098
v -0.080993 0.061667 -0.441518
v -0.084425 0.073363 -0.445409
v -0.068666 0.059367 -0.444059
v 0.032285 0.179081 -0.440836
v 0.054572 0.159289 -0.438928
v 0.033465 0.156044 -0.459810
v 0.047547 0.173779 -0.440334
v 0.044955 0.169717 -0.452187
v 0.048381 0.157489 -0.453751
v 0.032622 0.171485 -0.455101
v -0.075073 0.173004 -0.440135
v -0.073893 0.149967 -0.459108
v -0.094956 0.150824 -0.437950
v -0.074736 0.165407 -0.454398
v -0.086751 0.162261 -0.451326
v -0.088796 0.149723 -0.452854
v -0.089631 0.166013 -0.439438
v -0.061460 -0.045356 -0.248776
v -0.062640 -0.022320 -0.229801
v -0.083747 -0.025564 -0.250684
v -0.061797 -0.037760 -0.234511
v -0.074129 -0.035992 -0.237425
v -0.077556 -0.023764 -0.235861
v -0.076722 -0.040054 -0.249277
v 0.045897 -0.039279 -0.249477
v 0.065782 -0.017099 -0.251661
v 0.044717 -0.016242 -0.230504
v 0.060455 -0.032288 -0.250174
v 0.057576 -0.028536 -0.238286
v 0.059621 -0.015998 -0.236758
v 0.045560 -0.031683 -0.235213
v -0.068234 0.072977 -0.260313
v -0.088119 0.050796 -0.258129
v -0.067012 0.054041 -0.237247
v -0.082792 0.065986 -0.259617
v -0.079888 0.064602 -0.247232
v -0.081928 0.052597 -0.243306
v -0.067867 0.068280 -0.244850
v 0.039123 0.079054 -0.261015
v 0.040346 0.060118 -0.237948
v 0.061411 0.059262 -0.259106
v 0.039490 0.074357 -0.245552
v 0.051817 0.072057 -0.248094
v 0.055250 0.060362 -0.244203
v 0.054385 0.073751 -0.260513
v 0.045806 -0.048101 -0.339903
v 0.044583 -0.029165 -0.362969
v 0.065690 -0.025920 -0.342087
v 0.045439 -0.043404 -0.355366
v 0.057460 -0.039726 -0.352984
v 0.059499 -0.027721 -0.356910
v 0.060364 -0.041110 -0.340599
v -0.061552 -0.054178 -0.339201
v -0.083839 -0.034385 -0.341110
v -0.062775 -0.035242 -0.362268
v -0.076813 -0.048875 -0.339703
v -0.074246 -0.047181 -0.352122
v -0.077679 -0.035486 -0.356014
v -0.061919 -0.049482 -0.354664
v 0.039031 0.070233 -0.351440
v 0.061318 0.050440 -0.349532
v 0.040212 0.047195 -0.370415
v 0.054293 0.064930 -0.350939
v 0.051701 0.060868 -0.362791
v 0.055128 0.048640 -0.364355
v 0.039369 0.062636 -0.365705
v -0.068326 0.064155 -0.350739
v -0.067146 0.041118 -0.369713
v -0.088210 0.041975 -0.348555
v -0.067990 0.056558 -0.365003
v -0.080004 0.053412 -0.361930
v -0.082049 0.040875 -0.363458
v -0.082885 0.057164 -0.350042
v -0.166384 -0.131750 -0.116097
v -0.151525 -0.144945 -0.114825
v -0.165598 -0.147108 -0.128747
v -0.156210 -0.135285 -0.115763
v -0.157938 -0.137993 -0.123665
v -0.155653 -0.146144 -0.124707
v -0.166159 -0.136815 -0.125607
v -0.157855 -0.280729 -0.101572
v -0.158670 -0.268104 -0.116950
v -0.144599 -0.265942 -0.103029
v -0.158100 -0.277597 -0.111880
v -0.150086 -0.275145 -0.110292
v -0.148726 -0.267142 -0.112910
v -0.148150 -0.276068 -0.102037
v -0.166101 -0.104570 0.162515
v -0.165286 -0.117193 0.177892
v -0.151243 -0.117764 0.163787
v -0.165856 -0.107701 0.172823
v -0.157639 -0.109234 0.171128
v -0.155350 -0.117030 0.173723
v -0.155926 -0.108105 0.162849
v -0.157573 -0.253548 0.177040
v -0.144317 -0.238762 0.175584
v -0.158360 -0.238191 0.189689
v -0.147867 -0.248888 0.176576
v -0.149787 -0.246386 0.184501
v -0.148423 -0.238028 0.185520
v -0.157797 -0.248484 0.186550
v -0.257133 -0.109723 0.163110
v -0.270389 -0.124510 0.164565
v -0.256318 -0.122347 0.178487
v -0.266838 -0.114383 0.163574
v -0.264902 -0.115306 0.171830
v -0.266262 -0.123309 0.174448
v -0.256888 -0.112854 0.173418
v -0.257415 -0.136903 -0.115503
v -0.256628 -0.152261 -0.128152
v -0.270671 -0.151690 -0.114046
v -0.257191 -0.141968 -0.125012
v -0.265201 -0.144065 -0.122963
v -0.266564 -0.152423 -0.123982
v -0.267121 -0.141564 -0.115038
v -0.248604 -0.258702 0.177635
v -0.249391 -0.243343 0.190284
v -0.263462 -0.245506 0.176363
v -0.248829 -0.253637 0.187144
v -0.257051 -0.252458 0.185202
v -0.259335 -0.244307 0.186245
v -0.258778 -0.255167 0.177301
v -0.248887 -0.285882 -0.100977
v -0.263745 -0.272687 -0.102249
v -0.249702 -0.273258 -0.116354
v -0.259061 -0.282346 -0.101312
v -0.257349 -0.281217 -0.109592
v -0.259638 -0.273420 -0.112185
v -0.249132 -0.282750 -0.111286
v 0.161621 -0.113181 -0.118242
v 0.148364 -0.127968 -0.116786
v 0.162407 -0.128540 -0.130891
v 0.151915 -0.117842 -0.117777
v 0.153835 -0.120344 -0.125703
v 0.152471 -0.128702 -0.126722
v 0.161845 -0.118246 -0.127751
v 0.170150 -0.262160 -0.103717
v 0.169334 -0.249536 -0.119094
v 0.155291 -0.248965 -0.104988
v 0.169905 -0.259029 -0.114025
v 0.161687 -0.257496 -0.112330
v 0.159399 -0.249699 -0.114924
v 0.159975 -0.258625 -0.104051
v 0.161903 -0.086001 0.160370
v 0.162718 -0.098625 0.175748
v 0.148647 -0.100787 0.161827
v 0.162148 -0.089133 0.170679
v 0.154135 -0.091584 0.169090
v 0.152774 -0.099588 0.171708
v 0.152198 -0.090662 0.160835
v 0.170432 -0.234979 0.174896
v 0.155574 -0.221785 0.173623
v 0.169645 -0.219622 0.187545
v 0.160258 -0.231444 0.174561
v 0.161986 -0.228737 0.182463
v 0.159701 -0.220585 0.183506
v 0.170208 -0.229915 0.184405
v 0.252935 -0.080847 0.159776
v 0.267793 -0.094043 0.161047
v 0.253750 -0.093472 0.175153
v 0.263109 -0.084383 0.160110
v 0.261398 -0.085512 0.168390
v 0.263686 -0.093309 0.170983
v 0.253179 -0.083979 0.170084
v 0.252652 -0.108028 -0.118837
v 0.253439 -0.123387 -0.131486
v 0.267510 -0.121224 -0.117564
v 0.252877 -0.113092 -0.128346
v 0.261099 -0.114272 -0.126404
v 0.263383 -0.122423 -0.127447
v 0.262827 -0.111564 -0.118502
v 0.261464 -0.229826 0.174301
v 0.260677 -0.214468 0.186950
v 0.274719 -0.215040 0.172844
v 0.261239 -0.224762 0.183810
v 0.269249 -0.222665 0.181761
v 0.270612 -0.214306 0.182780
v 0.271168 -0.225166 0.173836
v 0.261180 -0.257007 -0.104312
v 0.274437 -0.242220 -0.105767
v 0.260366 -0.244383 -0.119689
v 0.270886 -0.252346 -0.104776
v 0.268950 -0.251424 -0.113032
v 0.270310 -0.243420 -0.115650
v 0.260936 -0.253876 -0.114620
v -0.129887 -0.014869 0.244587
v -0.167171 -0.056457 0.248682
v -0.127595 -0.050374 0.287837
v -0.157184 -0.027977 0.245894
v -0.151738 -0.030573 0.269113
v -0.155563 -0.053083 0.276476
v -0.129199 -0.023676 0.273580
v -0.172113 -0.019820 -0.190147
v -0.132618 -0.021427 -0.229818
v -0.128112 -0.100126 -0.222144
v -0.167608 -0.098519 -0.182473
v -0.160562 -0.021884 -0.218091
v -0.158309 -0.061233 -0.214255
v -0.130365 -0.060776 -0.225981
v -0.156057 -0.100582 -0.210418
v -0.169861 -0.059170 -0.186310
v 0.116871 -0.000900 0.242974
v 0.119163 -0.036405 0.286224
v 0.158660 -0.038012 0.246552
v 0.117559 -0.009707 0.271967
v 0.140671 -0.014019 0.267202
v 0.147108 -0.035948 0.274497
v 0.145487 -0.010843 0.243915
v 0.153717 -0.001375 -0.192276
v 0.158221 -0.080074 -0.184604
v 0.118646 -0.086157 -0.223758
v 0.114140 -0.007458 -0.231431
v 0.155969 -0.040725 -0.188440
v 0.144361 -0.044099 -0.216233
v 0.146613 -0.083448 -0.212397
v 0.116393 -0.046807 -0.227594
v 0.142109 -0.004749 -0.220070
v -0.112358 -0.321087 0.274443
v -0.114570 -0.277894 0.310020
v -0.154146 -0.283977 0.270865
v -0.112989 -0.306844 0.301189
v -0.136112 -0.303529 0.295726
v -0.142538 -0.280602 0.298659
v -0.140973 -0.311145 0.273502
v -0.154583 -0.326038 -0.160291
v -0.115087 -0.327645 -0.199962
v -0.112795 -0.363150 -0.156713
v -0.143032 -0.328102 -0.188235
v -0.136596 -0.350031 -0.180940
v -0.113483 -0.354344 -0.185705
v -0.141411 -0.353207 -0.157654
v 0.134401 -0.307119 0.272830
v 0.171684 -0.265531 0.268735
v 0.132188 -0.263924 0.308407
v 0.161697 -0.294011 0.271524
v 0.156298 -0.286976 0.293814
v 0.160133 -0.263469 0.296680
v 0.133770 -0.292875 0.299576
v 0.171246 -0.307594 -0.162421
v 0.133963 -0.349181 -0.158326
v 0.131671 -0.313677 -0.201575
v 0.161260 -0.336073 -0.159632
v 0.155815 -0.333478 -0.182852
v 0.133275 -0.340374 -0.187319
v 0.159638 -0.310968 -0.190215
v -0.171883 0.002404 0.037667
v -0.167377 -0.076294 0.045339
v -0.167297 -0.068604 0.124165
v -0.130014 -0.027017 0.120071
v -0.132306 0.008488 0.076821
v -0.169630 -0.036945 0.041504
v -0.163105 -0.032733 0.080874
v -0.167337 -0.072450 0.084753
v -0.157310 -0.040125 0.121377
v -0.130702 -0.018211 0.091077
v -0.160274 0.005779 0.065460
v 0.153948 0.020850 0.035537
v 0.114452 0.022457 0.075208
v 0.116744 -0.013048 0.118458
v 0.158533 -0.050159 0.122036
v 0.158453 -0.057850 0.043210
v 0.142396 0.022912 0.063482
v 0.149756 -0.015022 0.078829
v 0.116056 -0.004242 0.089464
v 0.145360 -0.022990 0.119398
v 0.158493 -0.054004 0.082622
v 0.156200 -0.018499 0.039373
v -0.112563 -0.340925 0.071101
v -0.112483 -0.333235 0.149927
v -0.154272 -0.296124 0.146348
v -0.154352 -0.303814 0.067522
v -0.112524 -0.337081 0.110513
v -0.141140 -0.327137 0.109572
v -0.141099 -0.323293 0.148985
v -0.154312 -0.299969 0.106935
v -0.141179 -0.330983 0.070160
v 0.134195 -0.326956 0.069488
v 0.171478 -0.285369 0.065393
v 0.171558 -0.277679 0.144218
v 0.134275 -0.319267 0.148314
v 0.161491 -0.313849 0.068181
v 0.161531 -0.310004 0.107594
v 0.171518 -0.281524 0.104805
v 0.161571 -0.306158 0.147007
v 0.134234 -0.323111 0.108900
v -0.189034 0.302012 0.008455
v -0.149458 0.308096 0.047610
v -0.151751 0.343600 0.004361
v -0.177426 0.305387 0.036249
v -0.173602 0.327897 0.028886
v -0.151063 0.334794 0.033353
v -0.179047 0.330493 0.005666
v -0.189265 0.279788 -0.219357
v -0.151982 0.321376 -0.223453
v -0.149769 0.278181 -0.259030
v -0.179278 0.308267 -0.222146
v -0.173879 0.301233 -0.244437
v -0.151350 0.307131 -0.250198
v -0.177713 0.277725 -0.247303
v 0.136796 0.320458 0.006326
v 0.095007 0.357569 0.002748
v 0.097300 0.322065 0.045997
v 0.123623 0.347626 0.003688
v 0.118809 0.344450 0.026975
v 0.095696 0.348762 0.031740
v 0.125244 0.322522 0.034270
v 0.136565 0.298234 -0.221488
v 0.096989 0.292150 -0.260643
v 0.094776 0.335344 -0.225066
v 0.124956 0.294859 -0.249281
v 0.118532 0.317785 -0.246349
v 0.095408 0.321100 -0.251811
v 0.123392 0.325402 -0.224125
vn -0.1071 0.4661 -0.8782
vn 0.2467 0.4070 -0.8795
vn 0.2343 0.2383 -0.9425
vn -0.1506 0.3025 -0.9412
vn -0.3384 -0.9360 -0.0970
vn -0.3231 -0.8371 -0.4415
vn 0.0307 -0.8961 -0.4427
vn 0.0154 -0.9950 -0.0982
vn 0.9903 0.0601 -0.1255
vn 0.9750 -0.0388 0.2190
vn 0.9591 -0.2153 0.1840
vn 0.9757 -0.1077 -0.1907
vn -0.0307 0.8961 0.4427
vn 0.3231 0.8371 0.4415
vn 0.3384 0.9360 0.0970
vn -0.0154 0.9950 0.0982
vn -0.0000 -0.0000 -1.0000
vn 0.1641 -0.1264 0.9783
vn -0.1897 -0.0673 0.9795
vn -0.2343 -0.2383 0.9425
vn 0.1505 -0.3025 0.9412
vn -0.0365 0.9610 0.2743
vn -0.0308 0.8961 0.4427
vn 0.1476 0.8751 0.4610
vn 0.1799 0.9489 0.2592
vn -0.0757 0.1520 -0.9855
vn 0.0895 -0.0743 -0.9932
vn 0.1639 -0.1264 0.9783
vn -0.0108 -0.0857 0.9963
vn -0.0728 -0.4552 0.8874
vn 0.1072 -0.4661 0.8782
vn -0.9722 0.0158 -0.2335
vn -0.9071 0.4037 -0.1193
vn -0.9179 0.3786 -0.1189
vn -0.9750 0.0388 -0.2190
vn 0.9984 0.0233 0.0511
vn 0.9179 -0.3786 0.1189
vn 0.9364 -0.3462 -0.0578
vn -0.0109 -0.0857 0.9963
vn -0.2467 -0.4070 0.8795
vn -0.0729 -0.4552 0.8874
vn 0.0045 -0.9539 -0.3000
vn -0.3484 -0.8967 -0.2730
vn 0.9332 -0.2797 -0.2256
vn 0.1477 0.8750 0.4610
vn 0.1389 0.9831 0.1192
vn 0.1888 0.9748 0.1191
vn -0.9984 -0.0233 -0.0511
vn -0.9364 0.3462 0.0578
vn -0.9332 0.2797 0.2256
vn -0.9903 -0.0601 0.1255
vn 0.0364 -0.9610 -0.2743
vn -0.3161 -0.9004 -0.2989
vn -0.1110 0.4897 -0.8648
vn -0.1761 0.1018 -0.9791
vn 0.1930 0.0401 -0.9804
vn 0.2581 0.4281 -0.8661
vn -0.1749 -0.8852 -0.4311
vn -0.1643 -0.9826 -0.0863
vn -0.1250 -0.8935 -0.4313
vn 0.9882 0.0874 -0.1258
vn 0.9230 -0.3006 -0.2401
vn 0.1897 0.0673 -0.9795
vn -0.1641 0.1264 -0.9783
vn 0.2468 0.4070 -0.8794
vn 0.1397 0.9556 0.2594
vn 0.3484 0.8967 0.2730
vn -0.0364 0.9610 0.2743
vn 0.3182 0.9144 0.2503
vn 0.3385 0.9360 0.0970
vn -0.1380 -0.9444 -0.2985
vn -0.1782 -0.9377 -0.2984
vn -0.0023 0.9679 0.2514
vn 0.3484 0.8967 0.2729
vn -0.0154 0.9950 0.0983
vn -0.8428 0.5360 -0.0486
vn -0.8104 0.5437 -0.2185
vn -0.8663 0.4007 -0.2983
vn 0.0053 0.9961 -0.0886
vn -0.1655 0.9842 -0.0633
vn -0.2020 0.9737 0.1055
vn -0.2906 0.4629 -0.8375
vn -0.2310 0.6062 -0.7610
vn -0.0598 0.6205 -0.7819
vn 0.9474 0.0980 -0.3046
vn 0.9415 0.2512 -0.2245
vn 0.9709 0.2332 -0.0549
vn 0.2528 0.5683 -0.7830
vn 0.4102 0.4992 -0.7632
vn 0.4195 0.3443 -0.8399
vn 0.5081 0.8551 0.1031
vn 0.4758 0.8771 -0.0655
vn 0.3179 0.9439 -0.0897
vn -0.8970 0.2022 0.3930
vn -0.8381 0.3644 0.4059
vn -0.8564 0.4486 0.2558
vn -0.1383 0.1135 0.9839
vn -0.3068 0.1165 0.9446
vn -0.3691 -0.0441 0.9283
vn -0.2156 0.8863 0.4099
vn -0.1933 0.8049 0.5610
vn -0.0255 0.7975 0.6027
vn 0.9573 0.1458 0.2495
vn 0.9138 0.0720 0.3998
vn 0.9167 -0.1005 0.3868
vn 0.2872 0.7454 0.6016
vn 0.4480 0.6979 0.5588
vn 0.4945 0.7677 0.4075
vn 0.3410 -0.1627 0.9259
vn 0.3344 0.0095 0.9424
vn 0.1743 0.0613 0.9828
vn -0.9893 0.0717 0.1270
vn -0.9572 0.0361 0.2873
vn -0.9276 0.0466 0.3707
vn -0.9757 0.1077 0.1907
vn -0.4169 -0.1917 0.8885
vn -0.9591 0.2153 -0.1840
vn -0.8949 0.2576 -0.3643
vn -0.1505 0.3025 -0.9412
vn -0.3380 0.3177 -0.8859
vn -0.0757 0.1521 -0.9855
vn -0.1156 0.1087 -0.9873
vn 0.8949 -0.2576 0.3643
vn 0.3380 -0.3177 0.8859
vn 0.9276 -0.0466 -0.3706
vn 0.1572 0.1599 -0.9745
vn 0.4169 0.1917 -0.8885
vn -0.9876 -0.1531 0.0349
vn -0.9709 -0.2332 0.0549
vn -0.9415 -0.2512 0.2245
vn -0.9927 -0.0901 0.0805
vn -0.3179 -0.9439 0.0897
vn -0.4758 -0.8771 0.0655
vn -0.5081 -0.8551 -0.1031
vn -0.2512 -0.5689 0.7831
vn -0.4102 -0.4992 0.7632
vn -0.2528 -0.5683 0.7830
vn -0.9576 -0.1466 -0.2479
vn -0.9138 -0.0720 -0.3998
vn -0.9573 -0.1458 -0.2495
vn -0.0841 -0.0301 -0.9960
vn -0.1743 -0.0613 -0.9828
vn -0.3344 -0.0095 -0.9424
vn -0.1073 -0.0030 -0.9942
vn -0.4945 -0.7677 -0.4075
vn -0.4480 -0.6979 -0.5588
vn -0.2872 -0.7454 -0.6016
vn 0.8430 -0.5358 0.0468
vn 0.8104 -0.5437 0.2184
vn 0.8428 -0.5360 0.0486
vn 0.0580 -0.6205 0.7820
vn 0.0598 -0.6205 0.7819
vn 0.2310 -0.6062 0.7610
vn 0.2021 -0.9737 -0.1055
vn 0.1655 -0.9842 0.0633
vn -0.0053 -0.9960 0.0886
vn 0.8564 -0.4494 -0.2542
vn 0.8564 -0.4486 -0.2558
vn 0.8381 -0.3644 -0.4059
vn 0.0255 -0.7975 -0.6027
vn 0.1933 -0.8049 -0.5610
vn 0.2156 -0.8863 -0.4099
vn 0.3068 -0.1165 -0.9446
vn 0.1383 -0.1135 -0.9839
vn -0.1932 0.8049 0.5610
vn -0.0254 0.7976 0.6027
vn -0.8381 0.3645 0.4059
vn -0.1384 0.1135 0.9839
vn -0.2305 0.9380 0.2590
vn -0.2305 0.9380 0.2591
vn -0.8504 0.5145 0.1099
vn 0.3344 0.0094 0.9424
vn 0.1741 0.0613 0.9828
vn 0.9167 -0.1005 0.3867
vn 0.5244 0.8119 0.2564
vn 0.9721 0.2103 0.1036
vn -0.4195 -0.3443 0.8399
vn -0.9474 -0.0980 0.3046
vn -0.5244 -0.8119 -0.2564
vn -0.9721 -0.2103 -0.1036
vn 0.2020 -0.9737 -0.1056
vn -0.0052 -0.9961 0.0886
vn 0.8663 -0.4007 0.2983
vn 0.0599 -0.6205 0.7819
vn 0.2906 -0.4629 0.8375
vn 0.2305 -0.9380 -0.2591
vn 0.2305 -0.9379 -0.2591
vn 0.8504 -0.5145 -0.1099
vn 0.0054 0.9960 -0.0886
vn -0.2021 0.9737 0.1055
vn -0.2906 0.4629 -0.8374
vn -0.9167 0.1005 -0.3867
vn -0.3410 0.1627 -0.9259
vn 0.5080 0.8551 0.1031
vn 0.9415 0.2513 -0.2245
vn 0.0254 -0.7975 -0.6027
vn 0.3691 0.0441 -0.9284
vn 0.8564 -0.4486 -0.2557
vn 0.8381 -0.3645 -0.4059
vn 0.8970 -0.2022 -0.3930
vn -0.1599 0.9636 0.2142
vn 0.0204 0.9905 0.1360
vn 0.0761 0.9692 0.2342
vn -0.8485 0.4465 -0.2840
vn -0.7745 0.5999 -0.2008
vn -0.8237 0.5651 -0.0464
vn -0.0621 0.6473 -0.7597
vn -0.2220 0.6596 -0.7181
vn -0.2827 0.5076 -0.8139
vn 0.1170 0.9736 0.1960
vn 0.1118 0.9929 -0.0401
vn 0.2444 0.9411 0.2336
vn 0.3033 0.9433 0.1350
vn 0.4656 0.8592 0.2121
vn 0.2069 0.9586 0.1956
vn 0.2166 0.9754 -0.0405
vn 0.4267 0.3892 -0.8164
vn 0.4194 0.5525 -0.7204
vn 0.2638 0.5929 -0.7608
vn 0.9623 0.2670 -0.0526
vn 0.9260 0.3161 -0.2067
vn 0.9456 0.1470 -0.2902
vn 0.0214 0.1077 0.9940
vn 0.1306 0.7694 0.6252
vn 0.0215 0.1077 0.9940
vn -0.2405 -0.9160 -0.3211
vn -0.2911 -0.8642 -0.4104
vn -0.4611 -0.8299 -0.3141
vn -0.1996 -0.9116 -0.3594
vn -0.1895 -0.8006 -0.5685
vn -0.3490 0.1124 -0.9303
vn -0.3458 -0.0771 -0.9351
vn -0.1865 -0.0937 -0.9780
vn -0.9482 -0.1759 -0.2647
vn -0.8982 -0.1367 -0.4178
vn -0.9149 0.0513 -0.4004
vn 0.1644 -0.9343 -0.3163
vn -0.0082 -0.9114 -0.4114
vn -0.0722 -0.9441 -0.3217
vn 0.8792 -0.2482 -0.4066
vn 0.8022 -0.4206 -0.4237
vn 0.8378 -0.4740 -0.2709
vn 0.1394 -0.1481 -0.9791
vn 0.2957 -0.1842 -0.9374
vn 0.3604 -0.0061 -0.9328
vn -0.1097 -0.9266 -0.3597
vn -0.0847 -0.8181 -0.5688
vn -0.1003 -0.6172 0.7804
vn -0.1633 -0.9805 0.1097
vn -0.1632 -0.9805 0.1097
vn -0.1003 -0.6171 0.7804
vn -0.8104 0.5437 -0.2184
vn -0.2906 0.4628 -0.8375
vn -0.0598 0.6205 -0.7820
vn -0.3344 -0.0094 -0.9424
vn -0.4945 -0.7678 -0.4075
vn 0.0254 -0.7976 -0.6027
vn 0.3691 0.0441 -0.9283
vn 0.1384 -0.1135 -0.9839
vn 0.4757 0.8771 -0.0655
vn 0.3180 0.9438 -0.0897
vn 0.2529 0.5683 -0.7830
vn 0.4103 0.4992 -0.7632
vn -0.0000 -0.0000 1.0000
vn -0.0001 1.0000 -0.0000
vn -0.0000 1.0000 -0.0000
vn -0.1072 -0.0030 -0.9942
vn -0.0840 -0.0301 -0.9960
vn -0.2212 -0.9752 -0.0000
vn -0.9571 0.0361 0.2873
vn -0.9876 -0.1531 0.0348
vn 0.3828 -0.7291 -0.5673
vn 0.4201 -0.8096 -0.4100
vn 0.0432 -0.9105 -0.4113
vn 0.0363 -0.8219 -0.5685
vn 0.2327 -0.1884 0.9541
vn -0.1138 -0.2811 0.9529
vn -0.0291 -0.5957 0.8027
vn 0.3175 -0.5029 0.8039
vn -0.9109 -0.3347 -0.2413
vn -0.9013 -0.4247 -0.0850
vn -0.9935 -0.0825 0.0783
vn -0.9956 -0.0201 -0.0911
vn 0.0291 0.5957 -0.8027
vn 0.1138 0.2811 -0.9529
vn -0.2327 0.1884 -0.9541
vn -0.3174 0.5029 -0.8039
vn -0.4206 0.8745 0.2416
vn -0.4201 0.8096 0.4100
vn -0.0432 0.9104 0.4114
vn -0.0741 0.9673 0.2428
vn 0.0852 0.4479 -0.8900
vn -0.1201 0.3820 -0.9163
vn -0.1493 0.5686 -0.8090
vn -0.4206 0.8745 0.2415
vn -0.3828 0.7291 0.5673
vn -0.2111 0.7809 0.5878
vn -0.2522 0.9391 0.2335
vn 0.9938 0.0013 0.1109
vn 0.9956 0.0201 0.0911
vn 0.9579 0.1655 -0.2347
vn 0.9507 0.1673 -0.2611
vn -0.9680 -0.1745 -0.1805
vn -0.9269 -0.3327 0.1738
vn -0.9579 -0.1655 0.2347
vn -0.0363 0.8219 0.5685
vn -0.0471 -0.4640 0.8846
vn -0.0290 -0.5957 0.8027
vn 0.2917 -0.3471 0.8913
vn -0.8732 -0.4801 0.0845
vn -0.0899 0.2508 -0.9639
vn -0.0410 0.2638 -0.9637
vn 0.9680 0.1745 0.1805
vn 0.9269 0.3327 -0.1738
vn 0.8731 0.4801 -0.0845
vn 0.9109 0.3347 0.2413
vn -0.0852 -0.4479 0.8900
vn 0.2668 -0.3799 0.8857
vn 0.3861 -0.7111 -0.5876
vn 0.0246 -0.8078 -0.5889
vn 0.0677 -0.9738 -0.2169
vn 0.4292 -0.8771 -0.2157
vn 0.1666 -0.5357 0.8278
vn 0.1178 -0.5488 0.8276
vn 0.0572 -0.2265 0.9723
vn 0.0572 -0.2264 0.9723
vn -0.9054 -0.3295 -0.2676
vn -0.8731 -0.4801 0.0845
vn -0.8623 -0.4955 0.1043
vn -0.2111 0.7809 0.5879
vn 0.3829 -0.7291 -0.5673
vn 0.4206 -0.8745 -0.2415
vn 0.0741 -0.9673 -0.2428
vn -0.0807 0.3925 -0.9162
vn -0.2917 0.3471 -0.8913
vn -0.3175 0.5029 -0.8039
vn -0.2548 0.3356 -0.9069
vn 0.0571 -0.2264 0.9723
vn 0.0903 -0.4283 0.8991
vn 0.1298 -0.4177 0.8993
vn 0.0590 0.4196 -0.9058
vn 0.9565 -0.0137 -0.2915
vn 0.9004 0.0763 -0.4282
vn 0.8877 0.2446 -0.3901
vn 0.2883 0.3267 -0.9001
vn 0.2972 0.1589 -0.9415
vn 0.1413 0.0980 -0.9851
vn 0.3323 -0.6193 -0.7113
vn 0.4895 -0.5629 -0.6660
vn 0.5482 -0.6489 -0.5277
vn -0.8886 -0.2308 -0.3964
vn -0.8153 -0.3829 -0.4343
vn -0.8198 -0.4892 -0.2978
vn -0.1473 -0.8350 -0.5301
vn -0.1385 -0.7310 -0.6681
vn 0.0262 -0.7013 -0.7124
vn -0.1649 0.0160 -0.9862
vn -0.3307 -0.0092 -0.9437
vn -0.4071 0.1406 -0.9025
vn 0.8732 0.4801 -0.0845
vn 0.8128 0.5226 -0.2574
vn 0.7469 0.6464 -0.1560
vn 0.7864 0.6176 0.0100
vn 0.1139 0.9635 0.2423
vn 0.0701 0.9945 0.0778
vn -0.1019 0.9931 0.0587
vn -0.0287 0.7292 -0.6837
vn 0.1437 0.7290 -0.6693
vn 0.2135 0.6047 -0.7673
vn -0.9898 0.1421 0.0037
vn -0.9689 0.1871 -0.1621
vn -0.9635 0.0471 -0.2637
vn -0.4819 0.4185 -0.7698
vn -0.4843 0.5609 -0.6715
vn -0.3349 0.6473 -0.6848
vn -0.4081 0.9111 0.0576
vn -0.5579 0.8264 0.0756
vn -0.5815 0.7774 0.2398
vn 0.8998 0.4327 0.0564
vn 0.9014 0.4247 0.0850
vn 0.8021 0.5744 0.1634
vn 0.8589 0.5069 0.0730
vn -0.0292 0.9601 0.2781
vn 0.0816 0.9745 0.2091
vn 0.1514 0.9091 0.3882
vn 0.1515 0.9091 0.3882
vn 0.9935 0.0825 -0.0783
vn 0.9828 -0.0967 -0.1571
vn 0.5879 -0.7112 -0.3855
vn 0.5879 -0.7112 -0.3856
vn -0.9828 0.0967 0.1571
vn -0.5879 0.7112 0.3856
vn -0.9013 -0.4247 -0.0851
vn -0.8021 -0.5744 -0.1634
vn -0.8021 -0.5745 -0.1634
vn 0.0432 -0.9105 -0.4114
vn -0.1515 -0.9091 -0.3882
vn 0.9124 0.3122 0.2647
vn 0.8724 0.4222 0.2464
vn 0.8153 0.3829 0.4343
vn 0.8886 0.2308 0.3964
vn 0.4071 -0.1406 0.9025
vn 0.3307 0.0091 0.9437
vn 0.1649 -0.0160 0.9862
vn -0.0279 0.7009 0.7127
vn -0.0262 0.7013 0.7124
vn 0.1385 0.7310 0.6681
vn 0.9633 -0.0457 0.2647
vn 0.9635 -0.0471 0.2637
vn 0.9689 -0.1871 0.1621
vn 0.4065 -0.9118 -0.0574
vn 0.5580 -0.8264 -0.0756
vn 0.4081 -0.9111 -0.0576
vn 0.3349 -0.6473 0.6848
vn 0.4842 -0.5609 0.6715
vn 0.4819 -0.4185 0.7698
vn -0.8874 -0.2464 0.3897
vn -0.8877 -0.2446 0.3901
vn -0.9004 -0.0763 0.4283
vn -0.3307 0.6198 0.7117
vn -0.4895 0.5629 0.6659
vn -0.3324 0.6193 0.7113
vn -0.1413 -0.0980 0.9851
vn -0.2973 -0.1589 0.9415
vn -0.2884 -0.3267 0.9000
vn -0.8134 -0.5212 0.2584
vn -0.7469 -0.6464 0.1560
vn -0.8128 -0.5226 0.2574
vn -0.2135 -0.6047 0.7673
vn -0.1437 -0.7290 0.6693
vn 0.0287 -0.7292 0.6837
vn 0.1037 -0.9929 -0.0585
vn 0.1019 -0.9931 -0.0587
vn -0.0700 -0.9945 -0.0778
vn -0.0287 0.7293 -0.6836
vn 0.1437 0.7290 -0.6692
vn 0.7468 0.6464 -0.1560
vn 0.0700 0.9945 0.0778
vn -0.1020 0.9931 0.0586
vn 0.2724 0.4734 -0.8377
vn 0.8522 0.3940 -0.3444
vn -0.4843 0.5609 -0.6714
vn -0.3349 0.6473 -0.6847
vn -0.4081 0.9111 0.0575
vn -0.5580 0.8264 0.0756
vn -0.5816 0.7773 0.2398
vn -0.2917 0.3470 -0.8913
vn -0.4669 0.2755 -0.8403
vn -0.9327 -0.0838 -0.3507
vn 0.1648 -0.0160 0.9862
vn 0.1385 0.7310 0.6682
vn 0.1473 0.8350 0.5301
vn 0.8198 0.4891 0.2978
vn 0.4669 -0.2755 0.8403
vn 0.9327 0.0838 0.3507
vn -0.9565 0.0137 0.2915
vn -0.5482 0.6489 0.5277
vn -0.4896 0.5629 0.6659
vn -0.3323 0.6193 0.7113
vn -0.2724 -0.4734 0.8377
vn -0.8522 -0.3940 0.3444
vn -0.8522 -0.3940 0.3443
vn 0.2884 0.3267 -0.9001
vn 0.2973 0.1589 -0.9415
vn 0.1414 0.0980 -0.9851
vn 0.3324 -0.6193 -0.7113
vn 0.9004 0.0763 -0.4283
vn 0.9635 -0.0472 0.2637
vn 0.9689 -0.1872 0.1621
vn 0.9898 -0.1422 -0.0037
vn 0.5816 -0.7774 -0.2398
vn 0.5580 -0.8264 -0.0755
vn 0.4082 -0.9111 -0.0576
vn 0.3350 -0.6473 0.6847
vn 0.4843 -0.5609 0.6714
vn -0.1648 0.0160 -0.9862
vn -0.3307 -0.0091 -0.9437
vn -0.8198 -0.4891 -0.2978
vn -0.1438 -0.7290 0.6692
vn 0.0287 -0.7293 0.6836
vn 0.1019 -0.9931 -0.0586
vn -0.1139 -0.9635 -0.2423
vn -0.7864 -0.6176 -0.0099
vn -0.0117 0.3855 -0.9226
vn 0.0693 0.3082 -0.9488
vn 0.2192 0.4192 -0.8811
vn 0.8724 0.2478 -0.4213
vn 0.8685 0.0954 -0.4864
vn 0.9415 0.0044 -0.3370
vn 0.5402 -0.6199 -0.5691
vn 0.4767 -0.5141 -0.7130
vn 0.3322 -0.5926 -0.7338
vn 0.0265 0.1195 -0.9925
vn -0.0406 0.3404 -0.9394
vn -0.3934 0.2552 -0.8832
vn -0.2077 0.2340 -0.9498
vn -0.1764 0.3414 -0.9232
vn -0.1287 0.3169 -0.9397
vn -0.0761 0.0920 -0.9928
vn 0.0131 -0.6780 -0.7349
vn -0.1514 -0.6823 -0.7152
vn -0.1545 -0.8059 -0.5715
vn -0.8156 -0.4659 -0.3432
vn -0.7968 -0.3503 -0.4923
vn -0.8767 -0.2204 -0.4275
vn -0.2585 0.9652 0.0393
vn -0.1876 0.7100 -0.6787
vn -0.1877 0.7100 -0.6787
vn 0.4185 -0.3484 0.8387
vn 0.2755 -0.4855 0.8297
vn 0.1979 -0.4213 0.8851
vn 0.1689 -0.4664 0.8683
vn 0.2259 -0.6481 0.7273
vn 0.4146 -0.9097 -0.0233
vn 0.5586 -0.8294 -0.0066
vn 0.5841 -0.7891 -0.1901
vn 0.9854 -0.1647 0.0420
vn 0.9504 -0.2199 0.2200
vn 0.9548 -0.0693 0.2892
vn 0.0332 -0.4654 0.8845
vn -0.0016 -0.5597 0.8287
vn -0.1940 -0.5123 0.8366
vn -0.7944 -0.5375 0.2830
vn -0.7149 -0.6656 0.2141
vn -0.7716 -0.6350 0.0358
vn -0.1106 -0.9750 -0.1926
vn -0.0696 -0.9975 -0.0088
vn 0.0954 -0.9951 -0.0244
vn 0.1232 -0.6756 0.7269
vn 0.0809 -0.4899 0.8680
vn -0.1779 0.6550 0.7344
vn 0.0068 -0.0389 0.9992
vn 0.0069 -0.0389 0.9992
vn 0.4895 -0.5629 -0.6659
vn 0.5816 -0.7773 -0.2398
vn 0.3349 -0.6473 0.6847
vn 0.4843 -0.5609 0.6715
vn 0.4820 -0.4185 0.7698
vn -0.7864 -0.6176 -0.0100
vn 0.0288 -0.7292 0.6837
vn 0.1020 -0.9931 -0.0587
vn -0.0701 -0.9945 -0.0778
vn -0.1385 -0.7310 -0.6682
vn 0.8998 0.4326 0.0564
vn -0.9557 -0.2503 -0.1548
vn -0.9553 -0.2155 0.2022
vn -0.9757 0.1410 0.1675
vn -0.9761 0.1061 -0.1896
vn 0.1724 0.0428 -0.9841
vn -0.1749 -0.1320 -0.9757
vn 0.9757 -0.1410 -0.1675
vn 0.9553 0.2155 -0.2022
vn 0.9557 0.2503 0.1548
vn 0.9761 -0.1061 0.1896
vn -0.3072 -0.9189 0.2474
vn -0.2737 -0.8693 0.4117
vn -0.3069 -0.9185 0.2492
vn -0.3499 -0.0868 0.9328
vn -0.3494 -0.0886 0.9328
vn -0.3051 -0.2551 0.9175
vn -0.8973 -0.3943 0.1986
vn -0.8678 -0.3416 0.3608
vn -0.9085 -0.1745 0.3796
vn -0.3075 -0.9493 -0.0645
vn -0.3072 -0.9493 -0.0663
vn -0.2743 -0.9324 -0.2353
vn -0.9093 -0.2444 -0.3369
vn -0.8685 -0.4047 -0.2862
vn -0.8976 -0.4250 -0.1169
vn -0.3070 -0.4276 -0.8503
vn -0.3513 -0.2671 -0.8974
vn -0.4118 0.9086 0.0692
vn -0.4115 0.9086 0.0710
vn -0.3747 0.8956 0.2396
vn -0.9266 0.1405 0.3489
vn -0.9048 0.3044 0.2978
vn -0.9382 0.3211 0.1289
vn -0.3677 0.2247 0.9024
vn -0.3421 0.3909 0.8545
vn -0.3675 0.2264 0.9021
vn -0.4121 0.8782 -0.2427
vn -0.3754 0.8325 -0.4074
vn -0.4118 0.8779 -0.2445
vn -0.1824 0.0227 -0.9830
vn -0.3693 0.0479 -0.9281
vn -0.3439 0.2184 -0.9133
vn -0.1109 0.0705 -0.9913
vn -0.9386 0.2903 -0.1866
vn -0.9055 0.2412 -0.3492
vn -0.9273 0.0706 -0.3676
vn 0.4119 -0.9086 -0.0692
vn 0.3747 -0.8956 -0.2396
vn 0.4115 -0.9086 -0.0710
vn 0.1827 -0.1116 -0.9768
vn 0.3675 -0.2264 -0.9021
vn 0.3421 -0.3908 -0.8545
vn 0.9382 -0.3211 -0.1289
vn 0.9048 -0.3044 -0.2978
vn 0.9266 -0.1405 -0.3489
vn 0.4122 -0.8782 0.2427
vn 0.4118 -0.8779 0.2445
vn 0.3754 -0.8325 0.4074
vn 0.9273 -0.0706 0.3676
vn 0.9055 -0.2413 0.3492
vn 0.9386 -0.2903 0.1866
vn 0.3695 -0.0461 0.9281
vn 0.3439 -0.2184 0.9133
vn 0.3693 -0.0479 0.9281
vn 0.3072 0.9189 -0.2474
vn 0.3069 0.9185 -0.2492
vn 0.2737 0.8693 -0.4117
vn 0.9085 0.1745 -0.3796
vn 0.8678 0.3416 -0.3608
vn 0.8973 0.3943 -0.1986
vn 0.0984 0.0822 -0.9917
vn 0.3051 0.2551 -0.9175
vn 0.3494 0.0886 -0.9328
vn 0.3075 0.9494 0.0645
vn 0.2743 0.9324 0.2353
vn 0.3072 0.9493 0.0663
vn 0.3517 0.2654 0.8977
vn 0.3513 0.2671 0.8974
vn 0.3069 0.4276 0.8503
vn 0.8976 0.4250 0.1169
vn 0.8685 0.4047 0.2862
vn 0.9093 0.2444 0.3369
vn 0.0983 0.0822 -0.9918
vn 0.4121 -0.8782 0.2427
vn 0.9055 -0.2412 0.3492
vn 0.4118 -0.9086 -0.0692
vn 0.2743 0.9324 0.2354
vn 0.8685 0.4047 0.2863
vn 0.8973 0.3942 -0.1986
vn -0.3075 -0.9494 -0.0645
vn -0.2743 -0.9324 -0.2354
vn -0.3069 -0.4276 -0.8503
vn -0.8685 -0.4048 -0.2862
vn -0.3498 -0.0868 0.9328
vn -0.3052 -0.2551 0.9175
vn -0.4122 0.8782 -0.2427
vn -0.9055 0.2413 -0.3492
vn -0.4119 0.9086 0.0692
vn -0.1679 -0.0944 0.9813
vn 0.1903 -0.0742 0.9789
vn 0.1698 0.2823 0.9442
vn -0.1883 0.2620 0.9465
vn 0.2343 -0.9336 0.2710
vn -0.1239 -0.9539 0.2734
vn -0.1242 -0.9887 -0.0836
vn 0.2339 -0.9684 -0.0860
vn 0.1883 -0.2620 -0.9465
vn -0.1698 -0.2823 -0.9442
vn -0.1903 0.0742 -0.9789
vn 0.1679 0.0944 -0.9813
vn -0.2339 0.9684 0.0860
vn 0.1242 0.9887 0.0836
vn 0.1239 0.9539 -0.2734
vn -0.2343 0.9336 -0.2711
vn 0.2343 -0.9336 0.2711
vn 0.9761 -0.1062 0.1896
vn -0.9758 0.1410 0.1674
vn 0.9757 -0.1410 -0.1674
vn -0.8973 -0.3942 0.1986
vn -0.1055 -0.8876 0.4484
vn -0.2736 -0.8693 0.4117
vn -0.3069 -0.9186 0.2492
vn -0.1368 -0.2774 0.9510
vn -0.1387 -0.4559 -0.8792
vn -0.2744 -0.9324 -0.2354
vn -0.1063 -0.9575 -0.2682
vn 0.9054 -0.2412 0.3493
vn 0.1796 -0.2595 0.9489
vn 0.3439 -0.2184 0.9132
vn 0.3754 -0.8325 0.4075
vn 0.2109 -0.8697 0.4463
vn 0.2102 -0.9396 -0.2702
vn 0.3421 -0.3909 -0.8545
vn 0.1778 -0.4380 -0.8812
vn -0.1778 0.4380 0.8812
vn -0.3675 0.2264 0.9020
vn -0.2102 0.9396 0.2702
vn -0.9054 0.2412 -0.3492
vn -0.2109 0.8697 -0.4463
vn -0.3439 0.2184 -0.9132
vn -0.1796 0.2595 -0.9489
vn 0.1063 0.9575 0.2682
vn 0.1387 0.4559 0.8792
vn 0.1368 0.2774 -0.9510
vn 0.3051 0.2552 -0.9175
vn 0.3069 0.9185 -0.2491
vn 0.1056 0.8876 -0.4484
vn -0.1056 -0.8876 0.4483
vn -0.3494 -0.0885 0.9328
vn -0.8678 -0.3417 0.3608
vn 0.9054 -0.2413 0.3492
vn 0.9385 -0.2904 0.1866
vn 0.1063 0.9575 0.2681
vn 0.1387 0.4559 0.8791
vn -0.1387 -0.4559 -0.8791
vn 0.3069 0.9186 -0.2492
vn 0.1055 0.8876 -0.4484
vn 0.3052 0.2551 -0.9175
vn -0.3754 0.8325 -0.4075
vn -0.3069 -0.9186 0.2491
vn -0.3495 -0.0886 0.9328
vn 0.4119 -0.8778 0.2445
vn 0.9385 -0.2903 0.1866
vn 0.2744 0.9324 0.2354
vn 0.3073 0.9493 0.0663
vn 0.8976 0.4251 0.1169
vn 0.8684 0.4048 0.2862
vn 0.9382 -0.3211 -0.1288
vn -0.8976 -0.4251 -0.1169
vn 0.3495 0.0886 -0.9328
vn -0.1902 0.0742 -0.9789
vn -0.1242 -0.9887 -0.0837
vn 0.8678 0.3417 -0.3608
vn 0.2101 -0.9396 -0.2703
vn 0.3747 -0.8956 -0.2397
vn 0.3675 -0.2264 -0.9020
vn 0.8685 0.4048 0.2862
vn 0.4118 -0.8778 0.2445
vn -0.2339 0.9685 0.0860
vn -0.3747 0.8957 0.2396
vn -0.2101 0.9396 0.2702
vn -0.9048 0.3043 0.2978
vn -0.3674 0.2264 0.9021
vn -0.4118 0.8779 -0.2444
vn -0.1056 -0.8876 0.4484
vn -0.2737 -0.8692 0.4117
vn -0.3073 -0.9493 -0.0663
vn -0.1699 -0.2823 -0.9442
vn -0.9761 0.1062 -0.1896
vn 0.9758 -0.1410 -0.1674
vn -0.4119 0.8778 -0.2445
vn -0.9385 0.2903 -0.1866
vn -0.9054 0.2413 -0.3492
vn -0.1796 0.2594 -0.9489
vn -0.1063 -0.9575 -0.2681
vn -0.2102 0.9396 0.2703
vn -0.3422 0.3909 0.8545
vn -0.9048 0.3044 0.2979
vn 0.1242 0.9887 0.0837
vn 0.3070 0.9185 -0.2492
vn 0.2737 0.8692 -0.4117
vn 0.2101 -0.9396 -0.2702
vn 0.3747 -0.8957 -0.2396
vn 0.9048 -0.3043 -0.2978
vn 0.3674 -0.2264 -0.9021
vn 0.9756 0.2197 0.0030
vn 0.9903 -0.1384 0.0125
vn -0.2142 0.2676 0.9394
vn 0.1948 0.2908 0.9367
vn -0.9991 -0.0343 0.0248
vn -0.9794 -0.0744 -0.1878
vn -0.9681 -0.2493 0.0253
vn 0.1938 -0.0842 -0.9774
vn -0.1958 -0.1063 -0.9749
vn 0.1679 0.0945 -0.9813
vn -0.9940 0.1082 0.0159
vn 0.9835 0.0967 0.1528
vn 0.9790 0.0365 -0.2006
vn -0.1390 -0.9856 0.0963
vn 0.2506 -0.9635 0.0937
vn -0.9861 -0.0148 0.1657
vn 0.2506 -0.9636 0.0937
vn 0.1699 0.2823 0.9442
vn 0.9968 0.0787 0.0118
vn -0.9228 -0.0894 -0.3748
vn -0.3830 -0.1113 -0.9170
vn 0.9220 0.0151 -0.3869
vn 0.9220 0.0150 -0.3869
vn 0.3811 -0.0681 -0.9220
vn -0.3051 -0.2552 0.9175
vn -0.9962 -0.0027 0.0869
vn -0.9856 0.1011 0.1352
vn -0.9481 0.0301 0.3166
vn -0.9985 0.0329 0.0436
vn -0.9634 0.2667 0.0283
vn -0.2589 0.9613 0.0945
vn -0.2597 0.9268 0.2712
vn -0.4370 0.8661 0.2426
vn -0.4419 0.8936 0.0793
vn -0.3991 0.2299 0.8876
vn -0.4059 0.3848 0.8289
vn -0.2279 0.4338 0.8717
vn 0.9427 0.1371 0.3043
vn 0.9696 0.2118 0.1224
vn 0.9912 0.1098 0.0739
vn 0.1888 0.4574 0.8690
vn 0.3707 0.4288 0.8239
vn 0.3821 0.2742 0.8825
vn 0.1500 0.9844 0.0918
vn 0.3392 0.9378 0.0741
vn 0.3396 0.9101 0.2376
vn 0.1569 0.9504 0.2684
vn 0.9889 0.1454 0.0306
vn 0.9274 0.3737 0.0160
vn -0.3295 -0.9397 0.0920
vn -0.9006 -0.4325 0.0431
vn 0.4346 -0.8964 0.0870
vn 0.9442 -0.3280 0.0310
vn 0.9441 -0.3280 0.0310
vt 0.714132 0.096138
vt 0.520358 0.103501
vt 0.655701 0.087506
vt 0.595542 0.094200
s 1
usemtl Atlas
f 3/1/1 9/1/2 58/1/3 40/1/4
f 66/1/5 74/1/6 87/1/7 81/1/8
f 8/1/9 22/1/10 48/1/11 59/1/12
f 17/1/13 23/1/14 10/1/15 2/1/16
s 0
f 29/1/17 38/1/17 72/1/17 65/1/17
s 1
f 24/1/18 16/1/19 31/1/20 49/1/21
f 100/1/22 93/1/23 209/1/24 197/1/25
s 0
f 56/1/17 47/1/17 79/1/17 86/1/17
f 50/1/17 30/1/17 67/1/17 80/1/17
f 41/1/26 57/1/17 88/1/27 73/1/17
s 1
f 110/1/28 217/1/29 258/1/30 143/1/31
f 229/1/32 186/1/33 265/1/34 272/1/35
f 117/1/36 111/1/10 142/1/37 151/1/38
f 210/1/39 95/1/19 126/1/40 247/1/41
f 236/1/42 135/1/43 166/1/6 280/1/7
f 118/1/36 150/1/38 180/1/44 172/1/9
f 219/1/45 188/1/46 198/1/47 208/1/45
f 134/1/48 102/1/49 159/1/34 164/1/35
f 94/1/50 103/1/49 133/1/48 127/1/51
f 149/1/52 225/1/53 274/1/6 178/1/7
f 187/1/54 228/1/55 238/1/56 199/1/57
f 227/1/58 256/1/59 249/1/59 239/1/60
f 200/1/61 237/1/62 279/1/44 287/1/9
f 207/1/29 250/1/41 259/1/41 216/1/29
f 267/1/1 173/1/2 179/1/63 273/1/64
f 158/1/1 288/1/65 281/1/63 165/1/64
f 189/1/66 218/1/45 109/1/14 116/1/67
f 101/1/68 196/1/69 286/1/70 157/1/16
f 125/1/5 132/1/43 240/1/71 248/1/59
f 257/1/59 226/1/72 148/1/52 141/1/8
f 185/1/73 119/1/74 171/1/15 266/1/75
f 1/1/34 4/1/76 5/1/77 7/1/78
f 2/1/16 6/1/79 5/1/80 4/1/81
f 3/1/1 7/1/82 5/1/83 6/1/84
f 8/1/9 11/1/85 12/1/86 14/1/87
f 9/1/2 13/1/88 12/1/89 11/1/90
f 10/1/15 14/1/91 12/1/92 13/1/93
f 15/1/50 18/1/94 19/1/95 21/1/96
f 16/1/19 20/1/97 19/1/98 18/1/99
f 17/1/13 21/1/100 19/1/101 20/1/102
f 22/1/10 25/1/103 26/1/104 28/1/105
f 23/1/14 27/1/106 26/1/107 25/1/108
f 24/1/18 28/1/109 26/1/110 27/1/111
f 29/1/112 33/1/113 34/1/114 37/1/115
f 30/1/20 35/1/20 34/1/116 33/1/116
f 31/1/20 36/1/116 34/1/116 35/1/20
f 32/1/115 37/1/115 34/1/114 36/1/114
f 38/1/117 42/1/117 43/1/118 46/1/118
f 39/1/117 44/1/118 43/1/118 42/1/117
f 40/1/4 45/1/119 43/1/120 44/1/120
f 41/1/121 46/1/122 43/1/120 45/1/119
f 47/1/11 51/1/11 52/1/123 55/1/123
f 48/1/11 53/1/123 52/1/123 51/1/11
f 49/1/21 54/1/21 52/1/124 53/1/124
f 50/1/21 55/1/124 52/1/124 54/1/21
f 56/1/12 60/1/125 61/1/125 64/1/12
f 57/1/126 62/1/3 61/1/127 60/1/127
f 58/1/3 63/1/127 61/1/127 62/1/3
f 59/1/12 64/1/12 61/1/125 63/1/125
f 65/1/128 68/1/129 69/1/130 71/1/131
f 66/1/5 70/1/132 69/1/133 68/1/134
f 67/1/135 71/1/136 69/1/136 70/1/137
f 72/1/138 75/1/139 76/1/139 78/1/140
f 73/1/141 77/1/142 76/1/143 75/1/144
f 74/1/6 78/1/145 76/1/146 77/1/147
f 79/1/148 82/1/149 83/1/149 85/1/150
f 80/1/151 84/1/152 83/1/153 82/1/153
f 81/1/8 85/1/154 83/1/155 84/1/156
f 86/1/157 89/1/158 90/1/159 92/1/159
f 87/1/7 91/1/160 90/1/161 89/1/162
f 88/1/27 92/1/163 90/1/163 91/1/164
f 93/1/23 96/1/100 97/1/165 99/1/166
f 94/1/50 98/1/94 97/1/167 96/1/96
f 95/1/19 99/1/168 97/1/98 98/1/99
f 100/1/22 104/1/68 105/1/169 108/1/170
f 101/1/68 106/1/169 105/1/169 104/1/68
f 102/1/49 107/1/49 105/1/171 106/1/171
f 103/1/49 108/1/171 105/1/171 107/1/49
f 109/1/14 112/1/106 113/1/107 115/1/108
f 110/1/28 114/1/109 113/1/172 112/1/173
f 111/1/10 115/1/103 113/1/104 114/1/174
f 116/1/67 120/1/175 121/1/175 124/1/67
f 117/1/36 122/1/36 121/1/176 120/1/176
f 118/1/36 123/1/176 121/1/176 122/1/36
f 119/1/74 124/1/67 121/1/175 123/1/175
f 125/1/5 128/1/132 129/1/133 131/1/134
f 126/1/40 130/1/177 129/1/136 128/1/137
f 127/1/51 131/1/129 129/1/130 130/1/178
f 132/1/43 136/1/179 137/1/179 140/1/43
f 133/1/48 138/1/48 137/1/180 136/1/180
f 134/1/48 139/1/180 137/1/180 138/1/48
f 135/1/43 140/1/43 137/1/179 139/1/179
f 141/1/8 144/1/181 145/1/155 147/1/182
f 142/1/37 146/1/183 145/1/149 144/1/150
f 143/1/31 147/1/184 145/1/153 146/1/185
f 148/1/52 152/1/52 153/1/186 156/1/186
f 149/1/52 154/1/187 153/1/186 152/1/52
f 150/1/38 155/1/38 153/1/188 154/1/188
f 151/1/38 156/1/188 153/1/188 155/1/38
f 157/1/16 160/1/189 161/1/80 163/1/190
f 158/1/1 162/1/191 161/1/83 160/1/84
f 159/1/34 163/1/76 161/1/77 162/1/78
f 164/1/35 167/1/192 168/1/139 170/1/140
f 165/1/64 169/1/142 168/1/143 167/1/193
f 166/1/6 170/1/145 168/1/146 169/1/147
f 171/1/15 174/1/194 175/1/92 177/1/93
f 172/1/9 176/1/85 175/1/195 174/1/87
f 173/1/2 177/1/88 175/1/89 176/1/90
f 178/1/7 181/1/196 182/1/161 184/1/162
f 179/1/63 183/1/197 182/1/163 181/1/164
f 180/1/44 184/1/198 182/1/199 183/1/200
f 185/1/73 190/1/201 191/1/202 195/1/203
f 186/1/33 192/1/204 191/1/205 190/1/206
f 187/1/54 193/1/207 191/1/208 192/1/209
f 188/1/46 194/1/210 191/1/202 193/1/211
f 189/1/66 195/1/203 191/1/202 194/1/210
f 196/1/69 201/1/212 202/1/213 206/1/214
f 197/1/25 203/1/215 202/1/213 201/1/212
f 198/1/47 204/1/216 202/1/213 203/1/215
f 199/1/57 205/1/217 202/1/218 204/1/219
f 200/1/61 206/1/220 202/1/221 205/1/222
f 207/1/29 211/1/223 212/1/223 215/1/29
f 208/1/45 213/1/45 212/1/224 211/1/224
f 209/1/24 214/1/224 212/1/224 213/1/45
f 210/1/39 215/1/29 212/1/223 214/1/223
f 216/1/29 220/1/39 221/1/223 224/1/223
f 217/1/29 222/1/225 221/1/223 220/1/39
f 218/1/45 223/1/45 221/1/224 222/1/224
f 219/1/45 224/1/224 221/1/224 223/1/45
f 225/1/53 230/1/226 231/1/227 235/1/228
f 226/1/72 232/1/229 231/1/227 230/1/226
f 227/1/58 233/1/230 231/1/227 232/1/229
f 228/1/55 234/1/231 231/1/232 233/1/233
f 229/1/32 235/1/234 231/1/235 234/1/236
f 236/1/42 241/1/237 242/1/238 246/1/239
f 237/1/62 243/1/240 242/1/241 241/1/242
f 238/1/56 244/1/243 242/1/244 243/1/245
f 239/1/60 245/1/246 242/1/238 244/1/247
f 240/1/71 246/1/239 242/1/238 245/1/246
f 247/1/41 251/1/248 252/1/248 255/1/41
f 248/1/59 253/1/59 252/1/249 251/1/250
f 249/1/59 254/1/249 252/1/249 253/1/59
f 250/1/41 255/1/41 252/1/248 254/1/251
f 256/1/59 260/1/59 261/1/249 264/1/249
f 257/1/59 262/1/249 261/1/249 260/1/59
f 258/1/30 263/1/41 261/1/251 262/1/248
f 259/1/41 264/1/251 261/1/251 263/1/41
f 265/1/34 268/1/76 269/1/252 271/1/78
f 266/1/75 270/1/79 269/1/80 268/1/81
f 267/1/1 271/1/253 269/1/83 270/1/254
f 272/1/35 275/1/192 276/1/139 278/1/140
f 273/1/64 277/1/142 276/1/255 275/1/193
f 274/1/6 278/1/256 276/1/146 277/1/147
f 279/1/44 282/1/158 283/1/159 285/1/200
f 280/1/7 284/1/257 283/1/161 282/1/162
f 281/1/63 285/1/258 283/1/163 284/1/259
f 286/1/70 289/1/194 290/1/260 292/1/261
f 287/1/9 291/1/85 290/1/195 289/1/87
f 288/1/65 292/1/262 290/1/263 291/1/90
f 17/1/13 2/1/16 4/1/81 21/1/100
f 21/1/96 4/1/76 1/1/34 15/1/50
f 22/1/10 8/1/9 14/1/87 25/1/103
f 25/1/108 14/1/91 10/1/15 23/1/14
f 9/1/2 3/1/1 6/1/84 13/1/88
f 13/1/93 6/1/79 2/1/16 10/1/15
f 16/1/19 24/1/18 27/1/111 20/1/97
f 20/1/102 27/1/106 23/1/14 17/1/13
f 32/1/115 39/1/117 42/1/117 37/1/115
f 37/1/115 42/1/117 38/1/117 29/1/112
f 47/1/11 56/1/12 64/1/12 51/1/11
f 51/1/11 64/1/12 59/1/12 48/1/11
f 57/1/126 41/1/121 45/1/119 62/1/3
f 62/1/3 45/1/119 40/1/4 58/1/3
f 30/1/20 50/1/21 54/1/21 35/1/20
f 35/1/20 54/1/21 49/1/21 31/1/20
f 8/1/9 59/1/12 63/1/125 11/1/85
f 11/1/90 63/1/127 58/1/3 9/1/2
f 39/1/117 1/1/34 7/1/78 44/1/118
f 44/1/120 7/1/82 3/1/1 40/1/4
f 31/1/20 16/1/19 18/1/99 36/1/116
f 36/1/114 18/1/94 15/1/50 32/1/115
f 48/1/11 22/1/10 28/1/105 53/1/123
f 53/1/124 28/1/109 24/1/18 49/1/21
f 65/1/128 72/1/138 78/1/140 68/1/129
f 68/1/134 78/1/145 74/1/6 66/1/5
f 81/1/8 87/1/7 89/1/162 85/1/154
f 85/1/150 89/1/158 86/1/157 79/1/148
f 87/1/7 74/1/6 77/1/147 91/1/160
f 91/1/164 77/1/142 73/1/141 88/1/27
f 66/1/5 81/1/8 84/1/156 70/1/132
f 70/1/137 84/1/152 80/1/151 67/1/135
s 0
f 50/1/17 80/1/17 82/1/17 55/1/17
f 55/1/17 82/1/17 79/1/17 47/1/17
f 88/1/264 57/1/265 60/1/17 92/1/266
f 92/1/17 60/1/17 56/1/17 86/1/17
f 72/1/17 38/1/17 46/1/17 75/1/267
f 75/1/17 46/1/122 41/1/17 73/1/268
f 67/1/17 30/1/269 33/1/264 71/1/269
f 71/1/264 33/1/270 29/1/264 65/1/271
s 1
f 93/1/23 100/1/22 108/1/170 96/1/100
f 96/1/96 108/1/171 103/1/49 94/1/50
f 111/1/10 117/1/36 120/1/176 115/1/103
f 115/1/108 120/1/175 116/1/67 109/1/14
f 274/1/6 225/1/53 235/1/228 278/1/256
f 278/1/140 235/1/234 229/1/32 272/1/35
f 178/1/7 274/1/6 277/1/147 181/1/196
f 181/1/164 277/1/142 273/1/64 179/1/63
f 127/1/51 133/1/48 136/1/180 131/1/129
f 131/1/134 136/1/179 132/1/43 125/1/5
f 141/1/8 148/1/52 156/1/186 144/1/181
f 144/1/150 156/1/188 151/1/38 142/1/37
f 157/1/16 286/1/70 292/1/261 160/1/189
f 160/1/84 292/1/262 288/1/65 158/1/1
f 164/1/35 159/1/34 162/1/78 167/1/192
f 167/1/193 162/1/191 158/1/1 165/1/64
f 110/1/28 143/1/31 146/1/185 114/1/109
f 114/1/174 146/1/183 142/1/37 111/1/10
f 150/1/38 118/1/36 122/1/36 155/1/38
f 155/1/38 122/1/36 117/1/36 151/1/38
f 133/1/48 103/1/49 107/1/49 138/1/48
f 138/1/48 107/1/49 102/1/49 134/1/48
f 126/1/40 95/1/19 98/1/99 130/1/177
f 130/1/178 98/1/94 94/1/50 127/1/51
f 185/1/73 266/1/75 268/1/81 190/1/201
f 190/1/206 268/1/76 265/1/34 186/1/33
f 266/1/75 171/1/15 177/1/93 270/1/79
f 270/1/254 177/1/88 173/1/2 267/1/1
f 281/1/63 288/1/65 291/1/90 285/1/258
f 285/1/200 291/1/85 287/1/9 279/1/44
f 179/1/63 173/1/2 176/1/90 183/1/197
f 183/1/200 176/1/85 172/1/9 180/1/44
f 286/1/70 196/1/69 206/1/214 289/1/194
f 289/1/87 206/1/220 200/1/61 287/1/9
f 280/1/7 166/1/6 169/1/147 284/1/257
f 284/1/259 169/1/142 165/1/64 281/1/63
f 236/1/42 280/1/7 282/1/162 241/1/237
f 241/1/242 282/1/158 279/1/44 237/1/62
f 267/1/1 273/1/64 275/1/193 271/1/253
f 271/1/78 275/1/192 272/1/35 265/1/34
f 207/1/29 216/1/29 224/1/223 211/1/223
f 211/1/224 224/1/224 219/1/45 208/1/45
f 218/1/45 189/1/66 194/1/210 223/1/45
f 223/1/45 194/1/210 188/1/46 219/1/45
f 187/1/54 199/1/57 204/1/219 193/1/207
f 193/1/211 204/1/216 198/1/47 188/1/46
f 197/1/25 209/1/24 213/1/45 203/1/215
f 203/1/215 213/1/45 208/1/45 198/1/47
f 210/1/39 247/1/41 255/1/41 215/1/29
f 215/1/29 255/1/41 250/1/41 207/1/29
f 249/1/59 256/1/59 264/1/249 254/1/249
f 254/1/251 264/1/251 259/1/41 250/1/41
f 258/1/30 217/1/29 220/1/39 263/1/41
f 263/1/41 220/1/39 216/1/29 259/1/41
f 186/1/33 229/1/32 234/1/236 192/1/204
f 192/1/209 234/1/231 228/1/55 187/1/54
f 227/1/58 239/1/60 244/1/247 233/1/230
f 233/1/233 244/1/243 238/1/56 228/1/55
f 237/1/62 200/1/61 205/1/222 243/1/240
f 243/1/245 205/1/217 199/1/57 238/1/56
f 226/1/72 257/1/59 260/1/59 232/1/229
f 232/1/229 260/1/59 256/1/59 227/1/58
f 248/1/59 240/1/71 245/1/246 253/1/59
f 253/1/59 245/1/246 239/1/60 249/1/59
f 100/1/22 197/1/25 201/1/212 104/1/68
f 104/1/68 201/1/212 196/1/69 101/1/68
f 240/1/71 132/1/43 140/1/43 246/1/239
f 246/1/239 140/1/43 135/1/43 236/1/42
f 95/1/19 210/1/39 214/1/223 99/1/168
f 99/1/166 214/1/224 209/1/24 93/1/23
f 189/1/66 116/1/67 124/1/67 195/1/203
f 195/1/203 124/1/67 119/1/74 185/1/73
f 148/1/52 226/1/72 230/1/226 152/1/52
f 152/1/52 230/1/226 225/1/53 149/1/52
f 217/1/29 110/1/28 112/1/173 222/1/225
f 222/1/224 112/1/106 109/1/14 218/1/45
f 257/1/59 141/1/8 147/1/182 262/1/249
f 262/1/248 147/1/184 143/1/31 258/1/30
f 125/1/5 248/1/59 251/1/250 128/1/132
f 128/1/137 251/1/248 247/1/41 126/1/40
f 180/1/44 150/1/38 154/1/188 184/1/198
f 184/1/162 154/1/187 149/1/52 178/1/7
f 159/1/34 102/1/49 106/1/171 163/1/76
f 163/1/190 106/1/169 101/1/68 157/1/16
f 166/1/6 135/1/43 139/1/179 170/1/145
f 170/1/140 139/1/180 134/1/48 164/1/35
f 118/1/36 172/1/9 174/1/87 123/1/176
f 123/1/175 174/1/194 171/1/15 119/1/74
f 15/1/50 1/1/34 39/1/117 32/1/115
f 295/1/272 332/1/273 350/1/274 301/1/275
f 358/1/276 373/1/277 379/1/278 366/1/279
f 300/1/280 351/1/281 340/1/282 314/1/283
f 309/1/284 294/1/285 302/1/286 315/1/287
s 0
f 321/1/17 357/1/17 364/1/17 330/1/17
s 1
f 316/1/288 341/1/289 323/1/290 308/1/291
f 392/1/292 489/1/293 501/1/294 385/1/284
s 0
f 348/1/17 378/1/17 371/1/17 339/1/17
f 342/1/17 372/1/17 359/1/17 322/1/17
f 333/1/17 365/1/17 380/1/17 349/1/17
s 1
f 402/1/295 435/1/296 550/1/297 509/1/298
f 521/1/299 564/1/300 557/1/301 478/1/302
f 409/1/303 443/1/304 434/1/305 403/1/283
f 502/1/298 539/1/297 418/1/306 387/1/291
f 528/1/307 572/1/308 458/1/279 427/1/309
f 410/1/303 464/1/280 472/1/310 442/1/304
f 511/1/294 500/1/294 490/1/311 480/1/312
f 426/1/313 456/1/300 451/1/301 394/1/314
f 386/1/315 419/1/316 425/1/313 395/1/314
f 441/1/317 470/1/278 566/1/279 517/1/318
f 479/1/319 491/1/320 530/1/321 520/1/322
f 519/1/323 531/1/324 541/1/325 548/1/326
f 492/1/327 579/1/280 571/1/328 529/1/329
f 499/1/298 508/1/298 551/1/330 542/1/297
f 559/1/331 565/1/332 471/1/333 465/1/275
f 450/1/331 457/1/332 573/1/333 580/1/275
f 481/1/334 408/1/335 401/1/336 510/1/294
f 393/1/292 449/1/285 578/1/286 488/1/337
f 417/1/276 540/1/338 532/1/339 424/1/309
f 549/1/326 433/1/277 440/1/317 518/1/340
f 477/1/341 558/1/285 463/1/286 411/1/335
f 293/1/301 299/1/342 297/1/343 296/1/344
f 294/1/285 296/1/345 297/1/346 298/1/347
f 295/1/272 298/1/348 297/1/349 299/1/350
f 300/1/280 306/1/351 304/1/352 303/1/353
f 301/1/275 303/1/354 304/1/355 305/1/356
f 302/1/286 305/1/357 304/1/358 306/1/359
f 307/1/360 313/1/361 311/1/362 310/1/363
f 308/1/291 310/1/364 311/1/365 312/1/366
f 309/1/284 312/1/367 311/1/368 313/1/369
f 314/1/283 320/1/370 318/1/371 317/1/372
f 315/1/287 317/1/373 318/1/374 319/1/375
f 316/1/288 319/1/376 318/1/377 320/1/378
f 321/1/379 329/1/380 326/1/381 325/1/382
f 322/1/383 325/1/384 326/1/385 327/1/290
f 323/1/290 327/1/290 326/1/385 328/1/386
f 324/1/380 328/1/381 326/1/381 329/1/380
f 330/1/387 338/1/388 335/1/388 334/1/387
f 331/1/387 334/1/387 335/1/388 336/1/388
f 332/1/273 336/1/389 335/1/389 337/1/273
f 333/1/273 337/1/273 335/1/389 338/1/390
f 339/1/282 347/1/391 344/1/391 343/1/282
f 340/1/282 343/1/282 344/1/391 345/1/391
f 341/1/289 345/1/392 344/1/392 346/1/289
f 342/1/289 346/1/289 344/1/392 347/1/392
f 348/1/393 356/1/281 353/1/394 352/1/395
f 349/1/396 352/1/397 353/1/397 354/1/274
f 350/1/274 354/1/274 353/1/397 355/1/397
f 351/1/281 355/1/395 353/1/394 356/1/281
f 357/1/398 363/1/399 361/1/400 360/1/401
f 358/1/276 360/1/402 361/1/403 362/1/404
f 359/1/405 362/1/406 361/1/407 363/1/407
f 364/1/408 370/1/409 368/1/410 367/1/410
f 365/1/411 367/1/412 368/1/412 369/1/413
f 366/1/279 369/1/414 368/1/415 370/1/416
f 371/1/417 377/1/418 375/1/419 374/1/419
f 372/1/420 374/1/421 375/1/421 376/1/422
f 373/1/277 376/1/423 375/1/424 377/1/425
f 378/1/426 384/1/427 382/1/427 381/1/428
f 379/1/278 381/1/429 382/1/430 383/1/431
f 380/1/432 383/1/433 382/1/434 384/1/434
f 385/1/284 391/1/435 389/1/436 388/1/369
f 386/1/315 388/1/361 389/1/437 390/1/363
f 387/1/291 390/1/364 389/1/438 391/1/439
f 392/1/292 400/1/440 397/1/440 396/1/292
f 393/1/292 396/1/292 397/1/440 398/1/440
f 394/1/314 398/1/441 397/1/441 399/1/314
f 395/1/314 399/1/314 397/1/441 400/1/441
f 401/1/336 407/1/373 405/1/442 404/1/443
f 402/1/295 404/1/444 405/1/445 406/1/446
f 403/1/283 406/1/370 405/1/371 407/1/372
f 408/1/335 416/1/447 413/1/448 412/1/448
f 409/1/303 412/1/449 413/1/449 414/1/303
f 410/1/303 414/1/303 413/1/449 415/1/449
f 411/1/335 415/1/448 413/1/448 416/1/447
f 417/1/276 423/1/402 421/1/403 420/1/450
f 418/1/306 420/1/406 421/1/451 422/1/452
f 419/1/316 422/1/453 421/1/400 423/1/401
f 424/1/309 432/1/309 429/1/454 428/1/454
f 425/1/313 428/1/455 429/1/455 430/1/313
f 426/1/313 430/1/313 429/1/455 431/1/455
f 427/1/309 431/1/454 429/1/454 432/1/309
f 433/1/277 439/1/423 437/1/424 436/1/425
f 434/1/305 436/1/418 437/1/419 438/1/456
f 435/1/296 438/1/457 437/1/458 439/1/459
f 440/1/317 448/1/460 445/1/460 444/1/317
f 441/1/317 444/1/317 445/1/460 446/1/460
f 442/1/304 446/1/461 445/1/462 447/1/304
f 443/1/304 447/1/304 445/1/462 448/1/462
f 449/1/285 455/1/463 453/1/464 452/1/465
f 450/1/331 452/1/466 453/1/349 454/1/350
f 451/1/301 454/1/342 453/1/467 455/1/344
f 456/1/300 462/1/468 460/1/469 459/1/470
f 457/1/332 459/1/471 460/1/472 461/1/473
f 458/1/279 461/1/474 460/1/475 462/1/416
f 463/1/286 469/1/476 467/1/477 466/1/359
f 464/1/280 466/1/351 467/1/352 468/1/478
f 465/1/275 468/1/354 467/1/355 469/1/356
f 470/1/278 476/1/429 474/1/479 473/1/480
f 471/1/333 473/1/481 474/1/434 475/1/482
f 472/1/310 475/1/483 474/1/427 476/1/428
f 477/1/341 487/1/484 483/1/485 482/1/486
f 478/1/302 482/1/487 483/1/488 484/1/489
f 479/1/319 484/1/490 483/1/491 485/1/492
f 480/1/312 485/1/493 483/1/485 486/1/494
f 481/1/334 486/1/494 483/1/485 487/1/484
f 488/1/337 498/1/495 494/1/496 493/1/497
f 489/1/293 493/1/497 494/1/496 495/1/498
f 490/1/311 495/1/498 494/1/496 496/1/499
f 491/1/320 496/1/500 494/1/501 497/1/502
f 492/1/327 497/1/503 494/1/504 498/1/505
f 499/1/298 507/1/298 504/1/506 503/1/506
f 500/1/294 503/1/507 504/1/507 505/1/294
f 501/1/294 505/1/294 504/1/507 506/1/507
f 502/1/298 506/1/506 504/1/506 507/1/298
f 508/1/298 516/1/506 513/1/506 512/1/298
f 509/1/298 512/1/298 513/1/506 514/1/506
f 510/1/294 514/1/508 513/1/507 515/1/294
f 511/1/294 515/1/294 513/1/507 516/1/507
f 517/1/318 527/1/509 523/1/510 522/1/511
f 518/1/340 522/1/511 523/1/510 524/1/512
f 519/1/323 524/1/512 523/1/510 525/1/513
f 520/1/322 525/1/514 523/1/515 526/1/516
f 521/1/299 526/1/517 523/1/518 527/1/519
f 528/1/307 538/1/520 534/1/521 533/1/522
f 529/1/329 533/1/523 534/1/524 535/1/525
f 530/1/321 535/1/526 534/1/527 536/1/528
f 531/1/324 536/1/529 534/1/521 537/1/530
f 532/1/339 537/1/530 534/1/521 538/1/520
f 539/1/297 547/1/297 544/1/531 543/1/531
f 540/1/338 543/1/532 544/1/533 545/1/326
f 541/1/325 545/1/326 544/1/533 546/1/533
f 542/1/297 546/1/531 544/1/531 547/1/297
f 548/1/326 556/1/533 553/1/533 552/1/326
f 549/1/326 552/1/326 553/1/533 554/1/533
f 550/1/297 554/1/531 553/1/531 555/1/297
f 551/1/330 555/1/297 553/1/531 556/1/531
f 557/1/301 563/1/342 561/1/343 560/1/344
f 558/1/285 560/1/345 561/1/346 562/1/347
f 559/1/331 562/1/466 561/1/534 563/1/350
f 564/1/300 570/1/468 568/1/469 567/1/470
f 565/1/332 567/1/535 568/1/412 569/1/473
f 566/1/279 569/1/536 568/1/537 570/1/538
f 571/1/328 577/1/539 575/1/427 574/1/428
f 572/1/308 574/1/429 575/1/479 576/1/540
f 573/1/333 576/1/541 575/1/542 577/1/482
f 578/1/286 584/1/476 582/1/358 581/1/359
f 579/1/280 581/1/351 582/1/352 583/1/478
f 580/1/275 583/1/354 582/1/543 584/1/356
f 309/1/284 313/1/369 296/1/345 294/1/285
f 313/1/361 307/1/360 293/1/301 296/1/344
f 314/1/283 317/1/372 306/1/351 300/1/280
f 317/1/373 315/1/287 302/1/286 306/1/359
f 301/1/275 305/1/356 298/1/348 295/1/272
f 305/1/357 302/1/286 294/1/285 298/1/347
f 308/1/291 312/1/366 319/1/376 316/1/288
f 312/1/367 309/1/284 315/1/287 319/1/375
f 324/1/380 329/1/380 334/1/387 331/1/387
f 329/1/380 321/1/379 330/1/387 334/1/387
f 339/1/282 343/1/282 356/1/281 348/1/393
f 343/1/282 340/1/282 351/1/281 356/1/281
f 349/1/396 354/1/274 337/1/273 333/1/273
f 354/1/274 350/1/274 332/1/273 337/1/273
f 322/1/383 327/1/290 346/1/289 342/1/289
f 327/1/290 323/1/290 341/1/289 346/1/289
f 300/1/280 303/1/353 355/1/395 351/1/281
f 303/1/354 301/1/275 350/1/274 355/1/397
f 331/1/387 336/1/388 299/1/342 293/1/301
f 336/1/389 332/1/273 295/1/272 299/1/350
f 323/1/290 328/1/386 310/1/364 308/1/291
f 328/1/381 324/1/380 307/1/360 310/1/363
f 340/1/282 345/1/391 320/1/370 314/1/283
f 345/1/392 341/1/289 316/1/288 320/1/378
f 357/1/398 360/1/401 370/1/409 364/1/408
f 360/1/402 358/1/276 366/1/279 370/1/416
f 373/1/277 377/1/425 381/1/429 379/1/278
f 377/1/418 371/1/417 378/1/426 381/1/428
f 379/1/278 383/1/431 369/1/414 366/1/279
f 383/1/433 380/1/432 365/1/411 369/1/413
f 358/1/276 362/1/404 376/1/423 373/1/277
f 362/1/406 359/1/405 372/1/420 376/1/422
s 0
f 342/1/17 347/1/17 374/1/17 372/1/17
f 347/1/17 339/1/17 371/1/17 374/1/17
f 380/1/17 384/1/17 352/1/17 349/1/17
f 384/1/17 378/1/17 348/1/17 352/1/17
f 364/1/17 367/1/17 338/1/17 330/1/17
f 367/1/17 365/1/17 333/1/17 338/1/17
f 359/1/266 363/1/264 325/1/384 322/1/264
f 363/1/399 357/1/264 321/1/544 325/1/264
s 1
f 385/1/284 388/1/369 400/1/440 392/1/292
f 388/1/361 386/1/315 395/1/314 400/1/441
f 403/1/283 407/1/372 412/1/449 409/1/303
f 407/1/373 401/1/336 408/1/335 412/1/448
f 566/1/279 570/1/538 527/1/509 517/1/318
f 570/1/468 564/1/300 521/1/299 527/1/519
f 470/1/278 473/1/480 569/1/536 566/1/279
f 473/1/481 471/1/333 565/1/332 569/1/473
f 419/1/316 423/1/401 428/1/455 425/1/313
f 423/1/402 417/1/276 424/1/309 428/1/454
f 433/1/277 436/1/425 448/1/460 440/1/317
f 436/1/418 434/1/305 443/1/304 448/1/462
f 449/1/285 452/1/465 584/1/476 578/1/286
f 452/1/466 450/1/331 580/1/275 584/1/356
f 456/1/300 459/1/470 454/1/342 451/1/301
f 459/1/471 457/1/332 450/1/331 454/1/350
f 402/1/295 406/1/446 438/1/457 435/1/296
f 406/1/370 403/1/283 434/1/305 438/1/456
f 442/1/304 447/1/304 414/1/303 410/1/303
f 447/1/304 443/1/304 409/1/303 414/1/303
f 425/1/313 430/1/313 399/1/314 395/1/314
f 430/1/313 426/1/313 394/1/314 399/1/314
f 418/1/306 422/1/452 390/1/364 387/1/291
f 422/1/453 419/1/316 386/1/315 390/1/363
f 477/1/341 482/1/486 560/1/345 558/1/285
f 482/1/487 478/1/302 557/1/301 560/1/344
f 558/1/285 562/1/347 469/1/476 463/1/286
f 562/1/466 559/1/331 465/1/275 469/1/356
f 573/1/333 577/1/482 583/1/354 580/1/275
f 577/1/539 571/1/328 579/1/280 583/1/478
f 471/1/333 475/1/482 468/1/354 465/1/275
f 475/1/483 472/1/310 464/1/280 468/1/478
f 578/1/286 581/1/359 498/1/495 488/1/337
f 581/1/351 579/1/280 492/1/327 498/1/505
f 572/1/308 576/1/540 461/1/474 458/1/279
f 576/1/541 573/1/333 457/1/332 461/1/473
f 528/1/307 533/1/522 574/1/429 572/1/308
f 533/1/523 529/1/329 571/1/328 574/1/428
f 559/1/331 563/1/350 567/1/535 565/1/332
f 563/1/342 557/1/301 564/1/300 567/1/470
f 499/1/298 503/1/506 516/1/506 508/1/298
f 503/1/507 500/1/294 511/1/294 516/1/507
f 510/1/294 515/1/294 486/1/494 481/1/334
f 515/1/294 511/1/294 480/1/312 486/1/494
f 479/1/319 485/1/492 496/1/500 491/1/320
f 485/1/493 480/1/312 490/1/311 496/1/499
f 489/1/293 495/1/498 505/1/294 501/1/294
f 495/1/498 490/1/311 500/1/294 505/1/294
f 502/1/298 507/1/298 547/1/297 539/1/297
f 507/1/298 499/1/298 542/1/297 547/1/297
f 541/1/325 546/1/533 556/1/533 548/1/326
f 546/1/531 542/1/297 551/1/330 556/1/531
f 550/1/297 555/1/297 512/1/298 509/1/298
f 555/1/297 551/1/330 508/1/298 512/1/298
f 478/1/302 484/1/489 526/1/517 521/1/299
f 484/1/490 479/1/319 520/1/322 526/1/516
f 519/1/323 525/1/513 536/1/529 531/1/324
f 525/1/514 520/1/322 530/1/321 536/1/528
f 529/1/329 535/1/525 497/1/503 492/1/327
f 535/1/526 530/1/321 491/1/320 497/1/502
f 518/1/340 524/1/512 552/1/326 549/1/326
f 524/1/512 519/1/323 548/1/326 552/1/326
f 540/1/338 545/1/326 537/1/530 532/1/339
f 545/1/326 541/1/325 531/1/324 537/1/530
f 392/1/292 396/1/292 493/1/497 489/1/293
f 396/1/292 393/1/292 488/1/337 493/1/497
f 532/1/339 538/1/520 432/1/309 424/1/309
f 538/1/520 528/1/307 427/1/309 432/1/309
f 387/1/291 391/1/439 506/1/506 502/1/298
f 391/1/435 385/1/284 501/1/294 506/1/507
f 481/1/334 487/1/484 416/1/447 408/1/335
f 487/1/484 477/1/341 411/1/335 416/1/447
f 440/1/317 444/1/317 522/1/511 518/1/340
f 444/1/317 441/1/317 517/1/318 522/1/511
f 509/1/298 514/1/506 404/1/444 402/1/295
f 514/1/508 510/1/294 401/1/336 404/1/443
f 549/1/326 554/1/533 439/1/423 433/1/277
f 554/1/531 550/1/297 435/1/296 439/1/459
f 417/1/276 420/1/450 543/1/532 540/1/338
f 420/1/406 418/1/306 539/1/297 543/1/531
f 472/1/310 476/1/428 446/1/461 442/1/304
f 476/1/429 470/1/278 441/1/317 446/1/460
f 451/1/301 455/1/344 398/1/441 394/1/314
f 455/1/463 449/1/285 393/1/292 398/1/440
f 458/1/279 462/1/416 431/1/454 427/1/309
f 462/1/468 456/1/300 426/1/313 431/1/455
f 410/1/303 415/1/449 466/1/351 464/1/280
f 415/1/448 411/1/335 463/1/286 466/1/359
f 307/1/360 324/1/380 331/1/387 293/1/301
s 0
f 586/2/17 622/2/17 635/2/17 601/2/17
s 1
f 593/2/545 587/2/546 600/2/547 608/2/548
s 0
f 607/2/17 629/2/549 614/2/17 594/2/550
s 1
f 615/2/551 628/2/552 636/2/553 621/2/554
s 0
f 599/2/17 634/2/17 627/2/17 606/2/17
s 1
f 585/2/555 588/2/556 589/2/556 591/2/557
f 586/2/558 590/2/559 589/2/560 588/2/560
f 587/2/546 591/2/561 589/2/562 590/2/563
f 592/2/564 595/2/565 596/2/566 598/2/566
f 593/2/545 597/2/567 596/2/568 595/2/569
f 594/2/550 598/2/570 596/2/570 597/2/571
f 599/2/572 602/2/573 603/2/574 605/2/574
f 600/2/547 604/2/575 603/2/576 602/2/577
f 601/2/578 605/2/579 603/2/579 604/2/580
f 606/2/581 609/2/582 610/2/582 612/2/583
f 607/2/584 611/2/585 610/2/586 609/2/587
f 608/2/548 612/2/588 610/2/589 611/2/590
f 613/2/591 616/2/592 617/2/592 619/2/593
f 614/2/594 618/2/595 617/2/596 616/2/596
f 615/2/551 619/2/597 617/2/598 618/2/599
f 620/2/600 623/2/601 624/2/602 626/2/602
f 621/2/554 625/2/603 624/2/604 623/2/605
f 622/2/606 626/2/607 624/2/607 625/2/608
f 627/2/609 630/2/610 631/2/611 633/2/611
f 628/2/552 632/2/612 631/2/613 630/2/614
f 629/2/549 633/2/615 631/2/616 632/2/617
f 634/2/618 637/2/619 638/2/619 640/2/620
f 635/2/621 639/2/622 638/2/623 637/2/623
f 636/2/553 640/2/624 638/2/625 639/2/626
f 592/2/564 585/2/555 591/2/557 595/2/565
f 595/2/569 591/2/561 587/2/546 593/2/545
f 608/2/548 600/2/547 602/2/577 612/2/588
f 612/2/583 602/2/573 599/2/572 606/2/581
f 593/2/545 608/2/548 611/2/590 597/2/567
f 597/2/571 611/2/585 607/2/584 594/2/550
f 600/2/547 587/2/546 590/2/563 604/2/575
f 604/2/580 590/2/559 586/2/558 601/2/578
f 615/2/551 621/2/554 623/2/605 619/2/597
f 619/2/593 623/2/601 620/2/600 613/2/591
f 627/2/609 634/2/618 640/2/620 630/2/610
f 630/2/614 640/2/624 636/2/553 628/2/552
f 614/2/594 629/2/549 632/2/617 618/2/595
f 618/2/599 632/2/612 628/2/552 615/2/551
f 635/2/621 622/2/606 625/2/608 639/2/622
f 639/2/626 625/2/603 621/2/554 636/2/553
s 0
f 585/2/17 620/2/17 626/2/17 588/2/17
f 588/2/17 626/2/17 622/2/17 586/2/17
f 613/2/17 592/2/17 598/2/17 616/2/17
f 616/2/17 598/2/17 594/2/17 614/2/594
f 601/2/17 635/2/17 637/2/17 605/2/17
f 605/2/17 637/2/17 634/2/17 599/2/17
f 606/2/17 627/2/17 633/2/17 609/2/587
f 609/2/17 633/2/627 629/2/17 607/2/584
f 592/2/17 613/2/17 620/2/17 585/2/17
f 642/2/17 657/2/17 691/2/17 678/2/17
s 1
f 649/2/551 664/2/552 656/2/553 643/2/554
s 0
f 663/2/549 650/2/17 670/2/550 685/2/17
s 1
f 671/2/545 677/2/546 692/2/547 684/2/548
s 0
f 655/2/17 662/2/17 683/2/17 690/2/17
s 1
f 641/2/628 647/2/601 645/2/602 644/2/602
f 642/2/606 644/2/607 645/2/607 646/2/608
f 643/2/554 646/2/603 645/2/629 647/2/605
f 648/2/630 654/2/592 652/2/592 651/2/593
f 649/2/551 651/2/597 652/2/598 653/2/599
f 650/2/594 653/2/595 652/2/596 654/2/596
f 655/2/618 661/2/631 659/2/631 658/2/620
f 656/2/553 658/2/624 659/2/632 660/2/626
f 657/2/621 660/2/622 659/2/623 661/2/623
f 662/2/609 668/2/610 666/2/611 665/2/611
f 663/2/549 665/2/615 666/2/616 667/2/617
f 664/2/552 667/2/612 666/2/613 668/2/633
f 669/2/634 675/2/565 673/2/635 672/2/635
f 670/2/550 672/2/636 673/2/636 674/2/571
f 671/2/545 674/2/567 673/2/637 675/2/569
f 676/2/555 682/2/556 680/2/556 679/2/557
f 677/2/546 679/2/561 680/2/562 681/2/563
f 678/2/638 681/2/559 680/2/639 682/2/639
f 683/2/640 689/2/582 687/2/582 686/2/583
f 684/2/548 686/2/588 687/2/641 688/2/590
f 685/2/584 688/2/585 687/2/586 689/2/587
f 690/2/642 696/2/573 694/2/574 693/2/574
f 691/2/578 693/2/579 694/2/579 695/2/580
f 692/2/547 695/2/575 694/2/576 696/2/577
f 648/2/630 651/2/593 647/2/601 641/2/628
f 651/2/597 649/2/551 643/2/554 647/2/605
f 664/2/552 668/2/633 658/2/624 656/2/553
f 668/2/610 662/2/609 655/2/618 658/2/620
f 649/2/551 653/2/599 667/2/612 664/2/552
f 653/2/595 650/2/594 663/2/549 667/2/617
f 656/2/553 660/2/626 646/2/603 643/2/554
f 660/2/622 657/2/621 642/2/606 646/2/608
f 671/2/545 675/2/569 679/2/561 677/2/546
f 675/2/565 669/2/634 676/2/555 679/2/557
f 683/2/640 686/2/583 696/2/573 690/2/642
f 686/2/588 684/2/548 692/2/547 696/2/577
f 670/2/550 674/2/571 688/2/585 685/2/584
f 674/2/567 671/2/545 684/2/548 688/2/590
f 691/2/578 695/2/580 681/2/559 678/2/638
f 695/2/575 692/2/547 677/2/546 681/2/563
s 0
f 641/2/17 644/2/17 682/2/17 676/2/17
f 644/2/17 642/2/17 678/2/17 682/2/17
f 669/2/17 672/2/17 654/2/17 648/2/17
f 672/2/17 670/2/17 650/2/594 654/2/17
f 657/2/17 661/2/17 693/2/17 691/2/17
f 661/2/17 655/2/17 690/2/17 693/2/17
f 662/2/17 665/2/17 689/2/587 683/2/17
f 665/2/627 663/2/17 685/2/584 689/2/17
f 648/2/17 641/2/17 676/2/17 669/2/17
s 1
f 699/3/643 712/3/644 741/3/645 726/3/646
f 760/1/647 753/1/648 788/1/649 781/1/650
f 720/3/651 705/3/652 734/3/653 747/3/654
f 727/3/655 740/3/656 748/3/657 733/3/658
f 711/3/554 718/3/551 746/3/552 739/3/553
f 698/3/648 706/3/649 719/3/650 713/3/659
f 755/1/546 768/1/547 804/1/548 789/1/545
f 816/3/659 809/3/648 844/3/649 837/3/650
f 776/1/553 761/1/660 783/1/551 796/1/552
f 762/1/644 775/1/645 769/1/646 754/1/643
f 767/1/655 774/1/656 795/1/657 802/1/658
f 782/1/651 790/1/652 803/1/653 797/1/654
f 811/3/546 824/3/661 860/3/548 845/3/545
f 832/3/553 817/3/660 839/3/662 852/3/552
f 818/3/644 831/3/645 825/3/646 810/3/643
f 823/3/655 830/3/656 851/3/657 858/3/658
f 838/3/651 846/3/652 859/3/653 853/3/654
f 697/3/546 700/3/663 701/3/562 703/3/563
f 698/3/648 702/3/664 701/3/665 700/3/666
f 699/3/643 703/3/559 701/3/560 702/3/667
f 704/3/545 707/3/567 708/3/568 710/3/569
f 705/3/652 709/3/668 708/3/636 707/3/571
f 706/3/649 710/3/565 708/3/669 709/3/670
f 711/3/554 714/3/603 715/3/671 717/3/605
f 712/3/644 716/3/672 715/3/673 714/3/608
f 713/3/659 717/3/601 715/3/674 716/3/675
f 718/3/551 721/3/597 722/3/598 724/3/599
f 719/3/650 723/3/676 722/3/592 721/3/593
f 720/3/651 724/3/595 722/3/677 723/3/678
f 725/3/547 728/3/575 729/3/576 731/3/577
f 726/3/646 730/3/679 729/3/579 728/3/680
f 727/3/655 731/3/573 729/3/574 730/3/681
f 732/3/548 735/3/588 736/3/682 738/3/590
f 733/3/658 737/3/683 736/3/582 735/3/583
f 734/3/653 738/3/585 736/3/684 737/3/685
f 739/3/553 742/3/624 743/3/625 745/3/626
f 740/3/656 744/3/686 743/3/631 742/3/620
f 741/3/645 745/3/622 743/3/623 744/3/687
f 746/3/552 749/3/612 750/3/613 752/3/614
f 747/3/654 751/3/688 750/3/689 749/3/617
f 748/3/657 752/3/690 750/3/611 751/3/691
f 753/1/648 756/1/692 757/1/556 759/1/666
f 754/1/643 758/1/693 757/1/560 756/1/667
f 755/1/546 759/1/561 757/1/694 758/1/563
f 760/1/647 763/1/601 764/1/602 766/1/675
f 761/1/660 765/1/603 764/1/695 763/1/696
f 762/1/644 766/1/672 764/1/673 765/1/608
f 767/1/655 770/1/573 771/1/574 773/1/681
f 768/1/547 772/1/575 771/1/576 770/1/577
f 769/1/646 773/1/679 771/1/579 772/1/580
f 774/1/656 777/1/697 778/1/631 780/1/620
f 775/1/645 779/1/622 778/1/623 777/1/698
f 776/1/553 780/1/624 778/1/625 779/1/626
f 781/1/650 784/1/676 785/1/592 787/1/593
f 782/1/651 786/1/595 785/1/596 784/1/678
f 783/1/551 787/1/597 785/1/598 786/1/599
f 788/1/649 791/1/565 792/1/635 794/1/670
f 789/1/545 793/1/567 792/1/568 791/1/569
f 790/1/652 794/1/699 792/1/636 793/1/571
f 795/1/657 798/1/700 799/1/611 801/1/701
f 796/1/552 800/1/612 799/1/613 798/1/633
f 797/1/654 801/1/688 799/1/702 800/1/617
f 802/1/658 805/1/683 806/1/703 808/1/583
f 803/1/653 807/1/585 806/1/684 805/1/685
f 804/1/548 808/1/588 806/1/589 807/1/590
f 809/3/648 812/3/692 813/3/556 815/3/704
f 810/3/643 814/3/705 813/3/639 812/3/667
f 811/3/546 815/3/561 813/3/562 814/3/563
f 816/3/659 819/3/706 820/3/602 822/3/675
f 817/3/660 821/3/603 820/3/695 819/3/707
f 818/3/644 822/3/672 820/3/673 821/3/608
f 823/3/655 826/3/573 827/3/574 829/3/681
f 824/3/661 828/3/575 827/3/576 826/3/577
f 825/3/646 829/3/679 827/3/579 828/3/580
f 830/3/656 833/3/686 834/3/708 836/3/709
f 831/3/645 835/3/622 834/3/623 833/3/698
f 832/3/553 836/3/710 834/3/711 835/3/626
f 837/3/650 840/3/676 841/3/592 843/3/593
f 838/3/651 842/3/595 841/3/677 840/3/678
f 839/3/662 843/3/712 841/3/598 842/3/599
f 844/3/649 847/3/565 848/3/669 850/3/670
f 845/3/545 849/3/567 848/3/637 847/3/713
f 846/3/652 850/3/699 848/3/636 849/3/571
f 851/3/657 854/3/610 855/3/611 857/3/691
f 852/3/552 856/3/612 855/3/613 854/3/614
f 853/3/654 857/3/688 855/3/702 856/3/714
f 858/3/658 861/3/683 862/3/582 864/3/583
f 859/3/653 863/3/585 862/3/684 861/3/685
f 860/3/548 864/3/588 862/3/682 863/3/590
f 697/3/546 704/3/545 710/3/569 700/3/663
f 700/3/666 710/3/565 706/3/649 698/3/648
f 713/3/659 719/3/650 721/3/593 717/3/601
f 717/3/605 721/3/597 718/3/551 711/3/554
f 719/3/650 706/3/649 709/3/670 723/3/676
f 723/3/678 709/3/668 705/3/652 720/3/651
f 712/3/644 699/3/643 702/3/667 716/3/672
f 716/3/675 702/3/664 698/3/648 713/3/659
f 727/3/655 733/3/658 735/3/583 731/3/573
f 731/3/577 735/3/588 732/3/548 725/3/547
f 739/3/553 746/3/552 752/3/614 742/3/624
f 742/3/620 752/3/690 748/3/657 740/3/656
f 747/3/654 734/3/653 737/3/685 751/3/688
f 751/3/691 737/3/683 733/3/658 748/3/657
f 740/3/656 727/3/655 730/3/681 744/3/686
f 744/3/687 730/3/679 726/3/646 741/3/645
f 711/3/554 739/3/553 745/3/626 714/3/603
f 714/3/608 745/3/622 741/3/645 712/3/644
f 725/3/547 697/3/546 703/3/563 728/3/575
f 728/3/680 703/3/559 699/3/643 726/3/646
f 720/3/651 747/3/654 749/3/617 724/3/595
f 724/3/599 749/3/612 746/3/552 718/3/551
f 704/3/545 732/3/548 738/3/590 707/3/567
f 707/3/571 738/3/585 734/3/653 705/3/652
f 762/1/644 754/1/643 756/1/667 766/1/672
f 766/1/675 756/1/692 753/1/648 760/1/647
f 774/1/656 767/1/655 773/1/681 777/1/697
f 777/1/698 773/1/679 769/1/646 775/1/645
f 754/1/643 769/1/646 772/1/580 758/1/693
f 758/1/563 772/1/575 768/1/547 755/1/546
f 775/1/645 762/1/644 765/1/608 779/1/622
f 779/1/626 765/1/603 761/1/660 776/1/553
f 781/1/650 788/1/649 794/1/670 784/1/676
f 784/1/678 794/1/699 790/1/652 782/1/651
f 797/1/654 803/1/653 805/1/685 801/1/688
f 801/1/701 805/1/683 802/1/658 795/1/657
f 789/1/545 804/1/548 807/1/590 793/1/567
f 793/1/571 807/1/585 803/1/653 790/1/652
f 796/1/552 783/1/551 786/1/599 800/1/612
f 800/1/617 786/1/595 782/1/651 797/1/654
f 767/1/655 802/1/658 808/1/583 770/1/573
f 770/1/577 808/1/588 804/1/548 768/1/547
f 788/1/649 753/1/648 759/1/666 791/1/565
f 791/1/569 759/1/561 755/1/546 789/1/545
f 783/1/551 761/1/660 763/1/696 787/1/597
f 787/1/593 763/1/601 760/1/647 781/1/650
f 795/1/657 774/1/656 780/1/620 798/1/700
f 798/1/633 780/1/624 776/1/553 796/1/552
f 818/3/644 810/3/643 812/3/667 822/3/672
f 822/3/675 812/3/692 809/3/648 816/3/659
f 830/3/656 823/3/655 829/3/681 833/3/686
f 833/3/698 829/3/679 825/3/646 831/3/645
f 810/3/643 825/3/646 828/3/580 814/3/705
f 814/3/563 828/3/575 824/3/661 811/3/546
f 831/3/645 818/3/644 821/3/608 835/3/622
f 835/3/626 821/3/603 817/3/660 832/3/553
f 837/3/650 844/3/649 850/3/670 840/3/676
f 840/3/678 850/3/699 846/3/652 838/3/651
f 853/3/654 859/3/653 861/3/685 857/3/688
f 857/3/691 861/3/683 858/3/658 851/3/657
f 845/3/545 860/3/548 863/3/590 849/3/567
f 849/3/571 863/3/585 859/3/653 846/3/652
f 852/3/552 839/3/662 842/3/599 856/3/612
f 856/3/714 842/3/595 838/3/651 853/3/654
f 823/3/655 858/3/658 864/3/583 826/3/573
f 826/3/577 864/3/588 860/3/548 824/3/661
f 844/3/649 809/3/648 815/3/704 847/3/565
f 847/3/713 815/3/561 811/3/546 845/3/545
f 839/3/662 817/3/660 819/3/707 843/3/712
f 843/3/593 819/3/706 816/3/659 837/3/650
f 851/3/657 830/3/656 836/3/709 854/3/610
f 854/3/614 836/3/710 832/3/553 852/3/552
f 704/3/545 697/3/546 725/3/547 732/3/548
f 867/4/654 873/4/651 916/4/652 901/4/715
f 872/4/650 886/4/659 907/4/648 914/4/716
f 881/4/553 887/4/554 874/4/551 866/4/552
f 894/4/661 902/4/548 915/4/545 909/4/546
f 888/4/644 880/4/645 895/4/646 908/4/643
f 865/4/657 868/4/610 869/4/611 871/4/691
f 866/4/552 870/4/612 869/4/717 868/4/614
f 867/4/654 871/4/688 869/4/616 870/4/617
f 872/4/650 875/4/718 876/4/719 878/4/593
f 873/4/651 877/4/720 876/4/677 875/4/678
f 874/4/551 878/4/597 876/4/598 877/4/599
f 879/4/656 882/4/686 883/4/631 885/4/620
f 880/4/645 884/4/622 883/4/623 882/4/687
f 881/4/553 885/4/710 883/4/721 884/4/626
f 886/4/659 889/4/722 890/4/602 892/4/675
f 887/4/554 891/4/603 890/4/629 889/4/605
f 888/4/644 892/4/672 890/4/673 891/4/608
f 893/4/723 896/4/573 897/4/724 899/4/725
f 894/4/661 898/4/575 897/4/726 896/4/577
f 895/4/646 899/4/679 897/4/579 898/4/727
f 900/4/658 903/4/683 904/4/582 906/4/728
f 901/4/715 905/4/585 904/4/586 903/4/685
f 902/4/548 906/4/588 904/4/589 905/4/590
f 907/4/648 910/4/729 911/4/730 913/4/557
f 908/4/643 912/4/559 911/4/560 910/4/667
f 909/4/546 913/4/561 911/4/562 912/4/563
f 914/4/716 917/4/731 918/4/669 920/4/670
f 915/4/545 919/4/567 918/4/637 917/4/569
f 916/4/652 920/4/668 918/4/636 919/4/571
f 881/4/553 866/4/552 868/4/614 885/4/710
f 885/4/620 868/4/610 865/4/657 879/4/656
f 886/4/659 872/4/650 878/4/593 889/4/722
f 889/4/605 878/4/597 874/4/551 887/4/554
f 873/4/651 867/4/654 870/4/617 877/4/720
f 877/4/599 870/4/612 866/4/552 874/4/551
f 880/4/645 888/4/644 891/4/608 884/4/622
f 884/4/626 891/4/603 887/4/554 881/4/553
f 893/4/723 900/4/658 906/4/728 896/4/573
f 896/4/577 906/4/588 902/4/548 894/4/661
f 909/4/546 915/4/545 917/4/569 913/4/561
f 913/4/557 917/4/731 914/4/716 907/4/648
f 915/4/545 902/4/548 905/4/590 919/4/567
f 919/4/571 905/4/585 901/4/715 916/4/652
f 894/4/661 909/4/546 912/4/563 898/4/575
f 898/4/727 912/4/559 908/4/643 895/4/646
f 872/4/650 914/4/716 920/4/670 875/4/718
f 875/4/678 920/4/668 916/4/652 873/4/651
f 900/4/658 865/4/657 871/4/691 903/4/683
f 903/4/685 871/4/688 867/4/654 901/4/715
f 895/4/646 880/4/645 882/4/687 899/4/679
f 899/4/725 882/4/686 879/4/656 893/4/723
f 907/4/648 886/4/659 892/4/675 910/4/729
f 910/4/667 892/4/672 888/4/644 908/4/643
f 879/4/656 865/4/657 900/4/658 893/4/723
f 923/4/653 957/4/654 972/4/651 929/4/732
f 928/4/649 970/4/650 963/4/659 942/4/648
f 937/4/547 922/4/733 930/4/545 943/4/546
f 950/4/553 965/4/554 971/4/734 958/4/552
f 944/4/643 964/4/644 951/4/645 936/4/646
f 921/4/658 927/4/683 925/4/703 924/4/735
f 922/4/733 924/4/736 925/4/737 926/4/590
f 923/4/653 926/4/585 925/4/684 927/4/738
f 928/4/649 934/4/565 932/4/566 931/4/739
f 929/4/732 931/4/668 932/4/636 933/4/571
f 930/4/545 933/4/567 932/4/637 934/4/713
f 935/4/655 941/4/573 939/4/574 938/4/740
f 936/4/646 938/4/679 939/4/741 940/4/680
f 937/4/547 940/4/575 939/4/742 941/4/577
f 942/4/648 948/4/729 946/4/556 945/4/557
f 943/4/546 945/4/561 946/4/562 947/4/563
f 944/4/643 947/4/559 946/4/560 948/4/667
f 949/4/743 955/4/686 953/4/631 952/4/709
f 950/4/553 952/4/624 953/4/625 954/4/626
f 951/4/645 954/4/622 953/4/623 955/4/687
f 956/4/657 962/4/744 960/4/745 959/4/691
f 957/4/654 959/4/688 960/4/616 961/4/617
f 958/4/552 961/4/612 960/4/613 962/4/633
f 963/4/659 969/4/601 967/4/602 966/4/675
f 964/4/644 966/4/672 967/4/673 968/4/608
f 965/4/554 968/4/603 967/4/629 969/4/605
f 970/4/650 976/4/746 974/4/747 973/4/593
f 971/4/734 973/4/597 974/4/748 975/4/599
f 972/4/651 975/4/749 974/4/677 976/4/678
f 937/4/547 941/4/577 924/4/736 922/4/733
f 941/4/573 935/4/655 921/4/658 924/4/735
f 942/4/648 945/4/557 934/4/565 928/4/649
f 945/4/561 943/4/546 930/4/545 934/4/713
f 929/4/732 933/4/571 926/4/585 923/4/653
f 933/4/567 930/4/545 922/4/733 926/4/590
f 936/4/646 940/4/680 947/4/559 944/4/643
f 940/4/575 937/4/547 943/4/546 947/4/563
f 949/4/743 952/4/709 962/4/744 956/4/657
f 952/4/624 950/4/553 958/4/552 962/4/633
f 965/4/554 969/4/605 973/4/597 971/4/734
f 969/4/601 963/4/659 970/4/650 973/4/593
f 971/4/734 975/4/599 961/4/612 958/4/552
f 975/4/749 972/4/651 957/4/654 961/4/617
f 950/4/553 954/4/626 968/4/603 965/4/554
f 954/4/622 951/4/645 964/4/644 968/4/608
f 928/4/649 931/4/739 976/4/746 970/4/650
f 931/4/668 929/4/732 972/4/651 976/4/678
f 956/4/657 959/4/691 927/4/683 921/4/658
f 959/4/688 957/4/654 923/4/653 927/4/738
f 951/4/645 955/4/687 938/4/679 936/4/646
f 955/4/686 949/4/743 935/4/655 938/4/740
f 963/4/659 966/4/675 948/4/729 942/4/648
f 966/4/672 964/4/644 944/4/643 948/4/667
f 935/4/655 949/4/743 956/4/657 921/4/658
f 1051/4/750 995/4/553 1024/4/554 1070/4/751
f 1041/4/752 1049/4/753 1093/4/645 1078/4/646
f 1038/4/754 987/4/755 1016/4/545 1062/4/756
f 1003/4/757 985/4/758 1086/4/653 1099/4/759
f 978/4/547 1039/4/760 1061/4/756 1011/4/546
f 1048/4/761 1000/4/762 1098/4/552 1091/4/553
f 1009/4/648 1060/4/763 1071/4/764 1023/4/659
f 984/4/755 1037/4/765 1077/4/547 1084/4/548
f 1059/4/763 1018/4/649 1031/4/650 1068/4/766
f 994/4/767 979/4/646 1010/4/643 1025/4/644
f 986/4/758 1002/4/757 1032/4/651 1017/4/652
f 1001/4/762 1052/4/768 1069/4/751 1030/4/551
f 1079/4/655 1092/4/656 1100/4/657 1085/4/658
f 977/4/655 980/4/573 981/4/574 983/4/681
f 978/4/547 982/4/575 981/4/576 980/4/577
f 979/4/646 983/4/679 981/4/579 982/4/580
f 984/4/755 988/4/769 989/4/769 992/4/755
f 985/4/758 990/4/758 989/4/770 988/4/770
f 986/4/758 991/4/770 989/4/770 990/4/758
f 987/4/755 992/4/755 989/4/769 991/4/769
f 993/4/656 996/4/686 997/4/708 999/4/709
f 994/4/767 998/4/622 997/4/623 996/4/687
f 995/4/553 999/4/624 997/4/721 998/4/626
f 1000/4/762 1004/4/762 1005/4/771 1008/4/771
f 1001/4/762 1006/4/772 1005/4/771 1004/4/762
f 1002/4/757 1007/4/757 1005/4/773 1006/4/773
f 1003/4/757 1008/4/773 1005/4/773 1007/4/757
f 1009/4/648 1012/4/729 1013/4/556 1015/4/557
f 1010/4/643 1014/4/559 1013/4/774 1012/4/667
f 1011/4/546 1015/4/561 1013/4/562 1014/4/563
f 1016/4/545 1019/4/567 1020/4/568 1022/4/569
f 1017/4/652 1021/4/668 1020/4/636 1019/4/571
f 1018/4/649 1022/4/565 1020/4/635 1021/4/670
f 1023/4/659 1026/4/706 1027/4/602 1029/4/675
f 1024/4/554 1028/4/603 1027/4/695 1026/4/707
f 1025/4/644 1029/4/672 1027/4/673 1028/4/608
f 1030/4/551 1033/4/597 1034/4/598 1036/4/599
f 1031/4/650 1035/4/676 1034/4/592 1033/4/593
f 1032/4/651 1036/4/595 1034/4/677 1035/4/678
f 1037/4/765 1042/4/775 1043/4/776 1047/4/777
f 1038/4/754 1044/4/778 1043/4/776 1042/4/775
f 1039/4/760 1045/4/779 1043/4/776 1044/4/778
f 1040/4/780 1046/4/781 1043/4/782 1045/4/783
f 1041/4/752 1047/4/784 1043/4/785 1046/4/786
f 1048/4/761 1053/4/787 1054/4/788 1058/4/789
f 1049/4/753 1055/4/790 1054/4/791 1053/4/792
f 1050/4/793 1056/4/794 1054/4/795 1055/4/796
f 1051/4/750 1057/4/797 1054/4/788 1056/4/798
f 1052/4/768 1058/4/789 1054/4/788 1057/4/797
f 1059/4/763 1063/4/763 1064/4/799 1067/4/799
f 1060/4/763 1065/4/799 1064/4/799 1063/4/763
f 1061/4/756 1066/4/756 1064/4/800 1065/4/800
f 1062/4/756 1067/4/800 1064/4/800 1066/4/756
f 1068/4/766 1072/4/801 1073/4/801 1076/4/766
f 1069/4/751 1074/4/751 1073/4/802 1072/4/802
f 1070/4/751 1075/4/803 1073/4/802 1074/4/751
f 1071/4/764 1076/4/766 1073/4/801 1075/4/801
f 1077/4/547 1080/4/575 1081/4/576 1083/4/577
f 1078/4/646 1082/4/679 1081/4/579 1080/4/580
f 1079/4/655 1083/4/573 1081/4/574 1082/4/681
f 1084/4/548 1087/4/588 1088/4/589 1090/4/590
f 1085/4/658 1089/4/683 1088/4/582 1087/4/735
f 1086/4/653 1090/4/585 1088/4/586 1089/4/685
f 1091/4/553 1094/4/624 1095/4/721 1097/4/626
f 1092/4/656 1096/4/686 1095/4/631 1094/4/620
f 1093/4/645 1097/4/622 1095/4/623 1096/4/687
f 1098/4/552 1101/4/612 1102/4/613 1104/4/614
f 1099/4/759 1103/4/688 1102/4/616 1101/4/617
f 1100/4/657 1104/4/610 1102/4/611 1103/4/691
f 1037/4/765 984/4/755 992/4/755 1042/4/775
f 1042/4/775 992/4/755 987/4/755 1038/4/754
f 1052/4/768 1001/4/762 1004/4/762 1058/4/789
f 1058/4/789 1004/4/762 1000/4/762 1048/4/761
f 1002/4/757 986/4/758 990/4/758 1007/4/757
f 1007/4/757 990/4/758 985/4/758 1003/4/757
f 979/4/646 994/4/767 996/4/687 983/4/679
f 983/4/681 996/4/686 993/4/656 977/4/655
f 1062/4/756 1016/4/545 1022/4/569 1067/4/800
f 1067/4/799 1022/4/565 1018/4/649 1059/4/763
f 1068/4/766 1031/4/650 1033/4/593 1072/4/801
f 1072/4/802 1033/4/597 1030/4/551 1069/4/751
f 1031/4/650 1018/4/649 1021/4/670 1035/4/676
f 1035/4/678 1021/4/668 1017/4/652 1032/4/651
f 1009/4/648 1023/4/659 1029/4/675 1012/4/729
f 1012/4/667 1029/4/672 1025/4/644 1010/4/643
f 1001/4/762 1030/4/551 1036/4/599 1006/4/772
f 1006/4/773 1036/4/595 1032/4/651 1002/4/757
f 1016/4/545 987/4/755 991/4/769 1019/4/567
f 1019/4/571 991/4/770 986/4/758 1017/4/652
f 1010/4/643 979/4/646 982/4/580 1014/4/559
f 1014/4/563 982/4/575 978/4/547 1011/4/546
f 1024/4/554 995/4/553 998/4/626 1028/4/603
f 1028/4/608 998/4/622 994/4/767 1025/4/644
f 977/4/655 1040/4/780 1045/4/783 980/4/573
f 980/4/577 1045/4/779 1039/4/760 978/4/547
f 995/4/553 1051/4/750 1056/4/798 999/4/624
f 999/4/709 1056/4/794 1050/4/793 993/4/656
f 1011/4/546 1061/4/756 1065/4/800 1015/4/561
f 1015/4/557 1065/4/799 1060/4/763 1009/4/648
f 1023/4/659 1071/4/764 1075/4/801 1026/4/706
f 1026/4/707 1075/4/803 1070/4/751 1024/4/554
f 1051/4/750 1070/4/751 1074/4/751 1057/4/797
f 1057/4/797 1074/4/751 1069/4/751 1052/4/768
f 1038/4/754 1062/4/756 1066/4/756 1044/4/778
f 1044/4/778 1066/4/756 1061/4/756 1039/4/760
f 1059/4/763 1068/4/766 1076/4/766 1063/4/763
f 1063/4/763 1076/4/766 1071/4/764 1060/4/763
f 1049/4/753 1041/4/752 1046/4/786 1055/4/790
f 1055/4/796 1046/4/781 1040/4/780 1050/4/793
f 1079/4/655 1085/4/658 1087/4/735 1083/4/573
f 1083/4/577 1087/4/588 1084/4/548 1077/4/547
f 1091/4/553 1098/4/552 1104/4/614 1094/4/624
f 1094/4/620 1104/4/610 1100/4/657 1092/4/656
f 1099/4/759 1086/4/653 1089/4/685 1103/4/688
f 1103/4/691 1089/4/683 1085/4/658 1100/4/657
f 1092/4/656 1079/4/655 1082/4/681 1096/4/686
f 1096/4/687 1082/4/679 1078/4/646 1093/4/645
f 984/4/755 1084/4/548 1090/4/590 988/4/769
f 988/4/770 1090/4/585 1086/4/653 985/4/758
f 1098/4/552 1000/4/762 1008/4/771 1101/4/612
f 1101/4/617 1008/4/773 1003/4/757 1099/4/759
f 1041/4/752 1078/4/646 1080/4/580 1047/4/784
f 1047/4/777 1080/4/575 1077/4/547 1037/4/765
f 1093/4/645 1049/4/753 1053/4/792 1097/4/622
f 1097/4/626 1053/4/787 1048/4/761 1091/4/553
f 977/4/655 993/4/656 1050/4/793 1040/4/780
