# Blender 5.0.1
# www.blender.org
mtllib CelestialSphere.mtl
o 球
v 0.000000 500.000000 0.000000
v 0.000000 415.734802 277.785217
v 0.000000 277.785126 415.734955
v 0.000000 97.545158 490.392792
v 0.000000 0.000000 500.000183
v 0.000000 -97.545158 490.392792
v 0.000000 -277.785126 415.734955
v 0.000000 -500.000000 0.000000
v 19.030128 490.392639 95.670891
v 37.328945 461.939758 187.665222
v 54.193226 415.734802 272.447662
v 68.974884 353.553375 346.760071
v 81.105888 277.785126 407.746704
v 90.120026 191.341721 453.063873
v 95.670914 97.545158 480.970032
v 97.545219 0.000000 490.392792
v 95.670914 -97.545158 480.970032
v 90.120026 -191.341721 453.063873
v 81.105888 -277.785126 407.746704
v 68.974884 -353.553375 346.760071
v 54.193226 -415.734802 272.447662
v 37.328945 -461.939758 187.665222
v 19.030128 -490.392639 95.670891
v 37.328938 490.392639 90.120003
v 73.223351 461.939758 176.776779
v 106.303833 415.734802 256.640045
v 135.299103 353.553375 326.640839
v 159.094910 277.785126 384.088959
v 176.776779 191.341721 426.776825
v 187.665253 97.545158 453.063873
v 191.341827 0.000000 461.939880
v 187.665253 -97.545158 453.063873
v 176.776779 -191.341721 426.776825
v 159.094910 -277.785126 384.088959
v 135.299103 -353.553375 326.640839
v 106.303833 -415.734802 256.640045
v 73.223351 -461.939758 176.776779
v 37.328938 -490.392639 90.120003
v 54.193218 490.392639 81.105858
v 106.303833 461.939758 159.094879
v 154.329224 415.734802 230.969925
v 196.423859 353.553375 293.968994
v 230.969986 277.785126 345.670929
v 256.640106 191.341721 384.088989
v 272.447723 97.545158 407.746704
v 277.785278 0.000000 415.734894
v 272.447723 -97.545158 407.746704
v 256.640106 -191.341721 384.088989
v 230.969986 -277.785126 345.670929
v 196.423859 -353.553375 293.968994
v 154.329224 -415.734802 230.969925
v 106.303833 -461.939758 159.094879
v 54.193218 -490.392639 81.105858
v 68.974876 490.392639 68.974854
v 135.299103 461.939758 135.299057
v 196.423843 415.734802 196.423767
v 250.000153 353.553375 250.000092
v 293.969025 277.785126 293.968933
v 326.640900 191.341721 326.640839
v 346.760162 97.545158 346.760040
v 353.553589 0.000000 353.553436
v 346.760162 -97.545158 346.760040
v 326.640900 -191.341721 326.640839
v 293.969025 -277.785126 293.968933
v 250.000153 -353.553375 250.000092
v 196.423843 -415.734802 196.423767
v 135.299103 -461.939758 135.299057
v 68.974876 -490.392639 68.974854
v 81.105881 490.392639 54.193195
v 159.094925 461.939758 106.303787
v 230.970001 415.734802 154.329163
v 293.969055 353.553375 196.423813
v 345.671021 277.785126 230.969894
v 384.089050 191.341721 256.640076
v 407.746796 97.545158 272.447601
v 415.735016 0.000000 277.785095
v 407.746796 -97.545158 272.447601
v 384.089050 -191.341721 256.640076
v 345.671021 -277.785126 230.969894
v 293.969055 -353.553375 196.423813
v 230.970001 -415.734802 154.329163
v 159.094925 -461.939758 106.303787
v 81.105881 -490.392639 54.193195
v 90.120010 490.392639 37.328918
v 176.776779 461.939758 73.223320
v 256.640106 415.734802 106.303764
v 326.640930 353.553375 135.299072
v 384.089050 277.785126 159.094803
v 426.776917 191.341721 176.776779
v 453.063934 97.545158 187.665146
v 461.939972 0.000000 191.341675
v 453.063934 -97.545158 187.665146
v 426.776917 -191.341721 176.776779
v 384.089050 -277.785126 159.094803
v 326.640930 -353.553375 135.299072
v 256.640106 -415.734802 106.303764
v 176.776779 -461.939758 73.223320
v 90.120010 -490.392639 37.328918
v 95.670891 490.392639 19.030113
v 187.665237 461.939758 37.328918
v 272.447693 415.734802 54.193176
v 346.760162 353.553375 68.974876
v 407.746735 277.785126 81.105812
v 453.063934 191.341721 90.120026
v 480.970123 97.545158 95.670837
v 490.392822 0.000000 97.545097
v 480.970123 -97.545158 95.670837
v 453.063934 -191.341721 90.120026
v 407.746735 -277.785126 81.105812
v 346.760162 -353.553375 68.974876
v 272.447693 -415.734802 54.193176
v 187.665237 -461.939758 37.328918
v 95.670891 -490.392639 19.030113
v 97.545189 490.392639 -0.000006
v 191.341812 461.939758 -0.000011
v 277.785217 415.734802 -0.000026
v 353.553558 353.553375 0.000007
v 415.734955 277.785126 -0.000045
v 461.940002 191.341721 0.000022
v 490.392853 97.545158 -0.000045
v 500.000153 0.000000 -0.000082
v 490.392853 -97.545158 -0.000045
v 461.940002 -191.341721 0.000022
v 415.734955 -277.785126 -0.000045
v 353.553558 -353.553375 0.000007
v 277.785217 -415.734802 -0.000026
v 191.341812 -461.939758 -0.000011
v 97.545189 -490.392639 -0.000006
v 95.670883 490.392639 -19.030123
v 187.665237 461.939758 -37.328938
v 272.447662 415.734802 -54.193222
v 346.760132 353.553375 -68.974854
v 407.746704 277.785126 -81.105896
v 453.063934 191.341721 -90.119980
v 480.970093 97.545158 -95.670921
v 490.392731 0.000000 -97.545250
v 480.970093 -97.545158 -95.670921
v 453.063934 -191.341721 -90.119980
v 407.746704 -277.785126 -81.105896
v 346.760132 -353.553375 -68.974854
v 272.447662 -415.734802 -54.193222
v 187.665237 -461.939758 -37.328938
v 95.670883 -490.392639 -19.030123
v 90.119995 490.392639 -37.328922
v 176.776779 461.939758 -73.223335
v 256.640045 415.734802 -106.303802
v 326.640900 353.553375 -135.299042
v 384.088989 277.785126 -159.094879
v 426.776917 191.341721 -176.776718
v 453.063873 97.545158 -187.665222
v 461.939819 0.000000 -191.341797
v 453.063873 -97.545158 -187.665222
v 426.776917 -191.341721 -176.776718
v 384.088989 -277.785126 -159.094879
v 326.640900 -353.553375 -135.299042
v 256.640045 -415.734802 -106.303802
v 176.776779 -461.939758 -73.223335
v 90.119995 -490.392639 -37.328922
v 81.105850 490.392639 -54.193188
v 159.094894 461.939758 -106.303795
v 230.969925 415.734802 -154.329178
v 293.969025 353.553375 -196.423782
v 345.670929 277.785126 -230.969925
v 384.089050 191.341721 -256.640015
v 407.746704 97.545158 -272.447632
v 415.734802 0.000000 -277.785187
v 407.746704 -97.545158 -272.447632
v 384.089050 -191.341721 -256.640015
v 345.670929 -277.785126 -230.969925
v 293.969025 -353.553375 -196.423782
v 230.969925 -415.734802 -154.329178
v 159.094894 -461.939758 -106.303795
v 81.105850 -490.392639 -54.193188
v 68.974854 490.392639 -68.974838
v 135.299072 461.939758 -135.299057
v 196.423752 415.734802 -196.423782
v 250.000122 353.553375 -250.000061
v 293.968933 277.785126 -293.968933
v 326.640900 191.341721 -326.640778
v 346.760071 97.545158 -346.760040
v 353.553345 0.000000 -353.553467
v 346.760071 -97.545158 -346.760040
v 326.640900 -191.341721 -326.640778
v 293.968933 -277.785126 -293.968933
v 250.000122 -353.553375 -250.000061
v 196.423752 -415.734802 -196.423782
v 135.299072 -461.939758 -135.299057
v 68.974854 -490.392639 -68.974838
v 54.193192 490.392639 -81.105827
v 106.303787 461.939758 -159.094864
v 154.329147 415.734802 -230.969910
v 196.423828 353.553375 -293.968964
v 230.969910 277.785126 -345.670898
v 256.640106 191.341721 -384.088928
v 272.447601 97.545158 -407.746643
v 277.785034 0.000000 -415.734833
v 272.447601 -97.545158 -407.746643
v 256.640106 -191.341721 -384.088928
v 230.969910 -277.785126 -345.670898
v 196.423828 -353.553375 -293.968964
v 154.329147 -415.734802 -230.969910
v 106.303787 -461.939758 -159.094864
v 54.193192 -490.392639 -81.105827
v 37.328915 490.392639 -90.119965
v 73.223305 461.939758 -176.776733
v 106.303741 415.734802 -256.639984
v 135.299072 353.553375 -326.640808
v 159.094818 277.785126 -384.088898
v 176.776779 191.341721 -426.776733
v 187.665131 97.545158 -453.063782
v 191.341599 0.000000 -461.939728
v 187.665131 -97.545158 -453.063782
v 176.776779 -191.341721 -426.776733
v 159.094818 -277.785126 -384.088898
v 135.299072 -353.553375 -326.640808
v 106.303741 -415.734802 -256.639984
v 73.223305 -461.939758 -176.776733
v 37.328915 -490.392639 -90.119965
v 19.030113 490.392639 -95.670830
v 37.328903 461.939758 -187.665161
v 54.193150 415.734802 -272.447540
v 68.974869 353.553375 -346.760040
v 81.105812 277.785126 -407.746582
v 90.120026 191.341721 -453.063782
v 95.670815 97.545158 -480.969910
v 97.545013 0.000000 -490.392578
v 95.670815 -97.545158 -480.969910
v 90.120026 -191.341721 -453.063782
v 81.105812 -277.785126 -407.746582
v 68.974869 -353.553375 -346.760040
v 54.193150 -415.734802 -272.447540
v 37.328903 -461.939758 -187.665161
v 19.030113 -490.392639 -95.670830
v -0.000004 490.392639 -97.545128
v -0.000026 461.939758 -191.341736
v -0.000048 415.734802 -277.785065
v -0.000007 353.553375 -353.553467
v -0.000052 277.785126 -415.734802
v 0.000015 191.341721 -461.939789
v -0.000067 97.545158 -490.392670
v -0.000164 0.000000 -499.999847
v -0.000067 -97.545158 -490.392670
v 0.000015 -191.341721 -461.939789
v -0.000052 -277.785126 -415.734802
v -0.000007 -353.553375 -353.553467
v -0.000048 -415.734802 -277.785065
v -0.000026 -461.939758 -191.341736
v -0.000004 -490.392639 -97.545128
v -19.030119 490.392639 -95.670822
v -37.328957 461.939758 -187.665161
v -54.193241 415.734802 -272.447510
v -68.974876 353.553375 -346.760010
v -81.105911 277.785126 -407.746552
v -90.119987 191.341721 -453.063751
v -95.670952 97.545158 -480.969879
v -97.545319 0.000000 -490.392456
v -95.670952 -97.545158 -480.969879
v -90.119987 -191.341721 -453.063751
v -81.105911 -277.785126 -407.746552
v -68.974876 -353.553375 -346.760010
v -54.193241 -415.734802 -272.447510
v -37.328957 -461.939758 -187.665161
v -19.030119 -490.392639 -95.670822
v -37.328915 490.392639 -90.119949
v -73.223351 461.939758 -176.776718
v -106.303818 415.734802 -256.639893
v -135.299072 353.553375 -326.640778
v -159.094910 277.785126 -384.088837
v -176.776718 191.341721 -426.776703
v -187.665253 97.545158 -453.063690
v -191.341858 0.000000 -461.939545
v -187.665253 -97.545158 -453.063690
v -176.776718 -191.341721 -426.776703
v -159.094910 -277.785126 -384.088837
v -135.299072 -353.553375 -326.640778
v -106.303818 -415.734802 -256.639893
v -73.223351 -461.939758 -176.776718
v -37.328915 -490.392639 -90.119949
v -54.193184 490.392639 -81.105804
v -106.303818 461.939758 -159.094818
v -154.329193 415.734802 -230.969788
v -196.423828 353.553375 -293.968933
v -230.969955 277.785126 -345.670807
v -256.640015 191.341721 -384.088898
v -272.447693 97.545158 -407.746521
v -277.785217 0.000000 -415.734528
v -272.447693 -97.545158 -407.746521
v -256.640015 -191.341721 -384.088898
v -230.969955 -277.785126 -345.670807
v -196.423828 -353.553375 -293.968933
v -154.329193 -415.734802 -230.969788
v -106.303818 -461.939758 -159.094818
v -54.193184 -490.392639 -81.105804
v -68.974838 490.392639 -68.974808
v -135.299072 461.939758 -135.299011
v -196.423767 415.734802 -196.423630
v -250.000107 353.553375 -250.000031
v -293.968964 277.785126 -293.968811
v -326.640808 191.341721 -326.640747
v -346.760101 97.545158 -346.759888
v -353.553436 0.000000 -353.553101
v -346.760101 -97.545158 -346.759888
v -326.640808 -191.341721 -326.640747
v -293.968964 -277.785126 -293.968811
v -250.000107 -353.553375 -250.000031
v -196.423767 -415.734802 -196.423630
v -135.299072 -461.939758 -135.299011
v -68.974838 -490.392639 -68.974808
v -81.105827 490.392639 -54.193157
v -159.094879 461.939758 -106.303749
v -230.969894 415.734802 -154.329025
v -293.968994 353.553375 -196.423752
v -345.670929 277.785126 -230.969803
v -384.088959 191.341721 -256.639984
v -407.746704 97.545158 -272.447449
v -415.734802 0.000000 -277.784821
v -407.746704 -97.545158 -272.447449
v -384.088959 -191.341721 -256.639984
v -345.670929 -277.785126 -230.969803
v -293.968994 -353.553375 -196.423752
v -230.969894 -415.734802 -154.329025
v -159.094879 -461.939758 -106.303749
v -81.105827 -490.392639 -54.193157
v -90.119957 490.392639 -37.328892
v -176.776733 461.939758 -73.223282
v -256.639954 415.734802 -106.303658
v -326.640869 353.553375 -135.299026
v -384.088928 277.785126 -159.094727
v -426.776794 191.341721 -176.776703
v -453.063843 97.545158 -187.665009
v -461.939697 0.000000 -191.341415
v -453.063843 -97.545158 -187.665009
v -426.776794 -191.341721 -176.776703
v -384.088928 -277.785126 -159.094727
v -326.640869 -353.553375 -135.299026
v -256.639954 -415.734802 -106.303658
v -176.776733 -461.939758 -73.223282
v -90.119957 -490.392639 -37.328892
v -95.670830 490.392639 -19.030098
v -187.665176 461.939758 -37.328892
v -272.447510 415.734802 -54.193096
v -346.760101 353.553375 -68.974838
v -407.746613 277.785126 -81.105743
v -453.063812 191.341721 -90.119972
v -480.970001 97.545158 -95.670731
v -490.392517 0.000000 -97.544884
v -480.970001 -97.545158 -95.670731
v -453.063812 -191.341721 -90.119972
v -407.746613 -277.785126 -81.105743
v -346.760101 -353.553375 -68.974838
v -272.447510 -415.734802 -54.193096
v -187.665176 -461.939758 -37.328892
v -95.670830 -490.392639 -19.030098
v -97.545135 490.392639 0.000009
v -191.341736 461.939758 0.000026
v -277.785065 415.734802 0.000075
v -353.553497 353.553375 0.000015
v -415.734833 277.785126 0.000082
v -461.939850 191.341721 0.000007
v -490.392731 97.545158 0.000134
v -499.999817 0.000000 0.000224
v -490.392731 -97.545158 0.000134
v -461.939850 -191.341721 0.000007
v -415.734833 -277.785126 0.000082
v -353.553497 -353.553375 0.000015
v -277.785065 -415.734802 0.000075
v -191.341736 -461.939758 0.000026
v -97.545135 -490.392639 0.000009
v -95.670822 490.392639 19.030115
v -187.665161 461.939758 37.328938
v -272.447479 415.734802 54.193237
v -346.760071 353.553375 68.974869
v -407.746552 277.785126 81.105911
v -453.063782 191.341721 90.119980
v -480.969910 97.545158 95.670982
v -490.392426 0.000000 97.545326
v -480.969910 -97.545158 95.670982
v -453.063782 -191.341721 90.119980
v -407.746552 -277.785126 81.105911
v -346.760071 -353.553375 68.974869
v -272.447479 -415.734802 54.193237
v -187.665161 -461.939758 37.328938
v -95.670822 -490.392639 19.030115
v -90.119949 490.392639 37.328907
v -176.776718 461.939758 73.223320
v -256.639862 415.734802 106.303780
v -326.640839 353.553375 135.299042
v -384.088837 277.785126 159.094864
v -426.776764 191.341721 176.776688
v -453.063690 97.545158 187.665237
v -461.939484 0.000000 191.341812
v -453.063690 -97.545158 187.665237
v -426.776764 -191.341721 176.776688
v -384.088837 -277.785126 159.094864
v -326.640839 -353.553375 135.299042
v -256.639862 -415.734802 106.303780
v -176.776718 -461.939758 73.223320
v -90.119949 -490.392639 37.328907
v -81.105804 490.392639 54.193165
v -159.094818 461.939758 106.303764
v -230.969742 415.734802 154.329132
v -293.968964 353.553375 196.423767
v -345.670807 277.785126 230.969894
v -384.088928 191.341721 256.639954
v -407.746521 97.545158 272.447632
v -415.734497 0.000000 277.785126
v -407.746521 -97.545158 272.447632
v -384.088928 -191.341721 256.639954
v -345.670807 -277.785126 230.969894
v -293.968964 -353.553375 196.423767
v -230.969742 -415.734802 154.329132
v -159.094818 -461.939758 106.303764
v -81.105804 -490.392639 54.193165
v -68.974815 490.392639 68.974808
v -135.299026 461.939758 135.299011
v -196.423584 415.734802 196.423691
v -250.000061 353.553375 250.000031
v -293.968811 277.785126 293.968872
v -326.640778 191.341721 326.640686
v -346.759888 97.545158 346.759979
v -353.553070 0.000000 353.553314
v -346.759888 -97.545158 346.759979
v -326.640778 -191.341721 326.640686
v -293.968811 -277.785126 293.968872
v -250.000061 -353.553375 250.000031
v -196.423584 -415.734802 196.423691
v -135.299026 -461.939758 135.299011
v -68.974815 -490.392639 68.974808
v -54.193157 490.392639 81.105789
v -106.303749 461.939758 159.094803
v -154.328995 415.734802 230.969803
v -196.423767 353.553375 293.968933
v -230.969772 277.785126 345.670807
v -256.639984 191.341721 384.088837
v -272.447449 97.545158 407.746552
v -277.784790 0.000000 415.734619
v -272.447449 -97.545158 407.746552
v -256.639984 -191.341721 384.088837
v -230.969772 -277.785126 345.670807
v -196.423767 -353.553375 293.968933
v -154.328995 -415.734802 230.969803
v -106.303749 -461.939758 159.094803
v -54.193157 -490.392639 81.105789
v -37.328892 490.392639 90.119919
v -73.223282 461.939758 176.776688
v -106.303612 415.734802 256.639832
v -135.299042 353.553375 326.640778
v -159.094696 277.785126 384.088776
v -176.776703 191.341721 426.776642
v -187.665009 97.545158 453.063660
v -191.341400 0.000000 461.939484
v -187.665009 -97.545158 453.063660
v -176.776703 -191.341721 426.776642
v -159.094696 -277.785126 384.088776
v -135.299042 -353.553375 326.640778
v -106.303612 -415.734802 256.639832
v -73.223282 -461.939758 176.776688
v -37.328892 -490.392639 90.119919
v -19.030100 490.392639 95.670784
v -37.328888 461.939758 187.665115
v -54.193054 415.734802 272.447357
v -68.974831 353.553375 346.760010
v -81.105713 277.785126 407.746429
v -90.119957 191.341721 453.063660
v -95.670723 97.545158 480.969788
v -97.544868 0.000000 490.392273
v -95.670723 -97.545158 480.969788
v -90.119957 -191.341721 453.063660
v -81.105713 -277.785126 407.746429
v -68.974831 -353.553375 346.760010
v -54.193054 -415.734802 272.447357
v -37.328888 -461.939758 187.665115
v -19.030100 -490.392639 95.670784
v 0.000007 490.392639 97.545082
v 0.000034 461.939758 191.341675
v 0.000045 353.553375 353.553436
v 0.000030 191.341721 461.939697
v 0.000030 -191.341721 461.939697
v 0.000045 -353.553375 353.553436
v 0.000108 -415.734802 277.784882
v 0.000034 -461.939758 191.341675
v 0.000007 -490.392639 97.545082
vn -0.0097 -0.9951 -0.0980
vn -0.0097 0.9951 -0.0980
vn -0.0975 0.0976 -0.9904
vn -0.0286 -0.9565 -0.2902
vn -0.0938 0.2890 -0.9527
vn -0.0464 -0.8810 -0.4709
vn -0.0865 0.4696 -0.8786
vn -0.0624 -0.7715 -0.6332
vn -0.0759 0.6326 -0.7708
vn -0.0759 -0.6326 -0.7708
vn -0.0624 0.7715 -0.6332
vn -0.0865 -0.4696 -0.8786
vn -0.0464 0.8810 -0.4709
vn -0.0938 -0.2890 -0.9527
vn -0.0286 0.9565 -0.2902
vn -0.0975 -0.0975 -0.9904
vn -0.0846 0.9565 -0.2790
vn -0.2889 -0.0976 -0.9524
vn -0.0286 -0.9951 -0.0942
vn -0.0286 0.9951 -0.0942
vn -0.2889 0.0975 -0.9524
vn -0.0846 -0.9565 -0.2790
vn -0.2779 0.2890 -0.9161
vn -0.1374 -0.8810 -0.4528
vn -0.2563 0.4696 -0.8448
vn -0.1847 -0.7715 -0.6088
vn -0.2248 0.6326 -0.7412
vn -0.2248 -0.6326 -0.7412
vn -0.1847 0.7715 -0.6088
vn -0.2563 -0.4696 -0.8448
vn -0.1374 0.8810 -0.4528
vn -0.2779 -0.2890 -0.9161
vn -0.2999 -0.7715 -0.5611
vn -0.3651 0.6326 -0.6831
vn -0.3651 -0.6326 -0.6831
vn -0.2999 0.7715 -0.5611
vn -0.4162 -0.4696 -0.7786
vn -0.2230 0.8810 -0.4173
vn -0.4513 -0.2890 -0.8443
vn -0.1374 0.9565 -0.2571
vn -0.4691 -0.0975 -0.8777
vn -0.0464 -0.9951 -0.0869
vn -0.0464 0.9951 -0.0869
vn -0.4691 0.0975 -0.8777
vn -0.1374 -0.9565 -0.2571
vn -0.4513 0.2890 -0.8443
vn -0.2231 -0.8810 -0.4173
vn -0.4162 0.4696 -0.7786
vn -0.6314 -0.0975 -0.7693
vn -0.0625 -0.9951 -0.0761
vn -0.0625 0.9951 -0.0761
vn -0.6314 0.0975 -0.7693
vn -0.1850 -0.9565 -0.2254
vn -0.6073 0.2890 -0.7400
vn -0.3002 -0.8810 -0.3658
vn -0.5601 0.4696 -0.6825
vn -0.4036 -0.7715 -0.4918
vn -0.4913 0.6326 -0.5987
vn -0.4913 -0.6326 -0.5987
vn -0.4036 0.7715 -0.4918
vn -0.5601 -0.4696 -0.6825
vn -0.3002 0.8810 -0.3658
vn -0.6073 -0.2890 -0.7400
vn -0.1850 0.9565 -0.2254
vn -0.5987 0.6326 -0.4913
vn -0.5987 -0.6326 -0.4913
vn -0.4918 0.7715 -0.4036
vn -0.6825 -0.4696 -0.5601
vn -0.3658 0.8810 -0.3002
vn -0.7400 -0.2890 -0.6073
vn -0.2254 0.9565 -0.1850
vn -0.7693 -0.0975 -0.6314
vn -0.0761 -0.9951 -0.0625
vn -0.0761 0.9951 -0.0625
vn -0.7693 0.0975 -0.6314
vn -0.2254 -0.9565 -0.1850
vn -0.7400 0.2890 -0.6073
vn -0.3658 -0.8810 -0.3002
vn -0.6825 0.4696 -0.5601
vn -0.4918 -0.7715 -0.4036
vn -0.0869 -0.9951 -0.0464
vn -0.0869 0.9951 -0.0464
vn -0.8777 0.0975 -0.4691
vn -0.2571 -0.9565 -0.1374
vn -0.8443 0.2890 -0.4513
vn -0.4173 -0.8810 -0.2230
vn -0.7786 0.4696 -0.4162
vn -0.5611 -0.7715 -0.2999
vn -0.6831 0.6326 -0.3651
vn -0.6831 -0.6326 -0.3651
vn -0.5611 0.7715 -0.2999
vn -0.7786 -0.4696 -0.4162
vn -0.4173 0.8810 -0.2230
vn -0.8443 -0.2890 -0.4513
vn -0.2571 0.9565 -0.1374
vn -0.8777 -0.0975 -0.4691
vn -0.7412 -0.6326 -0.2248
vn -0.6088 0.7715 -0.1847
vn -0.8448 -0.4696 -0.2563
vn -0.4528 0.8810 -0.1374
vn -0.9161 -0.2890 -0.2779
vn -0.2790 0.9565 -0.0846
vn -0.9524 -0.0975 -0.2889
vn -0.0942 -0.9951 -0.0286
vn -0.0942 0.9951 -0.0286
vn -0.9524 0.0975 -0.2889
vn -0.2790 -0.9565 -0.0846
vn -0.9161 0.2890 -0.2779
vn -0.4528 -0.8810 -0.1374
vn -0.8448 0.4696 -0.2563
vn -0.6088 -0.7715 -0.1847
vn -0.7412 0.6326 -0.2248
vn -0.9904 0.0975 -0.0975
vn -0.2902 -0.9565 -0.0286
vn -0.9527 0.2890 -0.0938
vn -0.4709 -0.8810 -0.0464
vn -0.8786 0.4696 -0.0865
vn -0.6332 -0.7715 -0.0624
vn -0.7708 0.6326 -0.0759
vn -0.7708 -0.6326 -0.0759
vn -0.6332 0.7715 -0.0624
vn -0.8786 -0.4696 -0.0865
vn -0.4709 0.8810 -0.0464
vn -0.9527 -0.2890 -0.0938
vn -0.2902 0.9565 -0.0286
vn -0.9904 -0.0975 -0.0975
vn -0.0980 -0.9951 -0.0097
vn -0.0980 0.9951 -0.0097
vn -0.6332 0.7715 0.0624
vn -0.8786 -0.4696 0.0865
vn -0.4709 0.8810 0.0464
vn -0.9527 -0.2890 0.0938
vn -0.2902 0.9565 0.0286
vn -0.9904 -0.0975 0.0976
vn -0.0980 -0.9951 0.0097
vn -0.0980 0.9951 0.0097
vn -0.9904 0.0975 0.0976
vn -0.2902 -0.9565 0.0286
vn -0.9527 0.2890 0.0938
vn -0.4709 -0.8810 0.0464
vn -0.8786 0.4696 0.0865
vn -0.6332 -0.7715 0.0624
vn -0.7708 0.6326 0.0759
vn -0.7708 -0.6326 0.0759
vn -0.9161 0.2890 0.2779
vn -0.4528 -0.8810 0.1374
vn -0.8448 0.4696 0.2563
vn -0.6088 -0.7715 0.1847
vn -0.7412 0.6326 0.2248
vn -0.7412 -0.6326 0.2248
vn -0.6088 0.7715 0.1847
vn -0.8448 -0.4696 0.2563
vn -0.4528 0.8810 0.1374
vn -0.9161 -0.2890 0.2779
vn -0.2790 0.9565 0.0846
vn -0.9524 -0.0975 0.2889
vn -0.0942 -0.9951 0.0286
vn -0.0942 0.9951 0.0286
vn -0.9524 0.0975 0.2889
vn -0.2790 -0.9565 0.0846
vn -0.4173 0.8810 0.2230
vn -0.8443 -0.2890 0.4513
vn -0.2571 0.9565 0.1374
vn -0.8777 -0.0975 0.4691
vn -0.0869 -0.9951 0.0464
vn -0.0869 0.9951 0.0464
vn -0.8777 0.0975 0.4691
vn -0.2571 -0.9565 0.1374
vn -0.8443 0.2890 0.4513
vn -0.4173 -0.8810 0.2230
vn -0.7786 0.4696 0.4162
vn -0.5611 -0.7715 0.2999
vn -0.6831 0.6326 0.3651
vn -0.6831 -0.6326 0.3651
vn -0.5611 0.7715 0.2999
vn -0.7786 -0.4696 0.4162
vn -0.3658 -0.8810 0.3002
vn -0.6825 0.4696 0.5601
vn -0.4918 -0.7715 0.4036
vn -0.5987 0.6326 0.4913
vn -0.5987 -0.6326 0.4913
vn -0.4918 0.7715 0.4036
vn -0.6825 -0.4696 0.5601
vn -0.3658 0.8810 0.3002
vn -0.7400 -0.2890 0.6073
vn -0.2254 0.9565 0.1850
vn -0.7693 -0.0975 0.6314
vn -0.0761 -0.9951 0.0625
vn -0.0761 0.9951 0.0625
vn -0.7693 0.0975 0.6314
vn -0.2254 -0.9565 0.1850
vn -0.7400 0.2890 0.6073
vn -0.6073 -0.2890 0.7400
vn -0.1850 0.9565 0.2254
vn -0.6314 -0.0975 0.7693
vn -0.0625 -0.9951 0.0761
vn -0.0625 0.9951 0.0761
vn -0.6314 0.0975 0.7693
vn -0.1850 -0.9565 0.2254
vn -0.6073 0.2890 0.7400
vn -0.3002 -0.8810 0.3658
vn -0.5601 0.4696 0.6825
vn -0.4036 -0.7715 0.4918
vn -0.4913 0.6326 0.5987
vn -0.4913 -0.6326 0.5987
vn -0.4036 0.7715 0.4918
vn -0.5601 -0.4696 0.6825
vn -0.3002 0.8810 0.3658
vn -0.4162 0.4696 0.7786
vn -0.2999 -0.7715 0.5611
vn -0.3651 0.6326 0.6831
vn -0.3651 -0.6326 0.6831
vn -0.2999 0.7715 0.5611
vn -0.4162 -0.4696 0.7786
vn -0.2230 0.8810 0.4173
vn -0.4513 -0.2890 0.8443
vn -0.1374 0.9565 0.2571
vn -0.4691 -0.0975 0.8777
vn -0.0464 -0.9951 0.0869
vn -0.0464 0.9951 0.0869
vn -0.4691 0.0975 0.8777
vn -0.1374 -0.9565 0.2571
vn -0.4513 0.2890 0.8443
vn -0.2230 -0.8810 0.4173
vn -0.0846 0.9565 0.2790
vn -0.2889 -0.0975 0.9524
vn -0.0286 -0.9951 0.0942
vn -0.0286 0.9951 0.0942
vn -0.2889 0.0975 0.9524
vn -0.0846 -0.9565 0.2790
vn -0.2779 0.2890 0.9161
vn -0.1374 -0.8810 0.4528
vn -0.2563 0.4696 0.8448
vn -0.1847 -0.7715 0.6088
vn -0.2248 0.6326 0.7412
vn -0.2248 -0.6326 0.7412
vn -0.1847 0.7715 0.6088
vn -0.2563 -0.4696 0.8448
vn -0.1374 0.8810 0.4528
vn -0.2779 -0.2890 0.9161
vn -0.0624 -0.7715 0.6332
vn -0.0759 0.6326 0.7708
vn -0.0759 -0.6326 0.7708
vn -0.0624 0.7715 0.6332
vn -0.0865 -0.4696 0.8786
vn -0.0464 0.8810 0.4709
vn -0.0938 -0.2890 0.9527
vn -0.0286 0.9565 0.2902
vn -0.0975 -0.0975 0.9904
vn -0.0097 -0.9951 0.0980
vn -0.0097 0.9951 0.0980
vn -0.0975 0.0975 0.9904
vn -0.0286 -0.9565 0.2902
vn -0.0938 0.2890 0.9527
vn -0.0464 -0.8810 0.4709
vn -0.0865 0.4696 0.8786
vn 0.0975 -0.0975 0.9904
vn 0.0097 -0.9951 0.0980
vn 0.0097 0.9951 0.0980
vn 0.0975 0.0975 0.9904
vn 0.0286 -0.9565 0.2902
vn 0.0938 0.2890 0.9527
vn 0.0464 -0.8810 0.4709
vn 0.0865 0.4696 0.8786
vn 0.0624 -0.7715 0.6332
vn 0.0759 0.6326 0.7708
vn 0.0759 -0.6326 0.7708
vn 0.0624 0.7715 0.6332
vn 0.0865 -0.4696 0.8786
vn 0.0464 0.8810 0.4709
vn 0.0938 -0.2890 0.9527
vn 0.0286 0.9565 0.2902
vn 0.2248 0.6326 0.7412
vn 0.2248 -0.6326 0.7412
vn 0.1847 0.7715 0.6088
vn 0.2563 -0.4696 0.8448
vn 0.1374 0.8810 0.4528
vn 0.2779 -0.2890 0.9161
vn 0.0846 0.9565 0.2790
vn 0.2889 -0.0975 0.9524
vn 0.0286 -0.9951 0.0942
vn 0.0286 0.9951 0.0942
vn 0.2889 0.0975 0.9524
vn 0.0846 -0.9565 0.2790
vn 0.2779 0.2890 0.9161
vn 0.1374 -0.8810 0.4528
vn 0.2563 0.4696 0.8448
vn 0.1847 -0.7715 0.6088
vn 0.0464 0.9951 0.0869
vn 0.4691 0.0975 0.8777
vn 0.1374 -0.9565 0.2571
vn 0.4513 0.2890 0.8443
vn 0.2230 -0.8810 0.4173
vn 0.4162 0.4696 0.7786
vn 0.2999 -0.7715 0.5611
vn 0.3651 0.6326 0.6831
vn 0.3651 -0.6326 0.6831
vn 0.2999 0.7715 0.5611
vn 0.4162 -0.4696 0.7786
vn 0.2230 0.8810 0.4173
vn 0.4513 -0.2890 0.8443
vn 0.1374 0.9565 0.2571
vn 0.4691 -0.0975 0.8777
vn 0.0464 -0.9951 0.0869
vn 0.4036 0.7715 0.4918
vn 0.5601 -0.4696 0.6825
vn 0.3002 0.8810 0.3658
vn 0.6073 -0.2890 0.7400
vn 0.1850 0.9565 0.2254
vn 0.6314 -0.0975 0.7693
vn 0.0625 -0.9951 0.0761
vn 0.0625 0.9951 0.0761
vn 0.6314 0.0975 0.7693
vn 0.1850 -0.9565 0.2254
vn 0.6073 0.2890 0.7400
vn 0.3002 -0.8810 0.3658
vn 0.5601 0.4696 0.6825
vn 0.4036 -0.7715 0.4918
vn 0.4913 0.6326 0.5987
vn 0.4913 -0.6326 0.5987
vn 0.2254 -0.9566 0.1850
vn 0.7400 0.2890 0.6073
vn 0.3658 -0.8810 0.3002
vn 0.6825 0.4696 0.5601
vn 0.4918 -0.7715 0.4036
vn 0.5987 0.6326 0.4913
vn 0.5987 -0.6326 0.4913
vn 0.4918 0.7715 0.4036
vn 0.6825 -0.4696 0.5601
vn 0.3658 0.8810 0.3002
vn 0.7400 -0.2890 0.6073
vn 0.2254 0.9565 0.1850
vn 0.7693 -0.0975 0.6314
vn 0.0761 -0.9951 0.0625
vn 0.0761 0.9951 0.0625
vn 0.7693 0.0975 0.6314
vn 0.7786 -0.4696 0.4162
vn 0.4173 0.8810 0.2230
vn 0.8443 -0.2890 0.4513
vn 0.2571 0.9565 0.1374
vn 0.8777 -0.0975 0.4691
vn 0.0869 -0.9951 0.0464
vn 0.0869 0.9951 0.0464
vn 0.8777 0.0975 0.4691
vn 0.2571 -0.9565 0.1374
vn 0.8443 0.2890 0.4513
vn 0.4173 -0.8810 0.2230
vn 0.7786 0.4696 0.4162
vn 0.5611 -0.7715 0.2999
vn 0.6831 0.6326 0.3651
vn 0.6831 -0.6326 0.3651
vn 0.5611 0.7715 0.2999
vn 0.9161 0.2890 0.2779
vn 0.4528 -0.8810 0.1374
vn 0.8448 0.4696 0.2563
vn 0.6088 -0.7715 0.1847
vn 0.7412 0.6326 0.2248
vn 0.7412 -0.6326 0.2248
vn 0.6088 0.7715 0.1847
vn 0.8448 -0.4696 0.2563
vn 0.4528 0.8810 0.1374
vn 0.9161 -0.2890 0.2779
vn 0.2790 0.9565 0.0846
vn 0.9524 -0.0975 0.2889
vn 0.0942 -0.9951 0.0286
vn 0.0942 0.9951 0.0286
vn 0.9524 0.0975 0.2889
vn 0.2790 -0.9565 0.0846
vn 0.4709 0.8810 0.0464
vn 0.9527 -0.2890 0.0938
vn 0.2902 0.9565 0.0286
vn 0.9904 -0.0975 0.0976
vn 0.0980 -0.9951 0.0097
vn 0.0980 0.9951 0.0097
vn 0.9904 0.0975 0.0976
vn 0.2902 -0.9565 0.0286
vn 0.9527 0.2890 0.0938
vn 0.4709 -0.8810 0.0464
vn 0.8786 0.4696 0.0865
vn 0.6332 -0.7715 0.0624
vn 0.7708 0.6326 0.0759
vn 0.7708 -0.6326 0.0759
vn 0.6332 0.7715 0.0624
vn 0.8786 -0.4696 0.0865
vn 0.4709 -0.8810 -0.0464
vn 0.8786 0.4696 -0.0865
vn 0.6332 -0.7715 -0.0624
vn 0.7708 0.6326 -0.0759
vn 0.7708 -0.6326 -0.0759
vn 0.6332 0.7715 -0.0624
vn 0.8786 -0.4696 -0.0865
vn 0.4709 0.8810 -0.0464
vn 0.9527 -0.2890 -0.0938
vn 0.2902 0.9565 -0.0286
vn 0.9904 -0.0975 -0.0976
vn 0.0980 -0.9951 -0.0097
vn 0.0980 0.9951 -0.0097
vn 0.9904 0.0975 -0.0976
vn 0.2902 -0.9565 -0.0286
vn 0.9527 0.2890 -0.0938
vn 0.9161 -0.2890 -0.2779
vn 0.2790 0.9565 -0.0846
vn 0.9524 -0.0975 -0.2889
vn 0.0942 -0.9951 -0.0286
vn 0.0942 0.9951 -0.0286
vn 0.9524 0.0975 -0.2889
vn 0.2790 -0.9565 -0.0846
vn 0.9161 0.2890 -0.2779
vn 0.4528 -0.8810 -0.1374
vn 0.8448 0.4696 -0.2563
vn 0.6088 -0.7715 -0.1847
vn 0.7412 0.6326 -0.2248
vn 0.7412 -0.6326 -0.2248
vn 0.6088 0.7715 -0.1847
vn 0.8448 -0.4696 -0.2563
vn 0.4528 0.8810 -0.1374
vn 0.7786 0.4696 -0.4162
vn 0.5611 -0.7715 -0.2999
vn 0.6831 0.6326 -0.3651
vn 0.6831 -0.6326 -0.3651
vn 0.5611 0.7715 -0.2999
vn 0.7786 -0.4696 -0.4162
vn 0.4173 0.8810 -0.2231
vn 0.8443 -0.2890 -0.4513
vn 0.2571 0.9565 -0.1374
vn 0.8777 -0.0975 -0.4691
vn 0.0869 -0.9951 -0.0464
vn 0.0869 0.9951 -0.0464
vn 0.8777 0.0975 -0.4691
vn 0.2571 -0.9565 -0.1374
vn 0.8443 0.2890 -0.4513
vn 0.4173 -0.8810 -0.2231
vn 0.2254 0.9565 -0.1850
vn 0.7693 -0.0975 -0.6314
vn 0.0761 -0.9951 -0.0625
vn 0.0761 0.9951 -0.0625
vn 0.7693 0.0975 -0.6314
vn 0.2254 -0.9565 -0.1850
vn 0.7400 0.2890 -0.6073
vn 0.3658 -0.8810 -0.3002
vn 0.6825 0.4696 -0.5601
vn 0.4918 -0.7715 -0.4036
vn 0.5987 0.6326 -0.4913
vn 0.5987 -0.6326 -0.4913
vn 0.4918 0.7715 -0.4036
vn 0.6825 -0.4696 -0.5601
vn 0.3658 0.8810 -0.3002
vn 0.7400 -0.2890 -0.6073
vn 0.4913 0.6326 -0.5987
vn 0.4913 -0.6326 -0.5987
vn 0.4036 0.7715 -0.4918
vn 0.5601 -0.4696 -0.6825
vn 0.3002 0.8810 -0.3658
vn 0.6073 -0.2890 -0.7400
vn 0.1850 0.9565 -0.2254
vn 0.6314 -0.0975 -0.7693
vn 0.0625 -0.9951 -0.0761
vn 0.0625 0.9951 -0.0761
vn 0.6314 0.0975 -0.7693
vn 0.1850 -0.9565 -0.2254
vn 0.6073 0.2890 -0.7400
vn 0.3002 -0.8810 -0.3658
vn 0.5601 0.4696 -0.6825
vn 0.4036 -0.7715 -0.4918
vn 0.0464 -0.9951 -0.0869
vn 0.0464 0.9951 -0.0869
vn 0.4691 0.0975 -0.8777
vn 0.1374 -0.9565 -0.2571
vn 0.4513 0.2890 -0.8443
vn 0.2230 -0.8810 -0.4173
vn 0.4162 0.4696 -0.7786
vn 0.2999 -0.7715 -0.5611
vn 0.3651 0.6326 -0.6831
vn 0.3651 -0.6326 -0.6831
vn 0.2999 0.7715 -0.5611
vn 0.4162 -0.4696 -0.7786
vn 0.2230 0.8810 -0.4173
vn 0.4513 -0.2890 -0.8443
vn 0.1374 0.9565 -0.2571
vn 0.4691 -0.0975 -0.8777
vn 0.2248 -0.6326 -0.7412
vn 0.1847 0.7715 -0.6088
vn 0.2563 -0.4696 -0.8448
vn 0.1374 0.8810 -0.4528
vn 0.2779 -0.2890 -0.9161
vn 0.0846 0.9565 -0.2790
vn 0.2889 -0.0975 -0.9524
vn 0.0286 -0.9951 -0.0942
vn 0.0286 0.9951 -0.0942
vn 0.2889 0.0975 -0.9524
vn 0.0846 -0.9565 -0.2790
vn 0.2779 0.2890 -0.9161
vn 0.1374 -0.8810 -0.4528
vn 0.2563 0.4696 -0.8448
vn 0.1847 -0.7715 -0.6088
vn 0.2248 0.6326 -0.7412
vn 0.0976 0.0975 -0.9904
vn 0.0286 -0.9565 -0.2902
vn 0.0938 0.2890 -0.9527
vn 0.0464 -0.8810 -0.4709
vn 0.0865 0.4696 -0.8786
vn 0.0624 -0.7715 -0.6332
vn 0.0759 0.6326 -0.7708
vn 0.0759 -0.6326 -0.7708
vn 0.0624 0.7715 -0.6332
vn 0.0865 -0.4696 -0.8786
vn 0.0464 0.8810 -0.4709
vn 0.0938 -0.2890 -0.9527
vn 0.0286 0.9565 -0.2902
vn 0.0976 -0.0975 -0.9904
vn 0.0097 -0.9951 -0.0980
vn 0.0097 0.9951 -0.0980
vn -0.0975 0.0975 -0.9904
vn -0.0975 -0.0976 -0.9904
vn -0.2889 0.0976 -0.9524
vn -0.2231 0.8810 -0.4173
vn -0.2230 -0.8810 -0.4173
vn -0.4173 -0.8810 0.2231
vn 0.0976 -0.0975 0.9904
vn 0.0976 0.0975 0.9904
vn 0.2231 -0.8810 0.4173
vn 0.2231 0.8810 0.4173
vn 0.2254 -0.9565 0.1850
vn 0.9904 -0.0975 0.0975
vn 0.9904 0.0975 0.0975
vn 0.9904 -0.0975 -0.0975
vn 0.9904 0.0975 -0.0975
vt 0.750000 0.937500
vt 0.718750 0.937500
vt 0.734375 1.000000
vt 0.734375 0.000000
vt 0.718750 0.062500
vt 0.750000 0.062500
vt 0.718750 0.437500
vt 0.750000 0.500000
vt 0.750000 0.437500
vt 0.750000 0.875000
vt 0.718750 0.375000
vt 0.750000 0.375000
vt 0.750000 0.812500
vt 0.718750 0.875000
vt 0.718750 0.312500
vt 0.750000 0.312500
vt 0.750000 0.750000
vt 0.718750 0.812500
vt 0.718750 0.250000
vt 0.750000 0.250000
vt 0.718750 0.687500
vt 0.750000 0.687500
vt 0.718750 0.187500
vt 0.750000 0.187500
vt 0.750000 0.625000
vt 0.718750 0.125000
vt 0.750000 0.125000
vt 0.750000 0.562500
vt 0.718750 0.625000
vt 0.718750 0.500000
vt 0.687500 0.062500
vt 0.687500 0.500000
vt 0.718750 0.562500
vt 0.687500 0.937500
vt 0.703125 1.000000
vt 0.703125 0.000000
vt 0.687500 0.437500
vt 0.687500 0.875000
vt 0.687500 0.375000
vt 0.687500 0.812500
vt 0.687500 0.312500
vt 0.687500 0.750000
vt 0.718750 0.750000
vt 0.687500 0.250000
vt 0.687500 0.687500
vt 0.687500 0.625000
vt 0.687500 0.187500
vt 0.656250 0.750000
vt 0.656250 0.312500
vt 0.656250 0.687500
vt 0.656250 0.250000
vt 0.656250 0.625000
vt 0.656250 0.125000
vt 0.687500 0.125000
vt 0.687500 0.562500
vt 0.656250 0.500000
vt 0.656250 0.937500
vt 0.671875 1.000000
vt 0.671875 0.000000
vt 0.656250 0.062500
vt 0.656250 0.875000
vt 0.656250 0.375000
vt 0.656250 0.812500
vt 0.625000 0.500000
vt 0.656250 0.562500
vt 0.625000 0.937500
vt 0.640625 1.000000
vt 0.640625 0.000000
vt 0.625000 0.062500
vt 0.625000 0.437500
vt 0.656250 0.437500
vt 0.625000 0.875000
vt 0.625000 0.375000
vt 0.625000 0.812500
vt 0.625000 0.750000
vt 0.625000 0.250000
vt 0.625000 0.687500
vt 0.625000 0.187500
vt 0.656250 0.187500
vt 0.625000 0.625000
vt 0.593750 0.250000
vt 0.625000 0.312500
vt 0.593750 0.750000
vt 0.593750 0.625000
vt 0.593750 0.125000
vt 0.625000 0.125000
vt 0.625000 0.562500
vt 0.593750 0.062500
vt 0.593750 0.562500
vt 0.593750 0.937500
vt 0.609375 1.000000
vt 0.609375 0.000000
vt 0.593750 0.437500
vt 0.593750 0.875000
vt 0.593750 0.375000
vt 0.593750 0.812500
vt 0.562500 0.937500
vt 0.578125 1.000000
vt 0.578125 0.000000
vt 0.562500 0.062500
vt 0.562500 0.437500
vt 0.593750 0.500000
vt 0.562500 0.875000
vt 0.562500 0.375000
vt 0.562500 0.812500
vt 0.593750 0.312500
vt 0.562500 0.250000
vt 0.593750 0.687500
vt 0.562500 0.750000
vt 0.562500 0.187500
vt 0.593750 0.187500
vt 0.562500 0.625000
vt 0.562500 0.125000
vt 0.562500 0.562500
vt 0.562500 0.687500
vt 0.531250 0.750000
vt 0.531250 0.250000
vt 0.531250 0.625000
vt 0.531250 0.187500
vt 0.531250 0.062500
vt 0.562500 0.500000
vt 0.531250 0.562500
vt 0.531250 0.937500
vt 0.546875 1.000000
vt 0.546875 0.000000
vt 0.531250 0.437500
vt 0.531250 0.875000
vt 0.531250 0.375000
vt 0.531250 0.812500
vt 0.562500 0.312500
vt 0.500000 0.437500
vt 0.531250 0.500000
vt 0.500000 0.875000
vt 0.500000 0.375000
vt 0.500000 0.812500
vt 0.531250 0.312500
vt 0.500000 0.750000
vt 0.500000 0.250000
vt 0.531250 0.687500
vt 0.500000 0.625000
vt 0.500000 0.125000
vt 0.531250 0.125000
vt 0.500000 0.562500
vt 0.500000 0.937500
vt 0.515625 1.000000
vt 0.515625 0.000000
vt 0.500000 0.062500
vt 0.500000 0.187500
vt 0.468750 0.250000
vt 0.468750 0.625000
vt 0.500000 0.687500
vt 0.468750 0.125000
vt 0.468750 0.062500
vt 0.500000 0.500000
vt 0.468750 0.562500
vt 0.468750 0.937500
vt 0.484375 1.000000
vt 0.484375 0.000000
vt 0.468750 0.437500
vt 0.468750 0.375000
vt 0.468750 0.812500
vt 0.500000 0.312500
vt 0.468750 0.750000
vt 0.437500 0.375000
vt 0.437500 0.812500
vt 0.468750 0.875000
vt 0.468750 0.312500
vt 0.437500 0.750000
vt 0.437500 0.250000
vt 0.468750 0.687500
vt 0.468750 0.187500
vt 0.437500 0.625000
vt 0.437500 0.125000
vt 0.437500 0.062500
vt 0.468750 0.500000
vt 0.437500 0.562500
vt 0.437500 0.937500
vt 0.453125 1.000000
vt 0.453125 0.000000
vt 0.437500 0.437500
vt 0.437500 0.875000
vt 0.406250 0.125000
vt 0.437500 0.187500
vt 0.406250 0.625000
vt 0.437500 0.500000
vt 0.406250 0.562500
vt 0.406250 0.937500
vt 0.421875 1.000000
vt 0.421875 0.000000
vt 0.406250 0.062500
vt 0.406250 0.437500
vt 0.406250 0.875000
vt 0.406250 0.375000
vt 0.437500 0.312500
vt 0.406250 0.750000
vt 0.406250 0.250000
vt 0.437500 0.687500
vt 0.375000 0.812500
vt 0.406250 0.812500
vt 0.406250 0.312500
vt 0.375000 0.375000
vt 0.375000 0.750000
vt 0.375000 0.250000
vt 0.406250 0.687500
vt 0.406250 0.187500
vt 0.375000 0.625000
vt 0.375000 0.125000
vt 0.406250 0.500000
vt 0.375000 0.562500
vt 0.375000 0.937500
vt 0.390625 1.000000
vt 0.390625 0.000000
vt 0.375000 0.062500
vt 0.375000 0.437500
vt 0.375000 0.875000
vt 0.343750 0.625000
vt 0.343750 0.062500
vt 0.375000 0.500000
vt 0.343750 0.562500
vt 0.343750 0.937500
vt 0.359375 1.000000
vt 0.359375 0.000000
vt 0.343750 0.437500
vt 0.343750 0.375000
vt 0.343750 0.875000
vt 0.375000 0.312500
vt 0.343750 0.750000
vt 0.343750 0.250000
vt 0.375000 0.687500
vt 0.375000 0.187500
vt 0.343750 0.125000
vt 0.343750 0.312500
vt 0.312500 0.375000
vt 0.312500 0.750000
vt 0.343750 0.812500
vt 0.312500 0.250000
vt 0.343750 0.687500
vt 0.343750 0.187500
vt 0.312500 0.625000
vt 0.312500 0.125000
vt 0.312500 0.062500
vt 0.343750 0.500000
vt 0.312500 0.562500
vt 0.312500 0.937500
vt 0.328125 1.000000
vt 0.328125 0.000000
vt 0.312500 0.437500
vt 0.312500 0.875000
vt 0.312500 0.812500
vt 0.281250 0.062500
vt 0.312500 0.500000
vt 0.281250 0.562500
vt 0.281250 0.937500
vt 0.296875 1.000000
vt 0.296875 0.000000
vt 0.281250 0.437500
vt 0.281250 0.875000
vt 0.281250 0.375000
vt 0.281250 0.812500
vt 0.312500 0.312500
vt 0.281250 0.750000
vt 0.281250 0.250000
vt 0.312500 0.687500
vt 0.312500 0.187500
vt 0.281250 0.625000
vt 0.281250 0.125000
vt 0.250000 0.750000
vt 0.250000 0.250000
vt 0.281250 0.312500
vt 0.281250 0.687500
vt 0.281250 0.187500
vt 0.250000 0.625000
vt 0.250000 0.125000
vt 0.250000 0.062500
vt 0.281250 0.500000
vt 0.250000 0.562500
vt 0.250000 0.937500
vt 0.265625 1.000000
vt 0.265625 0.000000
vt 0.250000 0.437500
vt 0.250000 0.875000
vt 0.250000 0.375000
vt 0.250000 0.812500
vt 0.250000 0.500000
vt 0.218750 0.562500
vt 0.218750 0.937500
vt 0.234375 1.000000
vt 0.234375 0.000000
vt 0.218750 0.062500
vt 0.218750 0.437500
vt 0.218750 0.875000
vt 0.218750 0.375000
vt 0.218750 0.812500
vt 0.250000 0.312500
vt 0.218750 0.750000
vt 0.218750 0.250000
vt 0.250000 0.687500
vt 0.250000 0.187500
vt 0.218750 0.625000
vt 0.218750 0.125000
vt 0.187500 0.250000
vt 0.218750 0.312500
vt 0.218750 0.687500
vt 0.187500 0.750000
vt 0.218750 0.187500
vt 0.187500 0.625000
vt 0.187500 0.187500
vt 0.187500 0.062500
vt 0.218750 0.500000
vt 0.187500 0.562500
vt 0.187500 0.937500
vt 0.203125 1.000000
vt 0.203125 0.000000
vt 0.187500 0.437500
vt 0.187500 0.375000
vt 0.187500 0.812500
vt 0.171875 0.000000
vt 0.156250 0.062500
vt 0.156250 0.437500
vt 0.187500 0.500000
vt 0.156250 0.875000
vt 0.187500 0.875000
vt 0.156250 0.375000
vt 0.156250 0.812500
vt 0.187500 0.312500
vt 0.156250 0.750000
vt 0.156250 0.250000
vt 0.187500 0.687500
vt 0.156250 0.625000
vt 0.187500 0.125000
vt 0.156250 0.187500
vt 0.156250 0.562500
vt 0.156250 0.937500
vt 0.171875 1.000000
vt 0.125000 0.250000
vt 0.125000 0.625000
vt 0.156250 0.687500
vt 0.125000 0.125000
vt 0.156250 0.125000
vt 0.125000 0.062500
vt 0.156250 0.500000
vt 0.125000 0.562500
vt 0.125000 0.937500
vt 0.140625 1.000000
vt 0.140625 0.000000
vt 0.125000 0.437500
vt 0.125000 0.875000
vt 0.125000 0.375000
vt 0.156250 0.312500
vt 0.125000 0.750000
vt 0.093750 0.937500
vt 0.093750 0.375000
vt 0.125000 0.812500
vt 0.093750 0.875000
vt 0.125000 0.312500
vt 0.093750 0.750000
vt 0.093750 0.250000
vt 0.125000 0.687500
vt 0.125000 0.187500
vt 0.093750 0.625000
vt 0.093750 0.125000
vt 0.093750 0.062500
vt 0.125000 0.500000
vt 0.093750 0.562500
vt 0.109375 1.000000
vt 0.109375 0.000000
vt 0.093750 0.437500
vt 0.062500 0.625000
vt 0.093750 0.687500
vt 0.062500 0.187500
vt 0.093750 0.187500
vt 0.062500 0.062500
vt 0.093750 0.500000
vt 0.062500 0.562500
vt 0.062500 0.937500
vt 0.078125 1.000000
vt 0.078125 0.000000
vt 0.062500 0.437500
vt 0.062500 0.875000
vt 0.062500 0.375000
vt 0.093750 0.812500
vt 0.093750 0.312500
vt 0.062500 0.750000
vt 0.062500 0.250000
vt 0.031250 0.375000
vt 0.031250 0.812500
vt 0.062500 0.812500
vt 0.062500 0.312500
vt 0.031250 0.750000
vt 0.031250 0.250000
vt 0.062500 0.687500
vt 0.031250 0.625000
vt 0.031250 0.125000
vt 0.062500 0.125000
vt 0.062500 0.500000
vt 0.031250 0.562500
vt 0.031250 0.937500
vt 0.046875 1.000000
vt 0.046875 0.000000
vt 0.031250 0.062500
vt 0.031250 0.437500
vt 0.000000 0.125000
vt 0.031250 0.187500
vt 0.000000 0.625000
vt 0.000000 0.062500
vt 0.031250 0.500000
vt 0.000000 0.562500
vt 0.000000 0.937500
vt 0.015625 1.000000
vt 0.015625 0.000000
vt 0.000000 0.437500
vt 0.000000 0.875000
vt 0.031250 0.875000
vt 0.000000 0.375000
vt 0.000000 0.812500
vt 0.031250 0.312500
vt 0.000000 0.750000
vt 0.000000 0.250000
vt 0.031250 0.687500
vt 1.000000 0.812500
vt 0.968750 0.875000
vt 1.000000 0.875000
vt 1.000000 0.312500
vt 0.968750 0.375000
vt 1.000000 0.375000
vt 0.968750 0.750000
vt 1.000000 0.750000
vt 0.968750 0.250000
vt 1.000000 0.250000
vt 1.000000 0.687500
vt 1.000000 0.187500
vt 0.968750 0.625000
vt 1.000000 0.625000
vt 0.968750 0.125000
vt 1.000000 0.125000
vt 1.000000 0.562500
vt 0.968750 0.062500
vt 1.000000 0.062500
vt 1.000000 0.500000
vt 0.968750 0.562500
vt 1.000000 0.937500
vt 0.968750 0.937500
vt 0.984375 1.000000
vt 0.984375 0.000000
vt 0.968750 0.437500
vt 1.000000 0.437500
vt 0.937500 0.625000
vt 0.937500 0.062500
vt 0.968750 0.500000
vt 0.937500 0.562500
vt 0.937500 0.937500
vt 0.953125 1.000000
vt 0.953125 0.000000
vt 0.937500 0.437500
vt 0.937500 0.875000
vt 0.937500 0.375000
vt 0.968750 0.812500
vt 0.968750 0.312500
vt 0.937500 0.750000
vt 0.937500 0.250000
vt 0.968750 0.687500
vt 0.968750 0.187500
vt 0.937500 0.125000
vt 0.937500 0.312500
vt 0.906250 0.375000
vt 0.906250 0.750000
vt 0.937500 0.812500
vt 0.906250 0.250000
vt 0.937500 0.687500
vt 0.937500 0.187500
vt 0.906250 0.625000
vt 0.906250 0.187500
vt 0.906250 0.062500
vt 0.937500 0.500000
vt 0.906250 0.562500
vt 0.906250 0.937500
vt 0.921875 1.000000
vt 0.921875 0.000000
vt 0.906250 0.437500
vt 0.906250 0.812500
vt 0.875000 0.125000
vt 0.906250 0.125000
vt 0.906250 0.500000
vt 0.875000 0.562500
vt 0.875000 0.937500
vt 0.890625 1.000000
vt 0.890625 0.000000
vt 0.875000 0.062500
vt 0.875000 0.437500
vt 0.875000 0.875000
vt 0.906250 0.875000
vt 0.875000 0.375000
vt 0.906250 0.312500
vt 0.875000 0.750000
vt 0.875000 0.250000
vt 0.906250 0.687500
vt 0.875000 0.625000
vt 0.843750 0.250000
vt 0.875000 0.312500
vt 0.875000 0.687500
vt 0.843750 0.750000
vt 0.875000 0.187500
vt 0.843750 0.625000
vt 0.843750 0.125000
vt 0.843750 0.062500
vt 0.875000 0.500000
vt 0.843750 0.562500
vt 0.843750 0.937500
vt 0.859375 1.000000
vt 0.859375 0.000000
vt 0.843750 0.437500
vt 0.843750 0.875000
vt 0.843750 0.375000
vt 0.875000 0.812500
vt 0.812500 0.937500
vt 0.828125 1.000000
vt 0.828125 0.000000
vt 0.812500 0.062500
vt 0.812500 0.437500
vt 0.843750 0.500000
vt 0.812500 0.875000
vt 0.812500 0.375000
vt 0.843750 0.812500
vt 0.843750 0.312500
vt 0.812500 0.750000
vt 0.812500 0.250000
vt 0.843750 0.687500
vt 0.843750 0.187500
vt 0.812500 0.625000
vt 0.812500 0.125000
vt 0.812500 0.562500
vt 0.812500 0.687500
vt 0.781250 0.750000
vt 0.812500 0.187500
vt 0.781250 0.250000
vt 0.781250 0.625000
vt 0.781250 0.125000
vt 0.781250 0.062500
vt 0.812500 0.500000
vt 0.781250 0.562500
vt 0.781250 0.937500
vt 0.796875 1.000000
vt 0.796875 0.000000
vt 0.781250 0.437500
vt 0.781250 0.875000
vt 0.781250 0.375000
vt 0.812500 0.812500
vt 0.812500 0.312500
vt 0.781250 0.500000
vt 0.781250 0.812500
vt 0.781250 0.312500
vt 0.781250 0.687500
vt 0.781250 0.187500
vt 0.765625 1.000000
vt 0.765625 0.000000
vt 0.000000 0.187500
vt 0.000000 0.500000
vt 0.000000 0.312500
vt 0.000000 0.687500
s 0
usemtl マテリアル
f 474/1/1 1/3/1 9/2/1
f 8/4/2 482/6/2 23/5/2
f 17/7/3 6/9/3 5/8/3
f 475/10/4 474/1/4 9/2/4
f 18/11/5 478/12/5 6/9/5
f 2/13/6 475/10/6 10/14/6
f 19/15/7 7/16/7 478/12/7
f 476/17/8 2/13/8 11/18/8
f 20/19/9 479/20/9 7/16/9
f 13/21/10 3/22/10 476/17/10
f 21/23/11 480/24/11 479/20/11
f 477/25/12 3/22/12 13/21/12
f 22/26/13 481/27/13 480/24/13
f 4/28/14 477/25/14 14/29/14
f 23/5/15 482/6/15 481/27/15
f 16/30/16 5/8/16 4/28/16
f 38/31/17 23/5/17 22/26/17
f 31/32/18 16/30/18 15/33/18
f 9/2/19 1/35/19 24/34/19
f 8/36/20 23/5/20 38/31/20
f 32/37/21 17/7/21 16/30/21
f 25/38/22 10/14/22 9/2/22
f 33/39/23 18/11/23 17/7/23
f 26/40/24 11/18/24 10/14/24
f 34/41/25 19/15/25 18/11/25
f 27/42/26 12/43/26 11/18/26
f 35/44/27 20/19/27 19/15/27
f 28/45/28 13/21/28 12/43/28
f 21/23/29 20/19/29 35/44/29
f 29/46/30 14/29/30 13/21/30
f 22/26/31 21/23/31 36/47/31
f 15/33/32 14/29/32 29/46/32
f 42/48/33 27/42/33 26/40/33
f 35/44/34 34/41/34 49/49/34
f 43/50/35 28/45/35 27/42/35
f 36/47/36 35/44/36 50/51/36
f 44/52/37 29/46/37 28/45/37
f 52/53/38 37/54/38 36/47/38
f 30/55/39 29/46/39 44/52/39
f 38/31/40 37/54/40 52/53/40
f 46/56/41 31/32/41 30/55/41
f 24/34/42 1/58/42 39/57/42
f 8/59/43 38/31/43 53/60/43
f 32/37/44 31/32/44 46/56/44
f 40/61/45 25/38/45 24/34/45
f 48/62/46 33/39/46 32/37/46
f 41/63/47 26/40/47 25/38/47
f 34/41/48 33/39/48 48/62/48
f 61/64/49 46/56/49 45/65/49
f 39/57/50 1/67/50 54/66/50
f 8/68/51 53/60/51 68/69/51
f 62/70/52 47/71/52 46/56/52
f 55/72/53 40/61/53 39/57/53
f 63/73/54 48/62/54 47/71/54
f 56/74/55 41/63/55 40/61/55
f 49/49/56 48/62/56 63/73/56
f 57/75/57 42/48/57 41/63/57
f 65/76/58 50/51/58 49/49/58
f 58/77/59 43/50/59 42/48/59
f 66/78/60 51/79/60 50/51/60
f 59/80/61 44/52/61 43/50/61
f 52/53/62 51/79/62 66/78/62
f 45/65/63 44/52/63 59/80/63
f 68/69/64 53/60/64 52/53/64
f 80/81/65 65/76/65 64/82/65
f 58/77/66 57/75/66 72/83/66
f 66/78/67 65/76/67 80/81/67
f 74/84/68 59/80/68 58/77/68
f 82/85/69 67/86/69 66/78/69
f 60/87/70 59/80/70 74/84/70
f 83/88/71 68/69/71 67/86/71
f 61/64/72 60/87/72 75/89/72
f 54/66/73 1/91/73 69/90/73
f 8/92/74 68/69/74 83/88/74
f 77/93/75 62/70/75 61/64/75
f 70/94/76 55/72/76 54/66/76
f 78/95/77 63/73/77 62/70/77
f 71/96/78 56/74/78 55/72/78
f 64/82/79 63/73/79 78/95/79
f 72/83/80 57/75/80 56/74/80
f 69/90/81 1/98/81 84/97/81
f 8/99/82 83/88/82 98/100/82
f 92/101/83 77/93/83 76/102/83
f 85/103/84 70/94/84 69/90/84
f 93/104/85 78/95/85 77/93/85
f 86/105/86 71/96/86 70/94/86
f 79/106/87 78/95/87 93/104/87
f 72/83/88 71/96/88 86/105/88
f 95/107/89 80/81/89 79/106/89
f 73/108/90 72/83/90 87/109/90
f 96/110/91 81/111/91 80/81/91
f 89/112/92 74/84/92 73/108/92
f 97/113/93 82/85/93 81/111/93
f 75/89/94 74/84/94 89/112/94
f 83/88/95 82/85/95 97/113/95
f 76/102/96 75/89/96 90/114/96
f 88/115/97 87/109/97 102/116/97
f 96/110/98 95/107/98 110/117/98
f 104/118/99 89/112/99 88/115/99
f 97/113/100 96/110/100 111/119/100
f 90/114/101 89/112/101 104/118/101
f 113/120/102 98/100/102 97/113/102
f 91/121/103 90/114/103 105/122/103
f 84/97/104 1/124/104 99/123/104
f 8/125/105 98/100/105 113/120/105
f 107/126/106 92/101/106 91/121/106
f 100/127/107 85/103/107 84/97/107
f 108/128/108 93/104/108 92/101/108
f 101/129/109 86/105/109 85/103/109
f 94/130/110 93/104/110 108/128/110
f 102/116/111 87/109/111 86/105/111
f 110/117/112 95/107/112 94/130/112
f 122/131/113 107/126/113 106/132/113
f 115/133/114 100/127/114 99/123/114
f 123/134/115 108/128/115 107/126/115
f 116/135/116 101/129/116 100/127/116
f 109/136/117 108/128/117 123/134/117
f 117/137/118 102/116/118 101/129/118
f 125/138/119 110/117/119 109/136/119
f 103/139/120 102/116/120 117/137/120
f 111/119/121 110/117/121 125/138/121
f 119/140/122 104/118/122 103/139/122
f 127/141/123 112/142/123 111/119/123
f 105/122/124 104/118/124 119/140/124
f 113/120/125 112/142/125 127/141/125
f 106/132/126 105/122/126 120/143/126
f 99/123/127 1/145/127 114/144/127
f 8/146/128 113/120/128 128/147/128
f 126/148/129 125/138/129 140/149/129
f 134/150/130 119/140/130 118/151/130
f 142/152/131 127/141/131 126/148/131
f 120/143/132 119/140/132 134/150/132
f 143/153/133 128/147/133 127/141/133
f 121/154/134 120/143/134 135/155/134
f 114/144/135 1/157/135 129/156/135
f 8/158/136 128/147/136 143/153/136
f 137/159/137 122/131/137 121/154/137
f 115/133/138 114/144/138 129/156/138
f 138/160/139 123/134/139 122/131/139
f 131/161/140 116/135/140 115/133/140
f 124/162/141 123/134/141 138/160/141
f 132/163/142 117/137/142 116/135/142
f 140/149/143 125/138/143 124/162/143
f 118/151/144 117/137/144 132/163/144
f 153/164/145 138/160/145 137/159/145
f 146/165/146 131/161/146 130/166/146
f 139/167/147 138/160/147 153/164/147
f 147/168/148 132/163/148 131/161/148
f 155/169/149 140/149/149 139/167/149
f 133/170/150 132/163/150 147/168/150
f 141/171/151 140/149/151 155/169/151
f 149/172/152 134/150/152 133/170/152
f 157/173/153 142/152/153 141/171/153
f 135/155/154 134/150/154 149/172/154
f 158/174/155 143/153/155 142/152/155
f 136/175/156 135/155/156 150/176/156
f 129/156/157 1/178/157 144/177/157
f 8/179/158 143/153/158 158/174/158
f 152/180/159 137/159/159 136/175/159
f 145/181/160 130/166/160 129/156/160
f 172/182/161 157/173/161 156/183/161
f 150/176/162 149/172/162 164/184/162
f 158/174/163 157/173/163 172/182/163
f 151/185/164 150/176/164 165/186/164
f 144/177/165 1/188/165 159/187/165
f 8/189/166 158/174/166 173/190/166
f 167/191/167 152/180/167 151/185/167
f 160/192/168 145/181/168 144/177/168
f 168/193/169 153/164/169 152/180/169
f 146/165/170 145/181/170 160/192/170
f 154/194/171 153/164/171 168/193/171
f 162/195/172 147/168/172 146/165/172
f 170/196/173 155/169/173 154/194/173
f 148/197/174 147/168/174 162/195/174
f 156/183/175 155/169/175 170/196/175
f 164/184/176 149/172/176 148/197/176
f 176/198/177 161/199/177 160/192/177
f 169/200/178 168/193/178 183/201/178
f 177/202/179 162/195/179 161/199/179
f 185/203/180 170/196/180 169/200/180
f 163/204/181 162/195/181 177/202/181
f 171/205/182 170/196/182 185/203/182
f 179/206/183 164/184/183 163/204/183
f 187/207/184 172/182/184 171/205/184
f 165/186/185 164/184/185 179/206/185
f 173/190/186 172/182/186 187/207/186
f 166/208/187 165/186/187 180/209/187
f 159/187/188 1/211/188 174/210/188
f 8/212/189 173/190/189 188/213/189
f 182/214/190 167/191/190 166/208/190
f 175/215/191 160/192/191 159/187/191
f 183/201/192 168/193/192 167/191/192
f 180/209/193 179/206/193 194/216/193
f 203/217/194 188/213/194 187/207/194
f 181/218/195 180/209/195 195/219/195
f 174/210/196 1/221/196 189/220/196
f 8/222/197 188/213/197 203/217/197
f 197/223/198 182/214/198 181/218/198
f 175/215/199 174/210/199 189/220/199
f 198/224/200 183/201/200 182/214/200
f 176/198/201 175/215/201 190/225/201
f 184/226/202 183/201/202 198/224/202
f 192/227/203 177/202/203 176/198/203
f 200/228/204 185/203/204 184/226/204
f 178/229/205 177/202/205 192/227/205
f 186/230/206 185/203/206 200/228/206
f 194/216/207 179/206/207 178/229/207
f 202/231/208 187/207/208 186/230/208
f 199/232/209 198/224/209 213/233/209
f 207/234/210 192/227/210 191/235/210
f 215/236/211 200/228/211 199/232/211
f 193/237/212 192/227/212 207/234/212
f 201/238/213 200/228/213 215/236/213
f 209/239/214 194/216/214 193/237/214
f 217/240/215 202/231/215 201/238/215
f 195/219/216 194/216/216 209/239/216
f 218/241/217 203/217/217 202/231/217
f 196/242/218 195/219/218 210/243/218
f 189/220/219 1/245/219 204/244/219
f 8/246/220 203/217/220 218/241/220
f 212/247/221 197/223/221 196/242/221
f 205/248/222 190/225/222 189/220/222
f 213/233/223 198/224/223 197/223/223
f 206/249/224 191/235/224 190/225/224
f 233/250/225 218/241/225 217/240/225
f 211/251/226 210/243/226 225/252/226
f 204/244/227 1/254/227 219/253/227
f 8/255/228 218/241/228 233/250/228
f 227/256/229 212/247/229 211/251/229
f 220/257/230 205/248/230 204/244/230
f 228/258/231 213/233/231 212/247/231
f 221/259/232 206/249/232 205/248/232
f 214/260/233 213/233/233 228/258/233
f 222/261/234 207/234/234 206/249/234
f 230/262/235 215/236/235 214/260/235
f 208/263/236 207/234/236 222/261/236
f 216/264/237 215/236/237 230/262/237
f 224/265/238 209/239/238 208/263/238
f 232/266/239 217/240/239 216/264/239
f 210/243/240 209/239/240 224/265/240
f 237/267/241 222/261/241 221/259/241
f 245/268/242 230/262/242 229/269/242
f 223/270/243 222/261/243 237/267/243
f 231/271/244 230/262/244 245/268/244
f 239/272/245 224/265/245 223/270/245
f 247/273/246 232/266/246 231/271/246
f 225/252/247 224/265/247 239/272/247
f 248/274/248 233/250/248 232/266/248
f 226/275/249 225/252/249 240/276/249
f 219/253/250 1/278/250 234/277/250
f 8/279/251 233/250/251 248/274/251
f 242/280/252 227/256/252 226/275/252
f 235/281/253 220/257/253 219/253/253
f 243/282/254 228/258/254 227/256/254
f 236/283/255 221/259/255 220/257/255
f 229/269/256 228/258/256 243/282/256
f 241/284/257 240/276/257 255/285/257
f 234/277/258 1/287/258 249/286/258
f 8/288/259 248/274/259 263/289/259
f 257/290/260 242/280/260 241/284/260
f 250/291/261 235/281/261 234/277/261
f 258/292/262 243/282/262 242/280/262
f 251/293/263 236/283/263 235/281/263
f 244/294/264 243/282/264 258/292/264
f 252/295/265 237/267/265 236/283/265
f 260/296/266 245/268/266 244/294/266
f 238/297/267 237/267/267 252/295/267
f 246/298/268 245/268/268 260/296/268
f 254/299/269 239/272/269 238/297/269
f 262/300/270 247/273/270 246/298/270
f 240/276/271 239/272/271 254/299/271
f 248/274/272 247/273/272 262/300/272
f 275/301/273 260/296/273 259/302/273
f 253/303/274 252/295/274 267/304/274
f 261/305/275 260/296/275 275/301/275
f 269/306/276 254/299/276 253/303/276
f 262/300/277 261/305/277 276/307/277
f 255/285/278 254/299/278 269/306/278
f 278/308/279 263/289/279 262/300/279
f 256/309/280 255/285/280 270/310/280
f 249/286/281 1/312/281 264/311/281
f 8/313/282 263/289/282 278/308/282
f 272/314/283 257/290/283 256/309/283
f 250/291/284 249/286/284 264/311/284
f 273/315/285 258/292/285 257/290/285
f 266/316/286 251/293/286 250/291/286
f 259/302/287 258/292/287 273/315/287
f 267/304/288 252/295/288 251/293/288
f 8/317/289 278/308/289 293/318/289
f 287/319/290 272/314/290 271/320/290
f 280/321/291 265/322/291 264/311/291
f 288/323/292 273/315/292 272/314/292
f 281/324/293 266/316/293 265/322/293
f 274/325/294 273/315/294 288/323/294
f 282/326/295 267/304/295 266/316/295
f 290/327/296 275/301/296 274/325/296
f 268/328/297 267/304/297 282/326/297
f 276/307/298 275/301/298 290/327/298
f 284/329/299 269/306/299 268/328/299
f 277/330/300 276/307/300 291/331/300
f 270/310/301 269/306/301 284/329/301
f 293/318/302 278/308/302 277/330/302
f 271/320/303 270/310/303 285/332/303
f 264/311/304 1/334/304 279/333/304
f 291/331/305 290/327/305 305/335/305
f 299/336/306 284/329/306 283/337/306
f 307/338/307 292/339/307 291/331/307
f 285/332/308 284/329/308 299/336/308
f 308/340/309 293/318/309 292/339/309
f 286/341/310 285/332/310 300/342/310
f 279/333/311 1/344/311 294/343/311
f 8/345/312 293/318/312 308/340/312
f 302/346/313 287/319/313 286/341/313
f 295/347/314 280/321/314 279/333/314
f 303/348/315 288/323/315 287/319/315
f 281/324/316 280/321/316 295/347/316
f 289/349/317 288/323/317 303/348/317
f 297/350/318 282/326/318 281/324/318
f 305/335/319 290/327/319 289/349/319
f 283/337/320 282/326/320 297/350/320
f 295/347/321 294/343/321 309/351/321
f 318/352/322 303/348/322 302/346/322
f 296/353/323 295/347/323 310/354/323
f 304/355/324 303/348/324 318/352/324
f 312/356/325 297/350/325 296/353/325
f 320/357/326 305/335/326 304/355/326
f 298/358/327 297/350/327 312/356/327
f 306/359/328 305/335/328 320/357/328
f 314/360/329 299/336/329 298/358/329
f 322/361/330 307/338/330 306/359/330
f 300/342/331 299/336/331 314/360/331
f 323/362/332 308/340/332 307/338/332
f 301/363/333 300/342/333 315/364/333
f 294/343/334 1/365/334 309/351/334
f 8/366/335 308/340/335 323/362/335
f 317/367/336 302/346/336 301/363/336
f 329/368/337 314/360/337 313/369/337
f 322/361/338 321/371/338 336/370/338
f 315/364/339 314/360/339 329/368/339
f 338/372/340 323/362/340 322/361/340
f 316/373/341 315/364/341 330/374/341
f 309/351/342 1/376/342 324/375/342
f 8/377/343 323/362/343 338/372/343
f 332/378/344 317/367/344 316/373/344
f 325/379/345 310/354/345 309/351/345
f 333/380/346 318/352/346 317/367/346
f 311/381/347 310/354/347 325/379/347
f 319/382/348 318/352/348 333/380/348
f 327/383/349 312/356/349 311/381/349
f 335/384/350 320/357/350 319/382/350
f 313/369/351 312/356/351 327/383/351
f 321/371/352 320/357/352 335/384/352
f 348/385/353 333/380/353 332/378/353
f 341/386/354 326/387/354 325/379/354
f 334/388/355 333/380/355 348/385/355
f 342/389/356 327/383/356 326/387/356
f 350/390/357 335/384/357 334/388/357
f 328/391/358 327/383/358 342/389/358
f 336/370/359 335/384/359 350/390/359
f 344/392/360 329/368/360 328/391/360
f 352/393/361 337/394/361 336/370/361
f 330/374/362 329/368/362 344/392/362
f 338/372/363 337/394/363 352/393/363
f 331/395/364 330/374/364 345/396/364
f 324/375/365 1/398/365 339/397/365
f 8/399/366 338/372/366 353/400/366
f 347/401/367 332/378/367 331/395/367
f 325/379/368 324/375/368 339/397/368
f 367/402/369 352/393/369 351/403/369
f 345/396/370 344/392/370 359/404/370
f 368/405/371 353/400/371 352/393/371
f 346/406/372 345/396/372 360/407/372
f 339/397/373 1/409/373 354/408/373
f 8/410/374 353/400/374 368/405/374
f 362/411/375 347/401/375 346/406/375
f 355/412/376 340/413/376 339/397/376
f 363/414/377 348/385/377 347/401/377
f 356/415/378 341/386/378 340/413/378
f 349/416/379 348/385/379 363/414/379
f 357/417/380 342/389/380 341/386/380
f 365/418/381 350/390/381 349/416/381
f 343/419/382 342/389/382 357/417/382
f 351/403/383 350/390/383 365/418/383
f 359/404/384 344/392/384 343/419/384
f 356/420/385 355/422/385 370/421/385
f 364/423/386 363/425/386 378/424/386
f 372/426/387 357/427/387 356/420/387
f 380/428/388 365/429/388 364/423/388
f 358/430/389 357/427/389 372/426/389
f 366/431/390 365/429/390 380/428/390
f 374/432/391 359/433/391 358/430/391
f 382/434/392 367/435/392 366/431/392
f 360/436/393 359/433/393 374/432/393
f 383/437/394 368/438/394 367/435/394
f 361/439/395 360/436/395 375/440/395
f 354/441/396 1/443/396 369/442/396
f 8/444/397 368/438/397 383/437/397
f 377/445/398 362/446/398 361/439/398
f 355/422/399 354/441/399 369/442/399
f 378/424/400 363/425/400 362/446/400
f 375/440/401 374/432/401 389/447/401
f 398/448/402 383/437/402 382/434/402
f 376/449/403 375/440/403 390/450/403
f 369/442/404 1/452/404 384/451/404
f 8/453/405 383/437/405 398/448/405
f 392/454/406 377/445/406 376/449/406
f 385/455/407 370/421/407 369/442/407
f 393/456/408 378/424/408 377/445/408
f 371/457/409 370/421/409 385/455/409
f 379/458/410 378/424/410 393/456/410
f 387/459/411 372/426/411 371/457/411
f 395/460/412 380/428/412 379/458/412
f 373/461/413 372/426/413 387/459/413
f 381/462/414 380/428/414 395/460/414
f 389/447/415 374/432/415 373/461/415
f 397/463/416 382/434/416 381/462/416
f 394/464/417 393/456/417 408/465/417
f 402/466/418 387/459/418 386/467/418
f 410/468/419 395/460/419 394/464/419
f 388/469/420 387/459/420 402/466/420
f 396/470/421 395/460/421 410/468/421
f 404/471/422 389/447/422 388/469/422
f 397/463/423 396/470/423 411/472/423
f 390/450/424 389/447/424 404/471/424
f 413/473/425 398/448/425 397/463/425
f 391/474/426 390/450/426 405/475/426
f 384/451/427 1/477/427 399/476/427
f 8/478/428 398/448/428 413/473/428
f 407/479/429 392/454/429 391/474/429
f 385/455/430 384/451/430 399/476/430
f 408/465/431 393/456/431 392/454/431
f 401/480/432 386/467/432 385/455/432
f 413/473/433 412/482/433 427/481/433
f 406/483/434 405/475/434 420/484/434
f 399/476/435 1/486/435 414/485/435
f 8/487/436 413/473/436 428/488/436
f 422/489/437 407/479/437 406/483/437
f 415/490/438 400/491/438 399/476/438
f 423/492/439 408/465/439 407/479/439
f 401/480/440 400/491/440 415/490/440
f 409/493/441 408/465/441 423/492/441
f 417/494/442 402/466/442 401/480/442
f 425/495/443 410/468/443 409/493/443
f 403/496/444 402/466/444 417/494/444
f 411/472/445 410/468/445 425/495/445
f 419/497/446 404/471/446 403/496/446
f 427/481/447 412/482/447 411/472/447
f 405/475/448 404/471/448 419/497/448
f 440/498/449 425/495/449 424/499/449
f 418/500/450 417/494/450 432/501/450
f 426/502/451 425/495/451 440/498/451
f 434/503/452 419/497/452 418/500/452
f 442/504/453 427/481/453 426/502/453
f 420/484/454 419/497/454 434/503/454
f 443/505/455 428/488/455 427/481/455
f 421/506/456 420/484/456 435/507/456
f 414/485/457 1/509/457 429/508/457
f 8/510/458 428/488/458 443/505/458
f 437/511/459 422/489/459 421/506/459
f 430/512/460 415/490/460 414/485/460
f 438/513/461 423/492/461 422/489/461
f 416/514/462 415/490/462 430/512/462
f 424/499/463 423/492/463 438/513/463
f 432/501/464 417/494/464 416/514/464
f 429/508/465 1/516/465 444/515/465
f 8/517/466 443/505/466 458/518/466
f 452/519/467 437/511/467 436/520/467
f 445/521/468 430/512/468 429/508/468
f 453/522/469 438/513/469 437/511/469
f 431/523/470 430/512/470 445/521/470
f 439/524/471 438/513/471 453/522/471
f 447/525/472 432/501/472 431/523/472
f 455/526/473 440/498/473 439/524/473
f 433/527/474 432/501/474 447/525/474
f 441/528/475 440/498/475 455/526/475
f 449/529/476 434/503/476 433/527/476
f 457/530/477 442/504/477 441/528/477
f 435/507/478 434/503/478 449/529/478
f 458/518/479 443/505/479 442/504/479
f 436/520/480 435/507/480 450/531/480
f 448/532/481 447/525/481 462/533/481
f 456/534/482 455/526/482 470/535/482
f 464/536/483 449/529/483 448/532/483
f 472/537/484 457/530/484 456/534/484
f 450/531/485 449/529/485 464/536/485
f 473/538/486 458/518/486 457/530/486
f 451/539/487 450/531/487 465/540/487
f 444/515/488 1/542/488 459/541/488
f 8/543/489 458/518/489 473/538/489
f 467/544/490 452/519/490 451/539/490
f 460/545/491 445/521/491 444/515/491
f 468/546/492 453/522/492 452/519/492
f 446/547/493 445/521/493 460/545/493
f 454/548/494 453/522/494 468/546/494
f 462/533/495 447/525/495 446/547/495
f 470/535/496 455/526/496 454/548/496
f 6/9/497 467/544/497 466/549/497
f 460/545/498 459/541/498 474/1/498
f 478/12/499 468/546/499 467/544/499
f 461/550/500 460/545/500 475/10/500
f 7/16/501 469/551/501 468/546/501
f 462/533/502 461/550/502 2/13/502
f 479/20/503 470/535/503 469/551/503
f 463/552/504 462/533/504 476/17/504
f 471/553/505 470/535/505 479/20/505
f 464/536/506 463/552/506 3/22/506
f 481/27/507 472/537/507 471/553/507
f 465/540/508 464/536/508 477/25/508
f 482/6/509 473/538/509 472/537/509
f 466/549/510 465/540/510 4/28/510
f 459/541/511 1/554/511 474/1/511
f 8/555/512 473/538/512 482/6/512
f 17/7/513 5/8/513 16/30/513
f 475/10/4 9/2/4 10/14/4
f 18/11/5 6/9/5 17/7/5
f 2/13/6 10/14/6 11/18/6
f 19/15/7 478/12/7 18/11/7
f 476/17/8 11/18/8 12/43/8
f 20/19/9 7/16/9 19/15/9
f 13/21/10 476/17/10 12/43/10
f 21/23/11 479/20/11 20/19/11
f 477/25/12 13/21/12 14/29/12
f 22/26/13 480/24/13 21/23/13
f 4/28/14 14/29/14 15/33/14
f 23/5/15 481/27/15 22/26/15
f 16/30/514 4/28/514 15/33/514
f 38/31/17 22/26/17 37/54/17
f 31/32/18 15/33/18 30/55/18
f 32/37/515 16/30/515 31/32/515
f 25/38/22 9/2/22 24/34/22
f 33/39/23 17/7/23 32/37/23
f 26/40/24 10/14/24 25/38/24
f 34/41/25 18/11/25 33/39/25
f 27/42/26 11/18/26 26/40/26
f 35/44/27 19/15/27 34/41/27
f 28/45/28 12/43/28 27/42/28
f 21/23/29 35/44/29 36/47/29
f 29/46/30 13/21/30 28/45/30
f 22/26/31 36/47/31 37/54/31
f 15/33/32 29/46/32 30/55/32
f 42/48/33 26/40/33 41/63/33
f 35/44/34 49/49/34 50/51/34
f 43/50/35 27/42/35 42/48/35
f 36/47/36 50/51/36 51/79/36
f 44/52/37 28/45/37 43/50/37
f 52/53/516 36/47/516 51/79/516
f 30/55/39 44/52/39 45/65/39
f 38/31/40 52/53/40 53/60/40
f 46/56/41 30/55/41 45/65/41
f 32/37/44 46/56/44 47/71/44
f 40/61/45 24/34/45 39/57/45
f 48/62/46 32/37/46 47/71/46
f 41/63/517 25/38/517 40/61/517
f 34/41/48 48/62/48 49/49/48
f 61/64/49 45/65/49 60/87/49
f 62/70/52 46/56/52 61/64/52
f 55/72/53 39/57/53 54/66/53
f 63/73/54 47/71/54 62/70/54
f 56/74/55 40/61/55 55/72/55
f 49/49/56 63/73/56 64/82/56
f 57/75/57 41/63/57 56/74/57
f 65/76/58 49/49/58 64/82/58
f 58/77/59 42/48/59 57/75/59
f 66/78/60 50/51/60 65/76/60
f 59/80/61 43/50/61 58/77/61
f 52/53/62 66/78/62 67/86/62
f 45/65/63 59/80/63 60/87/63
f 68/69/64 52/53/64 67/86/64
f 80/81/65 64/82/65 79/106/65
f 58/77/66 72/83/66 73/108/66
f 66/78/67 80/81/67 81/111/67
f 74/84/68 58/77/68 73/108/68
f 82/85/69 66/78/69 81/111/69
f 60/87/70 74/84/70 75/89/70
f 83/88/71 67/86/71 82/85/71
f 61/64/72 75/89/72 76/102/72
f 77/93/75 61/64/75 76/102/75
f 70/94/76 54/66/76 69/90/76
f 78/95/77 62/70/77 77/93/77
f 71/96/78 55/72/78 70/94/78
f 64/82/79 78/95/79 79/106/79
f 72/83/80 56/74/80 71/96/80
f 92/101/83 76/102/83 91/121/83
f 85/103/84 69/90/84 84/97/84
f 93/104/85 77/93/85 92/101/85
f 86/105/86 70/94/86 85/103/86
f 79/106/87 93/104/87 94/130/87
f 72/83/88 86/105/88 87/109/88
f 95/107/89 79/106/89 94/130/89
f 73/108/90 87/109/90 88/115/90
f 96/110/91 80/81/91 95/107/91
f 89/112/92 73/108/92 88/115/92
f 97/113/93 81/111/93 96/110/93
f 75/89/94 89/112/94 90/114/94
f 83/88/95 97/113/95 98/100/95
f 76/102/96 90/114/96 91/121/96
f 88/115/97 102/116/97 103/139/97
f 96/110/98 110/117/98 111/119/98
f 104/118/99 88/115/99 103/139/99
f 97/113/100 111/119/100 112/142/100
f 90/114/101 104/118/101 105/122/101
f 113/120/102 97/113/102 112/142/102
f 91/121/103 105/122/103 106/132/103
f 107/126/106 91/121/106 106/132/106
f 100/127/107 84/97/107 99/123/107
f 108/128/108 92/101/108 107/126/108
f 101/129/109 85/103/109 100/127/109
f 94/130/110 108/128/110 109/136/110
f 102/116/111 86/105/111 101/129/111
f 110/117/112 94/130/112 109/136/112
f 122/131/113 106/132/113 121/154/113
f 115/133/114 99/123/114 114/144/114
f 123/134/115 107/126/115 122/131/115
f 116/135/116 100/127/116 115/133/116
f 109/136/117 123/134/117 124/162/117
f 117/137/118 101/129/118 116/135/118
f 125/138/119 109/136/119 124/162/119
f 103/139/120 117/137/120 118/151/120
f 111/119/121 125/138/121 126/148/121
f 119/140/122 103/139/122 118/151/122
f 127/141/123 111/119/123 126/148/123
f 105/122/124 119/140/124 120/143/124
f 113/120/125 127/141/125 128/147/125
f 106/132/126 120/143/126 121/154/126
f 126/148/129 140/149/129 141/171/129
f 134/150/130 118/151/130 133/170/130
f 142/152/131 126/148/131 141/171/131
f 120/143/132 134/150/132 135/155/132
f 143/153/133 127/141/133 142/152/133
f 121/154/134 135/155/134 136/175/134
f 137/159/137 121/154/137 136/175/137
f 115/133/138 129/156/138 130/166/138
f 138/160/139 122/131/139 137/159/139
f 131/161/140 115/133/140 130/166/140
f 124/162/141 138/160/141 139/167/141
f 132/163/142 116/135/142 131/161/142
f 140/149/143 124/162/143 139/167/143
f 118/151/144 132/163/144 133/170/144
f 153/164/145 137/159/145 152/180/145
f 146/165/146 130/166/146 145/181/146
f 139/167/147 153/164/147 154/194/147
f 147/168/148 131/161/148 146/165/148
f 155/169/149 139/167/149 154/194/149
f 133/170/150 147/168/150 148/197/150
f 141/171/151 155/169/151 156/183/151
f 149/172/152 133/170/152 148/197/152
f 157/173/153 141/171/153 156/183/153
f 135/155/154 149/172/154 150/176/154
f 158/174/155 142/152/155 157/173/155
f 136/175/156 150/176/156 151/185/156
f 152/180/159 136/175/159 151/185/159
f 145/181/160 129/156/160 144/177/160
f 172/182/161 156/183/161 171/205/161
f 150/176/162 164/184/162 165/186/162
f 158/174/163 172/182/163 173/190/163
f 151/185/164 165/186/164 166/208/164
f 167/191/167 151/185/167 166/208/167
f 160/192/168 144/177/168 159/187/168
f 168/193/169 152/180/169 167/191/169
f 146/165/518 160/192/518 161/199/518
f 154/194/171 168/193/171 169/200/171
f 162/195/172 146/165/172 161/199/172
f 170/196/173 154/194/173 169/200/173
f 148/197/174 162/195/174 163/204/174
f 156/183/175 170/196/175 171/205/175
f 164/184/176 148/197/176 163/204/176
f 176/198/177 160/192/177 175/215/177
f 169/200/178 183/201/178 184/226/178
f 177/202/179 161/199/179 176/198/179
f 185/203/180 169/200/180 184/226/180
f 163/204/181 177/202/181 178/229/181
f 171/205/182 185/203/182 186/230/182
f 179/206/183 163/204/183 178/229/183
f 187/207/184 171/205/184 186/230/184
f 165/186/185 179/206/185 180/209/185
f 173/190/186 187/207/186 188/213/186
f 166/208/187 180/209/187 181/218/187
f 182/214/190 166/208/190 181/218/190
f 175/215/191 159/187/191 174/210/191
f 183/201/192 167/191/192 182/214/192
f 180/209/193 194/216/193 195/219/193
f 203/217/194 187/207/194 202/231/194
f 181/218/195 195/219/195 196/242/195
f 197/223/198 181/218/198 196/242/198
f 175/215/199 189/220/199 190/225/199
f 198/224/200 182/214/200 197/223/200
f 176/198/201 190/225/201 191/235/201
f 184/226/202 198/224/202 199/232/202
f 192/227/203 176/198/203 191/235/203
f 200/228/204 184/226/204 199/232/204
f 178/229/205 192/227/205 193/237/205
f 186/230/206 200/228/206 201/238/206
f 194/216/207 178/229/207 193/237/207
f 202/231/208 186/230/208 201/238/208
f 199/232/209 213/233/209 214/260/209
f 207/234/210 191/235/210 206/249/210
f 215/236/211 199/232/211 214/260/211
f 193/237/212 207/234/212 208/263/212
f 201/238/213 215/236/213 216/264/213
f 209/239/214 193/237/214 208/263/214
f 217/240/215 201/238/215 216/264/215
f 195/219/216 209/239/216 210/243/216
f 218/241/217 202/231/217 217/240/217
f 196/242/218 210/243/218 211/251/218
f 212/247/221 196/242/221 211/251/221
f 205/248/222 189/220/222 204/244/222
f 213/233/223 197/223/223 212/247/223
f 206/249/224 190/225/224 205/248/224
f 233/250/225 217/240/225 232/266/225
f 211/251/226 225/252/226 226/275/226
f 227/256/229 211/251/229 226/275/229
f 220/257/230 204/244/230 219/253/230
f 228/258/231 212/247/231 227/256/231
f 221/259/232 205/248/232 220/257/232
f 214/260/233 228/258/233 229/269/233
f 222/261/234 206/249/234 221/259/234
f 230/262/235 214/260/235 229/269/235
f 208/263/236 222/261/236 223/270/236
f 216/264/237 230/262/237 231/271/237
f 224/265/238 208/263/238 223/270/238
f 232/266/239 216/264/239 231/271/239
f 210/243/240 224/265/240 225/252/240
f 237/267/241 221/259/241 236/283/241
f 245/268/242 229/269/242 244/294/242
f 223/270/243 237/267/243 238/297/243
f 231/271/244 245/268/244 246/298/244
f 239/272/245 223/270/245 238/297/245
f 247/273/246 231/271/246 246/298/246
f 225/252/247 239/272/247 240/276/247
f 248/274/248 232/266/248 247/273/248
f 226/275/249 240/276/249 241/284/249
f 242/280/252 226/275/252 241/284/252
f 235/281/253 219/253/253 234/277/253
f 243/282/254 227/256/254 242/280/254
f 236/283/255 220/257/255 235/281/255
f 229/269/256 243/282/256 244/294/256
f 241/284/519 255/285/519 256/309/519
f 257/290/520 241/284/520 256/309/520
f 250/291/261 234/277/261 249/286/261
f 258/292/262 242/280/262 257/290/262
f 251/293/263 235/281/263 250/291/263
f 244/294/264 258/292/264 259/302/264
f 252/295/265 236/283/265 251/293/265
f 260/296/266 244/294/266 259/302/266
f 238/297/267 252/295/267 253/303/267
f 246/298/268 260/296/268 261/305/268
f 254/299/269 238/297/269 253/303/269
f 262/300/270 246/298/270 261/305/270
f 240/276/271 254/299/271 255/285/271
f 248/274/272 262/300/272 263/289/272
f 275/301/273 259/302/273 274/325/273
f 253/303/274 267/304/274 268/328/274
f 261/305/275 275/301/275 276/307/275
f 269/306/276 253/303/276 268/328/276
f 262/300/277 276/307/277 277/330/277
f 255/285/278 269/306/278 270/310/278
f 278/308/279 262/300/279 277/330/279
f 256/309/280 270/310/280 271/320/280
f 272/314/283 256/309/283 271/320/283
f 250/291/284 264/311/284 265/322/284
f 273/315/285 257/290/285 272/314/285
f 266/316/286 250/291/286 265/322/286
f 259/302/287 273/315/287 274/325/287
f 267/304/288 251/293/288 266/316/288
f 287/319/290 271/320/290 286/341/290
f 280/321/291 264/311/291 279/333/291
f 288/323/292 272/314/292 287/319/292
f 281/324/521 265/322/521 280/321/521
f 274/325/294 288/323/294 289/349/294
f 282/326/295 266/316/295 281/324/295
f 290/327/296 274/325/296 289/349/296
f 268/328/297 282/326/297 283/337/297
f 276/307/298 290/327/298 291/331/298
f 284/329/299 268/328/299 283/337/299
f 277/330/522 291/331/522 292/339/522
f 270/310/301 284/329/301 285/332/301
f 293/318/302 277/330/302 292/339/302
f 271/320/303 285/332/303 286/341/303
f 291/331/305 305/335/305 306/359/305
f 299/336/306 283/337/306 298/358/306
f 307/338/307 291/331/307 306/359/307
f 285/332/308 299/336/308 300/342/308
f 308/340/309 292/339/309 307/338/309
f 286/341/310 300/342/310 301/363/310
f 302/346/313 286/341/313 301/363/313
f 295/347/314 279/333/314 294/343/314
f 303/348/315 287/319/315 302/346/315
f 281/324/316 295/347/316 296/353/316
f 289/349/317 303/348/317 304/355/317
f 297/350/318 281/324/318 296/353/318
f 305/335/319 289/349/319 304/355/319
f 283/337/320 297/350/320 298/358/320
f 295/347/523 309/351/523 310/354/523
f 318/352/322 302/346/322 317/367/322
f 296/353/323 310/354/323 311/381/323
f 304/355/324 318/352/324 319/382/324
f 312/356/325 296/353/325 311/381/325
f 320/357/326 304/355/326 319/382/326
f 298/358/327 312/356/327 313/369/327
f 306/359/328 320/357/328 321/371/328
f 314/360/329 298/358/329 313/369/329
f 322/361/330 306/359/330 321/371/330
f 300/342/331 314/360/331 315/364/331
f 323/362/332 307/338/332 322/361/332
f 301/363/333 315/364/333 316/373/333
f 317/367/336 301/363/336 316/373/336
f 329/368/337 313/369/337 328/391/337
f 322/361/338 336/370/338 337/394/338
f 315/364/339 329/368/339 330/374/339
f 338/372/340 322/361/340 337/394/340
f 316/373/341 330/374/341 331/395/341
f 332/378/344 316/373/344 331/395/344
f 325/379/345 309/351/345 324/375/345
f 333/380/346 317/367/346 332/378/346
f 311/381/347 325/379/347 326/387/347
f 319/382/348 333/380/348 334/388/348
f 327/383/349 311/381/349 326/387/349
f 335/384/350 319/382/350 334/388/350
f 313/369/351 327/383/351 328/391/351
f 321/371/352 335/384/352 336/370/352
f 348/385/353 332/378/353 347/401/353
f 341/386/354 325/379/354 340/413/354
f 334/388/355 348/385/355 349/416/355
f 342/389/356 326/387/356 341/386/356
f 350/390/357 334/388/357 349/416/357
f 328/391/358 342/389/358 343/419/358
f 336/370/359 350/390/359 351/403/359
f 344/392/360 328/391/360 343/419/360
f 352/393/361 336/370/361 351/403/361
f 330/374/362 344/392/362 345/396/362
f 338/372/363 352/393/363 353/400/363
f 331/395/364 345/396/364 346/406/364
f 347/401/367 331/395/367 346/406/367
f 325/379/368 339/397/368 340/413/368
f 367/402/369 351/403/369 366/556/369
f 345/396/370 359/404/370 360/407/370
f 368/405/371 352/393/371 367/402/371
f 346/406/524 360/407/524 361/557/524
f 362/411/525 346/406/525 361/557/525
f 355/412/376 339/397/376 354/408/376
f 363/414/377 347/401/377 362/411/377
f 356/415/378 340/413/378 355/412/378
f 349/416/379 363/414/379 364/558/379
f 357/417/380 341/386/380 356/415/380
f 365/418/381 349/416/381 364/558/381
f 343/419/382 357/417/382 358/559/382
f 351/403/383 365/418/383 366/556/383
f 359/404/384 343/419/384 358/559/384
f 356/420/385 370/421/385 371/457/385
f 364/423/386 378/424/386 379/458/386
f 372/426/387 356/420/387 371/457/387
f 380/428/388 364/423/388 379/458/388
f 358/430/389 372/426/389 373/461/389
f 366/431/390 380/428/390 381/462/390
f 374/432/391 358/430/391 373/461/391
f 382/434/392 366/431/392 381/462/392
f 360/436/393 374/432/393 375/440/393
f 383/437/394 367/435/394 382/434/394
f 361/439/526 375/440/526 376/449/526
f 377/445/527 361/439/527 376/449/527
f 355/422/399 369/442/399 370/421/399
f 378/424/400 362/446/400 377/445/400
f 375/440/401 389/447/401 390/450/401
f 398/448/402 382/434/402 397/463/402
f 376/449/403 390/450/403 391/474/403
f 392/454/406 376/449/406 391/474/406
f 385/455/407 369/442/407 384/451/407
f 393/456/408 377/445/408 392/454/408
f 371/457/409 385/455/409 386/467/409
f 379/458/410 393/456/410 394/464/410
f 387/459/411 371/457/411 386/467/411
f 395/460/412 379/458/412 394/464/412
f 373/461/413 387/459/413 388/469/413
f 381/462/414 395/460/414 396/470/414
f 389/447/415 373/461/415 388/469/415
f 397/463/416 381/462/416 396/470/416
f 394/464/417 408/465/417 409/493/417
f 402/466/418 386/467/418 401/480/418
f 410/468/419 394/464/419 409/493/419
f 388/469/420 402/466/420 403/496/420
f 396/470/421 410/468/421 411/472/421
f 404/471/422 388/469/422 403/496/422
f 397/463/423 411/472/423 412/482/423
f 390/450/424 404/471/424 405/475/424
f 413/473/425 397/463/425 412/482/425
f 391/474/426 405/475/426 406/483/426
f 407/479/429 391/474/429 406/483/429
f 385/455/430 399/476/430 400/491/430
f 408/465/431 392/454/431 407/479/431
f 401/480/432 385/455/432 400/491/432
f 413/473/433 427/481/433 428/488/433
f 406/483/434 420/484/434 421/506/434
f 422/489/437 406/483/437 421/506/437
f 415/490/438 399/476/438 414/485/438
f 423/492/439 407/479/439 422/489/439
f 401/480/440 415/490/440 416/514/440
f 409/493/441 423/492/441 424/499/441
f 417/494/442 401/480/442 416/514/442
f 425/495/443 409/493/443 424/499/443
f 403/496/444 417/494/444 418/500/444
f 411/472/445 425/495/445 426/502/445
f 419/497/446 403/496/446 418/500/446
f 427/481/447 411/472/447 426/502/447
f 405/475/448 419/497/448 420/484/448
f 440/498/449 424/499/449 439/524/449
f 418/500/450 432/501/450 433/527/450
f 426/502/451 440/498/451 441/528/451
f 434/503/452 418/500/452 433/527/452
f 442/504/453 426/502/453 441/528/453
f 420/484/454 434/503/454 435/507/454
f 443/505/455 427/481/455 442/504/455
f 421/506/456 435/507/456 436/520/456
f 437/511/459 421/506/459 436/520/459
f 430/512/460 414/485/460 429/508/460
f 438/513/461 422/489/461 437/511/461
f 416/514/462 430/512/462 431/523/462
f 424/499/463 438/513/463 439/524/463
f 432/501/464 416/514/464 431/523/464
f 452/519/467 436/520/467 451/539/467
f 445/521/468 429/508/468 444/515/468
f 453/522/469 437/511/469 452/519/469
f 431/523/470 445/521/470 446/547/470
f 439/524/471 453/522/471 454/548/471
f 447/525/472 431/523/472 446/547/472
f 455/526/473 439/524/473 454/548/473
f 433/527/474 447/525/474 448/532/474
f 441/528/475 455/526/475 456/534/475
f 449/529/476 433/527/476 448/532/476
f 457/530/477 441/528/477 456/534/477
f 435/507/478 449/529/478 450/531/478
f 458/518/479 442/504/479 457/530/479
f 436/520/480 450/531/480 451/539/480
f 448/532/481 462/533/481 463/552/481
f 456/534/482 470/535/482 471/553/482
f 464/536/483 448/532/483 463/552/483
f 472/537/484 456/534/484 471/553/484
f 450/531/485 464/536/485 465/540/485
f 473/538/486 457/530/486 472/537/486
f 451/539/487 465/540/487 466/549/487
f 467/544/490 451/539/490 466/549/490
f 460/545/491 444/515/491 459/541/491
f 468/546/492 452/519/492 467/544/492
f 446/547/493 460/545/493 461/550/493
f 454/548/494 468/546/494 469/551/494
f 462/533/495 446/547/495 461/550/495
f 470/535/496 454/548/496 469/551/496
f 6/9/497 466/549/497 5/8/497
f 460/545/498 474/1/498 475/10/498
f 478/12/499 467/544/499 6/9/499
f 461/550/500 475/10/500 2/13/500
f 7/16/501 468/546/501 478/12/501
f 462/533/502 2/13/502 476/17/502
f 479/20/503 469/551/503 7/16/503
f 463/552/504 476/17/504 3/22/504
f 471/553/505 479/20/505 480/24/505
f 464/536/506 3/22/506 477/25/506
f 481/27/507 471/553/507 480/24/507
f 465/540/508 477/25/508 4/28/508
f 482/6/509 472/537/509 481/27/509
f 466/549/510 4/28/510 5/8/510
