# Blender 5.0.1
# www.blender.org
mtllib AttackEffect.mtl
o 平面
v 0.000000 -0.644782 0.277126
v -0.000000 -0.644783 -1.398337
v 0.000000 0.644783 0.277124
v -0.000000 0.644782 -1.398338
vn -1.0000 -0.0000 -0.0000
vt 1.000000 0.000000
vt 0.000000 1.000000
vt 0.000000 0.000000
vt 1.000000 1.000000
s 0
usemtl マテリアル.003
f 2/1/1 1/3/1 3/2/1
f 2/1/1 3/2/1 4/4/1
o 平面.001
v 0.000000 0.644783 0.277124
v -0.000000 0.644782 -1.398338
v 0.000000 -0.644782 0.277126
v -0.000000 -0.644783 -1.398337
vn 1.0000 -0.0000 -0.0000
vt 1.000000 0.000000
vt 0.000000 1.000000
vt 0.000000 0.000000
vt 1.000000 1.000000
s 0
usemtl マテリアル.002
f 6/5/2 5/7/2 7/6/2
f 6/5/2 7/6/2 8/8/2
